<?xml version="1.0" encoding="UTF-8"?>
<svg width="21px" height="18px" viewBox="0 0 21 18" version="1.1" xmlns="http://www.w3.org/2000/svg"
     xmlns:xlink="http://www.w3.org/1999/xlink">
    <!-- Generator: Sketch 43.2 (39069) - http://www.bohemiancoding.com/sketch -->
    <title>group</title>
    <desc>Created with Sketch.</desc>
    <defs></defs>
    <g id="Current" stroke="none" stroke-width="1" fill="none" fill-rule="evenodd">
        <g id="1-Page-Export---04052017---letter-size-FINAL" transform="translate(-53.000000, -220.000000)"
           fill="#4A4A4A">
            <g id="Candidates-and-Job-Postings" transform="translate(53.000000, 214.000000)">
                <g id="Candidates">
                    <path d="M0.38352865,19.8857651 C0.38352865,15.5173355 4.21871914,15.5181513 5.06958577,14.3760477 L5.16697412,13.854759 C3.971171,13.2483953 3.12706097,11.7870854 3.12706097,10.0776594 C3.12706097,7.8256176 4.59138101,6 6.39749222,6 C7.81905925,6 9.02581273,7.13406223 9.47640859,8.71459372 C7.66703557,9.28960791 6.32922719,11.2516952 6.32922719,13.5843835 C6.32922719,15.1904375 6.96225146,16.6667812 8.00067221,17.6045881 C7.83408687,17.6901293 7.64839665,17.7775352 7.48868441,17.8522381 C6.65144749,18.2455646 5.49012637,18.7917931 4.65230698,19.8857651 L0.38352865,19.8857651 Z M10.6089559,23.3924893 L10.6089559,23.3920231 L4.55223928,23.3920231 C4.55223928,19.023477 8.38742977,19.0248754 9.2384129,17.8826553 L9.33580125,17.3614832 C8.14034761,16.7551194 7.29623758,15.2938095 7.29623758,13.5843835 C7.29623758,11.3322252 8.76055762,9.50672413 10.5662029,9.50672413 C12.3723141,9.50672413 13.8361681,11.3322252 13.8361681,13.5843835 C13.8361681,15.2792419 13.0075517,16.7318112 11.8275917,17.3473817 L11.9386097,17.939644 C12.8724196,19.0267401 16.5797005,19.0972475 16.5797005,23.3924893 L10.6089559,23.3924893 Z M16.4800987,19.8862313 L16.4800987,19.8857651 C15.6418134,18.7922592 14.4806087,18.2460307 13.6427894,17.8527042 C13.4780679,17.7753209 13.2956395,17.689197 13.1321995,17.6055204 C14.1698048,16.666315 14.8036445,15.1868247 14.8036445,13.5843835 C14.8036445,11.2521614 13.4658361,9.29054024 11.657395,8.71505989 C12.1075249,7.13406223 13.3142784,6 14.7363114,6 C16.5424226,6 18.0062767,7.82596722 18.0062767,10.0781255 C18.0062767,11.7725178 17.1771943,13.2252036 15.9977002,13.8411237 L16.1082523,14.4329198 C17.0420621,15.520016 20.749809,15.5905234 20.749809,19.8862313 L16.4800987,19.8862313 Z"
                          id="group"></path>
                </g>
            </g>
        </g>
    </g>
</svg>