<?xml version="1.0" encoding="utf-8"?>
<!-- Generator: Adobe Illustrator 16.0.0, SVG Export Plug-In . SVG Version: 6.00 Build 0)  -->
<!DOCTYPE svg PUBLIC "-//W3C//DTD SVG 1.1//EN" "http://www.w3.org/Graphics/SVG/1.1/DTD/svg11.dtd">
<svg version="1.1" id="Layer_1" xmlns="http://www.w3.org/2000/svg" xmlns:xlink="http://www.w3.org/1999/xlink" x="0px" y="0px"
	 width="652px" height="126px" viewBox="0 0 652 126" enable-background="new 0 0 652 126" xml:space="preserve">
<polygon fill="#172642" points="241.611,57.93 241.611,51.88 264.379,51.88 264.379,42.403 241.611,42.403 241.611,28.449 
	267.906,28.449 267.906,18.969 231.023,18.969 231.023,67.41 267.906,67.41 267.906,57.93 "/>
<polygon fill="#172642" points="282.442,57.93 282.442,51.88 305.213,51.88 305.213,42.403 282.442,42.403 282.442,28.449 
	308.739,28.449 308.739,18.969 271.857,18.969 271.857,67.41 308.739,67.41 308.739,57.93 "/>
<rect x="453.517" y="19.049" fill="#172642" width="3.585" height="48.271"/>
<polygon fill="#172642" points="467.738,67.32 467.738,19.049 471.323,19.049 471.323,64.011 499.669,64.011 499.669,67.32 "/>
<polygon fill="#172642" points="552.65,67.32 552.65,19.049 586.993,19.049 586.993,22.356 556.238,22.356 556.238,41.249 
	583.893,41.249 583.893,44.559 556.238,44.559 556.238,64.011 587.34,64.011 587.34,67.32 "/>
<path fill="#172642" d="M543.244,43.322c0,11.516-8.483,20.692-21.932,20.692h-12.481V22.358h12.481
	c13.447,0,21.932,9.376,21.932,20.824V43.322z M521.312,19.049h-16.066V67.32h16.066c15.17,0,25.651-10.547,25.651-24.138v-0.139
	C546.965,29.461,536.482,19.049,521.312,19.049"/>
<path fill="#172642" d="M393.973,54.16c0,6.064-5.242,9.859-13.516,9.859h-17.518V44.569h16.345c9.517,0,14.688,3.519,14.688,9.452
	V54.16L393.973,54.16z M362.939,22.369h16.276c7.724,0,12.065,3.588,12.065,8.893v0.14c0,6.413-5.172,9.856-12.411,9.856h-15.931
	V22.369z M386.73,42.505c3.932-1.589,8.207-4.899,8.207-11.445v-0.14c0-7.24-6.277-11.864-15.653-11.864h-19.929v48.273h20.963
	c10.41,0,17.311-5.103,17.311-13.169v-0.139C397.629,47.33,392.525,44.022,386.73,42.505"/>
<path fill="#172642" d="M423.036,68.089c-11.588,0-19.793-7.312-19.793-20.824V19.058h3.588v27.858
	c0,11.378,6.136,17.932,16.341,17.932c9.792,0,16.07-5.931,16.07-17.583V19.058h3.584v27.79
	C442.826,60.709,434.759,68.089,423.036,68.089"/>
<path fill="#172642" d="M119.966,67.41c-14.252,0-24.843-10.795-24.843-24.44v-0.139c0-13.509,10.38-24.574,25.257-24.574
	c9.135,0,14.602,2.985,19.1,7.332l-6.778,7.673c-3.739-3.325-7.546-5.364-12.39-5.364c-8.164,0-14.046,6.654-14.046,14.802v0.132
	c0,8.148,5.745,14.938,14.046,14.938c5.537,0,8.925-2.172,12.732-5.569l6.784,6.724C134.845,64.148,129.308,67.41,119.966,67.41"/>
<path fill="#172642" d="M216.139,35.646c0,4.082-2.974,6.849-8.163,6.849h-10.797v-13.91h10.587c5.189,0,8.373,2.354,8.373,6.923
	V35.646L216.139,35.646z M216.555,50.108c6.162-2.282,10.382-7.196,10.382-15.015v-0.139c0-9.968-6.853-15.989-18.27-15.989h-22.144
	v48.439h10.656V51.908h8.372l10.381,15.498h12.458L216.555,50.108z"/>
<path fill="#172642" d="M342.305,35.646c0,4.082-2.975,6.849-8.166,6.849h-10.795v-13.91h10.592c5.188,0,8.369,2.354,8.369,6.923
	V35.646L342.305,35.646z M342.725,50.108c6.154-2.282,10.379-7.196,10.379-15.015v-0.139c0-9.968-6.854-15.989-18.268-15.989
	h-22.148v48.439h10.656V51.908h8.375l10.383,15.498h12.453L342.725,50.108z"/>
<path fill="#172642" d="M154.229,42.526l0.006-7.297c0.031-4.664,3.252-7.2,8.413-7.29c5.165,0.09,8.382,2.626,8.413,7.29
	l0.006,7.297H154.229z M171.335,19.602c-2.354-0.861-5.044-1.345-8.062-1.345h-1.25c-3.017,0-5.71,0.483-8.064,1.345
	c-6.716,2.458-10.582,8.122-10.582,15.483v0.139v32.183h10.942V52.049h16.65v15.357h10.949V35.224v-0.139
	C181.92,27.724,178.051,22.06,171.335,19.602"/>
<path fill="#172642" d="M596.44,41.249V22.285h16.271c7.726,0,11.862,2.891,12.068,8.943c0.263,7.69-4.341,10.021-12.41,10.021
	H596.44z M615.582,44.559c6.59-0.438,13.097-3.325,12.924-13.346c-0.147-8.725-6.343-12.238-15.722-12.238h-19.933v48.271h3.589
	v-0.059v-3.252V44.559c0,0,12.672-0.003,13.706,0l1.015-0.009L627.61,67.32h4.551L615.582,44.559z"/>
<g>
	<path fill="#182642" d="M43.001,75.613c-17.973,0-32.544-14.574-32.544-32.551c0-17.974,14.571-32.544,32.544-32.544h34.463v65.095
		"/>
	<path fill="#FFFFFF" d="M50.701,40.021c-1.215-3.06-4.205-5.231-7.7-5.231c-4.565,0-8.274,3.708-8.274,8.273
		c0,4.572,3.709,8.277,8.274,8.277c3.471,0,6.444-2.138,7.676-5.168l21-0.003C70.13,60.639,57.88,71.907,43.001,71.907v2.286
		c-16.928,0-31.127-14.196-31.127-31.131c0-16.928,14.2-31.124,31.127-31.124v2.282c14.907,0,27.167,11.307,28.682,25.804
		L50.701,40.021z"/>
	<path fill="#079B75" d="M42.511,53.222c-2.449-0.113-4.656-1.095-6.352-2.641L23.386,63.34c4.973,4.812,11.686,7.812,19.125,7.93
		V53.222z"/>
	<path fill="#2B7BB9" d="M35.489,49.911c-1.648-1.808-2.653-4.207-2.653-6.849c0-2.621,0.997-5.013,2.628-6.821L22.695,23.482
		c-4.896,5.071-7.904,11.976-7.904,19.58c0,7.621,3.017,14.527,7.919,19.605L35.489,49.911z"/>
	<path fill="#FDB817" d="M42.511,14.855c-7.441,0.127-14.17,3.129-19.137,7.948l12.76,12.769c1.697-1.559,3.921-2.546,6.374-2.662
		L42.511,14.855z"/>
	<polyline fill="#FFFFFF" points="42.511,62.054 42.511,64.457 42.52,64.457 42.52,62.058 42.511,62.054 	"/>
	<polyline fill="#FFFFFF" points="42.511,59.846 42.511,60.888 42.52,60.891 42.52,59.849 42.511,59.846 	"/>
	<polyline fill="#FFFFFF" points="42.511,15.088 42.511,16.905 42.52,16.907 42.52,15.088 42.511,15.088 	"/>
	<polyline fill="#FFFFFF" points="42.511,17.697 42.511,20.557 42.52,20.561 42.52,17.701 42.511,17.697 	"/>
	<path fill="#5595C7" d="M22.695,23.482c-0.12,0.127-0.241,0.252-0.361,0.379c0.145-0.102,0.291-0.206,0.441-0.312L22.695,23.482z"
		/>
	<path fill="#34B08F" d="M23.479,63.245l-0.093,0.095c0.194,0.192,0.389,0.374,0.589,0.553
		C23.806,63.684,23.64,63.465,23.479,63.245"/>
	<path fill="#F79D27" d="M40.542,14.958c-2.406,0.209-4.732,0.72-6.929,1.49c1.098-0.16,2.2-0.237,3.298-0.237
		c1.894,0,3.776,0.233,5.6,0.694v-1.817C41.856,15.011,41.203,14.971,40.542,14.958"/>
	<path fill="#F79D27" d="M37.177,17.017c-2.98,0-5.926,0.626-8.639,1.826c-1.875,1.119-3.606,2.449-5.164,3.961l0.213,0.216
		c3.644-2.283,7.867-3.496,12.155-3.496c2.265,0,4.545,0.34,6.769,1.033v-2.859C40.749,17.238,38.957,17.017,37.177,17.017"/>
	<path fill="#F79D27" d="M35.573,20.317c-4.196,0-8.099,1.205-11.393,3.294l1.848,1.846c3.091-1.564,6.586-2.447,10.288-2.447
		c2.15,0,4.224,0.31,6.195,0.864v-2.4C40.333,20.724,38,20.317,35.573,20.317"/>
	<path fill="#F79D27" d="M35.816,23.967c-3.104,0-6.238,0.679-9.187,2.094l1.968,1.969c3.184-1.552,6.577-2.295,9.934-2.295
		c1.335,0,2.669,0.12,3.977,0.349l0.003-1.04C40.357,24.334,38.099,23.967,35.816,23.967"/>
	<path fill="#F79D27" d="M37.929,26.993c-2.956,0-5.883,0.614-8.58,1.789l1.197,1.197c2.811-1.607,5.932-2.601,9.147-2.916
		C39.104,27.018,38.516,26.993,37.929,26.993"/>
	<path fill="#007458" d="M31.581,55.153l-0.293,0.293c2.566,4.165,6.524,7.386,11.223,9.011v-2.403
		C38.219,60.845,34.443,58.408,31.581,55.153"/>
	<path fill="#007458" d="M37.025,58.154c1.697,1.176,3.544,2.093,5.485,2.733v-1.042C40.619,59.512,38.774,58.95,37.025,58.154"/>
	<path fill="#007458" d="M25.814,60.912l-1.734,1.734c1.697,2.273,3.832,4.206,6.284,5.652c2.508,1.259,5.229,2.153,8.098,2.616
		C33.132,69.221,28.649,65.62,25.814,60.912"/>
	<path fill="#007458" d="M28.366,58.364l-1.972,1.972c3.53,6.096,9.613,9.789,16.117,10.514v-1.826
		C36.76,67.573,31.574,63.898,28.366,58.364"/>
	<path fill="#007458" d="M30.396,56.337l-1.32,1.321c1.811,3.393,4.566,6.34,8.141,8.406c1.703,0.98,3.48,1.693,5.294,2.166v-2.859
		c-1.57-0.494-3.11-1.16-4.597-2.015C34.804,61.555,32.274,59.137,30.396,56.337"/>
	<path fill="#215D8D" d="M23.365,24.148c-1.613,1.129-3.063,2.477-4.31,3.999c-1.534,2.455-2.703,5.164-3.421,8.048
		c2.021-4.337,5.365-7.932,9.514-10.267L23.365,24.148z"/>
	<path fill="#215D8D" d="M25.731,26.515c-0.185,0.102-0.371,0.207-0.555,0.314c-5.692,3.285-9.298,8.802-10.347,14.802
		c-0.027,0.476-0.037,0.954-0.037,1.432c0,2.699,0.376,5.31,1.086,7.783c-0.87-8.655,3.27-17.424,11.294-22.06
		c0.176-0.099,0.354-0.201,0.534-0.301L25.731,26.515z"/>
	<path fill="#215D8D" d="M28.431,29.212c-3.65,1.802-6.815,4.664-9.002,8.452c-3.458,5.994-3.68,12.967-1.209,18.896
		c1.221,2.236,2.736,4.291,4.491,6.107l0.216-0.216c-4.67-6.993-5.282-16.311-0.79-24.087c1.913-3.317,4.535-5.971,7.564-7.883
		L28.431,29.212z"/>
	<path fill="#215D8D" d="M30.615,31.396c-6.417,3.683-10.745,10.6-10.745,18.524c0,4.425,1.345,8.534,3.649,11.94l1.808-1.802
		c-1.762-3.234-2.761-6.941-2.761-10.885c0-7.07,3.215-13.38,8.262-17.565L30.615,31.396z"/>
	<path fill="#215D8D" d="M27.335,37.47c-4.387,6.327-5.165,14.783-1.419,21.999L27.89,57.5C24.51,51.059,24.519,43.681,27.335,37.47
		"/>
	<path fill="#215D8D" d="M26.62,45.799c-0.312,3.783,0.392,7.571,2.005,10.968l1.247-1.246C28.063,52.562,26.953,49.23,26.62,45.799
		"/>
</g>
<g>
	<path fill="#182642" d="M112.34,88.309v2.293h-9.985v7.271h8.534v2.293h-8.534v8.939h-2.83V88.309H112.34z"/>
	<path fill="#182642" d="M135.271,98.714c0,1.56-0.247,2.987-0.74,4.289c-0.494,1.302-1.19,2.421-2.09,3.358
		c-0.9,0.938-1.981,1.668-3.244,2.186c-1.263,0.518-2.659,0.776-4.187,0.776c-1.529,0-2.922-0.259-4.18-0.776
		c-1.258-0.518-2.337-1.246-3.237-2.186c-0.899-0.938-1.596-2.059-2.09-3.358c-0.493-1.302-0.74-2.729-0.74-4.289
		c0-1.558,0.247-2.987,0.74-4.288c0.494-1.302,1.19-2.424,2.09-3.367c0.9-0.942,1.979-1.677,3.237-2.199
		c1.257-0.521,2.651-0.782,4.18-0.782c1.528,0,2.924,0.261,4.187,0.782c1.263,0.522,2.344,1.257,3.244,2.199
		c0.9,0.943,1.596,2.065,2.09,3.367C135.024,95.727,135.271,97.156,135.271,98.714z M132.383,98.714
		c0-1.276-0.174-2.424-0.522-3.438c-0.348-1.016-0.842-1.875-1.48-2.576c-0.639-0.701-1.413-1.24-2.322-1.618
		c-0.91-0.377-1.926-0.565-3.048-0.565c-1.113,0-2.124,0.188-3.033,0.565c-0.91,0.378-1.686,0.917-2.33,1.618
		s-1.139,1.561-1.487,2.576c-0.349,1.016-0.522,2.162-0.522,3.438c0,1.277,0.174,2.422,0.522,3.433
		c0.348,1.012,0.844,1.867,1.487,2.568c0.644,0.702,1.42,1.239,2.33,1.611c0.909,0.373,1.92,0.559,3.033,0.559
		c1.122,0,2.138-0.186,3.048-0.559c0.909-0.372,1.683-0.909,2.322-1.611c0.639-0.701,1.132-1.558,1.48-2.568
		C132.209,101.137,132.383,99.991,132.383,98.714z"/>
	<path fill="#182642" d="M142.208,100.427v8.679h-2.801V88.309h5.878c1.316,0,2.453,0.133,3.411,0.398
		c0.958,0.268,1.749,0.65,2.373,1.154c0.624,0.502,1.086,1.109,1.386,1.82c0.3,0.711,0.45,1.508,0.45,2.389
		c0,0.734-0.116,1.422-0.348,2.061s-0.568,1.212-1.009,1.721c-0.441,0.508-0.977,0.94-1.611,1.299
		c-0.634,0.357-1.352,0.629-2.155,0.812c0.349,0.203,0.658,0.499,0.929,0.886l6.066,8.258h-2.497c-0.513,0-0.89-0.197-1.132-0.594
		l-5.399-7.432c-0.165-0.232-0.343-0.398-0.537-0.501c-0.193-0.103-0.484-0.152-0.871-0.152H142.208z M142.208,98.38h2.946
		c0.822,0,1.546-0.099,2.17-0.297c0.624-0.198,1.146-0.479,1.567-0.842c0.421-0.363,0.738-0.796,0.951-1.3
		c0.213-0.502,0.319-1.06,0.319-1.668c0-1.238-0.409-2.172-1.227-2.803c-0.817-0.629-2.034-0.943-3.65-0.943h-3.077L142.208,98.38
		L142.208,98.38z"/>
	<path fill="#182642" d="M176.226,88.309v2.293h-9.985v6.908h8.083v2.206h-8.083v7.097h9.985v2.293h-12.815V88.309H176.226z"/>
	<path fill="#182642" d="M190.863,102.32c0.102,0.257,0.201,0.516,0.297,0.775c0.097-0.271,0.198-0.529,0.305-0.775
		c0.106-0.246,0.227-0.495,0.363-0.747l7.039-12.786c0.125-0.223,0.256-0.357,0.392-0.406c0.136-0.049,0.329-0.072,0.581-0.072
		h2.076v20.797h-2.467V93.823c0-0.203,0.004-0.421,0.014-0.653c0.01-0.232,0.024-0.469,0.044-0.711l-7.126,13.004
		c-0.242,0.436-0.581,0.653-1.016,0.653h-0.406c-0.436,0-0.774-0.218-1.016-0.653l-7.286-13.048
		c0.029,0.252,0.051,0.499,0.065,0.739c0.015,0.242,0.022,0.466,0.022,0.669v15.282h-2.467V88.309h2.075
		c0.251,0,0.445,0.023,0.581,0.072c0.135,0.049,0.266,0.184,0.392,0.406l7.184,12.801
		C190.643,101.82,190.761,102.064,190.863,102.32z"/>
	<path fill="#182642" d="M210.071,101.326v7.779h-2.801V88.309h6.139c1.316,0,2.46,0.152,3.432,0.457
		c0.973,0.305,1.778,0.737,2.417,1.299c0.639,0.562,1.115,1.238,1.43,2.031c0.314,0.795,0.472,1.68,0.472,2.656
		c0,0.969-0.169,1.854-0.508,2.656c-0.339,0.803-0.834,1.494-1.488,2.074c-0.653,0.58-1.463,1.033-2.431,1.356
		c-0.968,0.324-2.076,0.486-3.324,0.486L210.071,101.326L210.071,101.326z M210.071,99.092h3.338c0.803,0,1.512-0.105,2.126-0.318
		c0.614-0.213,1.13-0.512,1.546-0.894c0.416-0.383,0.73-0.84,0.943-1.372c0.212-0.531,0.319-1.117,0.319-1.756
		c0-1.325-0.409-2.359-1.227-3.105c-0.818-0.744-2.054-1.117-3.708-1.117h-3.338L210.071,99.092L210.071,99.092z"/>
	<path fill="#182642" d="M227.529,106.74h8.998v2.365h-11.813V88.309h2.815V106.74z"/>
	<path fill="#182642" d="M257.79,98.714c0,1.56-0.247,2.987-0.74,4.289c-0.494,1.302-1.19,2.421-2.09,3.358
		c-0.9,0.938-1.981,1.668-3.244,2.186c-1.263,0.518-2.659,0.776-4.187,0.776c-1.529,0-2.922-0.259-4.18-0.776
		c-1.258-0.518-2.337-1.246-3.237-2.186c-0.899-0.938-1.596-2.059-2.09-3.358c-0.493-1.302-0.74-2.729-0.74-4.289
		c0-1.558,0.247-2.987,0.74-4.288c0.494-1.302,1.19-2.424,2.09-3.367c0.9-0.942,1.979-1.677,3.237-2.199
		c1.257-0.521,2.651-0.782,4.18-0.782c1.528,0,2.924,0.261,4.187,0.782c1.263,0.522,2.344,1.257,3.244,2.199
		c0.9,0.943,1.596,2.065,2.09,3.367C257.543,95.727,257.79,97.156,257.79,98.714z M254.901,98.714c0-1.276-0.174-2.424-0.522-3.438
		c-0.348-1.016-0.842-1.875-1.48-2.576c-0.639-0.701-1.413-1.24-2.322-1.618c-0.91-0.377-1.926-0.565-3.048-0.565
		c-1.113,0-2.124,0.188-3.033,0.565c-0.91,0.378-1.686,0.917-2.33,1.618s-1.139,1.561-1.487,2.576
		c-0.349,1.016-0.522,2.162-0.522,3.438c0,1.277,0.174,2.422,0.522,3.433c0.348,1.012,0.844,1.867,1.487,2.568
		c0.644,0.702,1.42,1.239,2.33,1.611c0.909,0.373,1.92,0.559,3.033,0.559c1.122,0,2.138-0.186,3.048-0.559
		c0.909-0.372,1.683-0.909,2.322-1.611c0.639-0.701,1.132-1.558,1.48-2.568C254.727,101.137,254.901,99.991,254.901,98.714z"/>
	<path fill="#182642" d="M268.485,100.833v8.272h-2.801v-8.272l-7.619-12.524h2.467c0.251,0,0.45,0.062,0.595,0.188
		c0.146,0.126,0.271,0.28,0.377,0.464l4.76,8.084c0.193,0.339,0.355,0.658,0.486,0.958c0.13,0.3,0.249,0.595,0.355,0.886
		c0.106-0.3,0.223-0.601,0.348-0.9c0.126-0.299,0.286-0.613,0.479-0.942l4.746-8.084c0.087-0.153,0.205-0.302,0.355-0.442
		c0.15-0.14,0.346-0.209,0.588-0.209h2.496L268.485,100.833z"/>
	<path fill="#182642" d="M291.546,88.309v2.293h-9.985v6.908h8.083v2.206h-8.083v7.097h9.985v2.293h-12.815V88.309H291.546z"/>
	<path fill="#182642" d="M298.687,100.427v8.679h-2.801V88.309h5.878c1.316,0,2.453,0.133,3.411,0.398
		c0.958,0.268,1.749,0.65,2.373,1.154c0.624,0.502,1.086,1.109,1.386,1.82c0.3,0.711,0.45,1.508,0.45,2.389
		c0,0.734-0.116,1.422-0.348,2.061s-0.568,1.212-1.009,1.721c-0.441,0.508-0.977,0.94-1.611,1.299
		c-0.634,0.357-1.352,0.629-2.155,0.812c0.349,0.203,0.658,0.499,0.929,0.886l6.066,8.258h-2.497c-0.513,0-0.89-0.197-1.132-0.594
		l-5.399-7.432c-0.165-0.232-0.343-0.398-0.537-0.501c-0.193-0.103-0.484-0.152-0.871-0.152H298.687z M298.687,98.38h2.946
		c0.822,0,1.546-0.099,2.17-0.297s1.146-0.479,1.567-0.842c0.421-0.363,0.738-0.796,0.951-1.3c0.213-0.502,0.319-1.06,0.319-1.668
		c0-1.238-0.409-2.172-1.227-2.803c-0.817-0.629-2.034-0.943-3.65-0.943h-3.077L298.687,98.38L298.687,98.38z"/>
	<path fill="#182642" d="M324.941,91.561c-0.087,0.145-0.179,0.254-0.275,0.325c-0.097,0.072-0.223,0.108-0.377,0.108
		c-0.165,0-0.355-0.082-0.573-0.246c-0.218-0.165-0.494-0.346-0.827-0.545c-0.334-0.198-0.736-0.379-1.205-0.544
		c-0.47-0.164-1.038-0.247-1.706-0.247c-0.629,0-1.185,0.085-1.669,0.255c-0.484,0.169-0.888,0.397-1.212,0.688
		c-0.324,0.291-0.568,0.631-0.733,1.022c-0.165,0.392-0.247,0.815-0.247,1.271c0,0.58,0.143,1.062,0.428,1.443
		c0.285,0.383,0.663,0.709,1.132,0.979c0.469,0.271,1.001,0.507,1.597,0.705c0.595,0.197,1.205,0.404,1.829,0.617
		s1.233,0.451,1.829,0.717c0.595,0.268,1.127,0.604,1.596,1.01c0.469,0.406,0.847,0.904,1.132,1.495
		c0.285,0.591,0.428,1.315,0.428,2.177c0,0.91-0.155,1.764-0.464,2.562c-0.31,0.799-0.762,1.492-1.357,2.082
		c-0.595,0.59-1.326,1.056-2.191,1.395c-0.866,0.338-1.851,0.508-2.954,0.508c-1.345,0-2.571-0.244-3.679-0.732
		s-2.054-1.148-2.837-1.98l0.812-1.336c0.078-0.105,0.172-0.195,0.283-0.268c0.111-0.073,0.234-0.109,0.37-0.109
		c0.203,0,0.436,0.109,0.697,0.326c0.261,0.218,0.587,0.457,0.979,0.719s0.866,0.501,1.422,0.719
		c0.556,0.219,1.236,0.326,2.039,0.326c0.667,0,1.263-0.092,1.785-0.275c0.522-0.183,0.965-0.442,1.328-0.775
		c0.363-0.334,0.641-0.733,0.834-1.197c0.194-0.465,0.291-0.982,0.291-1.554c0-0.63-0.143-1.144-0.428-1.546
		c-0.286-0.4-0.66-0.737-1.125-1.008c-0.465-0.271-0.994-0.502-1.589-0.689c-0.595-0.188-1.205-0.382-1.829-0.581
		c-0.624-0.198-1.234-0.428-1.829-0.688c-0.595-0.262-1.125-0.601-1.589-1.017c-0.464-0.416-0.839-0.937-1.125-1.56
		c-0.286-0.625-0.428-1.396-0.428-2.315c0-0.735,0.143-1.446,0.428-2.133c0.285-0.688,0.699-1.297,1.241-1.829
		s1.212-0.958,2.01-1.277c0.798-0.318,1.715-0.479,2.75-0.479c1.161,0,2.221,0.184,3.178,0.552c0.958,0.367,1.795,0.899,2.511,1.597
		L324.941,91.561z"/>
</g>
<polygon fill="#172642" points="633.865,22.822 631.31,22.822 631.31,21.119 638.266,21.119 638.266,22.822 635.712,22.822 
	635.712,29.514 633.865,29.514 "/>
<polygon fill="#172642" points="639.686,21.119 641.677,21.119 643.884,24.67 646.091,21.119 648.082,21.119 648.082,29.516 
	646.247,29.516 646.247,24.035 643.884,27.619 643.836,27.619 641.497,24.07 641.497,29.516 639.686,29.516 "/>
</svg>
