<?xml version="1.0" encoding="UTF-8"?>
<svg width="10px" height="19px" viewBox="0 0 10 19" version="1.1" xmlns="http://www.w3.org/2000/svg"
     xmlns:xlink="http://www.w3.org/1999/xlink">
    <!-- Generator: Sketch 43.2 (39069) - http://www.bohemiancoding.com/sketch -->
    <title></title>
    <desc>Created with Sketch.</desc>
    <defs></defs>
    <g id="Current" stroke="none" stroke-width="1" fill="none" fill-rule="evenodd">
        <g id="1-Page-Export---04052017---letter-size-FINAL" transform="translate(-228.000000, -220.000000)"
           fill="#4A4A4A">
            <g id="Candidates-and-Job-Postings" transform="translate(53.000000, 214.000000)">
                <g id="Median-Comp" transform="translate(175.000000, 0.000000)">
                    <path d="M9.8236611,18.1743307 C9.8236611,19.1988894 9.4905171,20.0811351 8.8242191,20.8210942 C8.1579211,21.5610533 7.29241633,22.01808 6.22767882,22.192188 L6.22767882,23.9500006 C6.22767882,24.043751 6.19754519,24.1207592 6.13727703,24.1810273 C6.07700887,24.2412955 6.00000071,24.2714291 5.90625023,24.2714291 L4.5502234,24.2714291 C4.46316938,24.2714291 4.38783531,24.2396214 4.32421892,24.176005 C4.26060253,24.1123886 4.22879481,24.0370546 4.22879481,23.9500006 L4.22879481,22.192188 C3.7868283,22.1319198 3.35993523,22.0281262 2.9481028,21.880804 C2.53627036,21.7334819 2.19643,21.5844878 1.92857151,21.4338174 C1.66071301,21.283147 1.41294762,21.1224343 1.1852679,20.9516745 C0.957588185,20.7809148 0.801897772,20.655358 0.718191993,20.5750004 C0.634486214,20.4946429 0.575893047,20.4343756 0.542410736,20.3941968 C0.428570876,20.2535711 0.421874515,20.1162957 0.522321449,19.9823665 L1.5569197,18.6263396 C1.60379494,18.559375 1.6808031,18.5191968 1.7879465,18.5058039 C1.88839343,18.492411 1.96874978,18.5225446 2.02901794,18.5962057 L2.04910722,18.616295 C2.80580747,19.2792448 3.61941543,19.6977674 4.48995554,19.8718754 C4.73772464,19.9254471 4.98549003,19.9522325 5.23325914,19.9522325 C5.77567258,19.9522325 6.25278837,19.8082608 6.6646208,19.5203129 C7.07645323,19.232365 7.28236636,18.8238869 7.28236636,18.2948664 C7.28236636,18.1073655 7.23214365,17.9299119 7.13169671,17.7625003 C7.03124978,17.5950888 6.91908572,17.4544652 6.79520116,17.3406253 C6.67131661,17.2267854 6.47544803,17.1012286 6.20758953,16.9639512 C5.93973104,16.8266737 5.7187511,16.7195319 5.54464308,16.6425226 C5.37053506,16.5655133 5.10268058,16.4566974 4.74107162,16.3160717 C4.47990959,16.2089283 4.27399646,16.1252238 4.12332606,16.0649556 C3.97265565,16.0046874 3.76674253,15.9159606 3.5055805,15.7987726 C3.24441847,15.6815845 3.03515716,15.5777909 2.87779029,15.4873886 C2.72042343,15.3969864 2.53125121,15.2781259 2.31026795,15.1308038 C2.08928469,14.9834816 1.91015701,14.8411839 1.77287953,14.7039064 C1.63560206,14.566629 1.48995619,14.4025681 1.33593755,14.2117189 C1.18191892,14.0208697 1.0630585,13.8266752 0.979352717,13.6291296 C0.895646938,13.431584 0.825335139,13.2089299 0.768415209,12.9611608 C0.711495279,12.7133917 0.683035741,12.4522336 0.683035741,12.1776787 C0.683035741,11.2535669 1.01115747,10.4433071 1.66741078,9.74687499 C2.32366409,9.05044291 3.17745023,8.60178666 4.22879481,8.40089279 L4.22879481,6.59285701 C4.22879481,6.505803 4.26060253,6.43046893 4.32421892,6.36685253 C4.38783531,6.30323614 4.46316938,6.27142842 4.5502234,6.27142842 L5.90625023,6.27142842 C6.00000071,6.27142842 6.07700887,6.30156205 6.13727703,6.36183021 C6.19754519,6.42209837 6.22767882,6.49910653 6.22767882,6.59285701 L6.22767882,8.36071422 C6.60937717,8.40089299 6.97935116,8.47790116 7.3376119,8.59174102 C7.69587263,8.70558087 7.98716437,8.81774494 8.21149586,8.92823656 C8.43582735,9.03872819 8.64843684,9.16428498 8.84933071,9.30491069 C9.05022458,9.4455364 9.18080363,9.54263364 9.2410718,9.59620534 C9.30133996,9.64977704 9.35156267,9.69665157 9.39174144,9.73683035 C9.5055813,9.85736667 9.52232221,9.98459754 9.44196466,10.1185268 L8.62834856,11.5850447 C8.57477686,11.6854916 8.4977687,11.7390625 8.39732176,11.745759 C8.30357129,11.7658484 8.2131704,11.7424111 8.12611639,11.6754465 C8.10602701,11.6553571 8.05747838,11.6151789 7.98046907,11.5549108 C7.90345975,11.4946426 7.77288069,11.4059158 7.58872798,11.2887277 C7.40457527,11.1715396 7.20870668,11.0643978 7.00111635,10.9672991 C6.79352602,10.8702004 6.54408654,10.7831477 6.25279043,10.7061384 C5.96149432,10.6291291 5.67522485,10.590625 5.39397343,10.590625 C4.75780951,10.590625 4.23884146,10.7345968 3.83705372,11.0225447 C3.43526598,11.3104926 3.23437513,11.6821406 3.23437513,12.1375001 C3.23437513,12.3116081 3.26283467,12.4723208 3.3197546,12.619643 C3.37667453,12.7669651 3.47544586,12.9059146 3.61607157,13.0364957 C3.75669728,13.1670767 3.88895043,13.2775666 4.01283498,13.3679689 C4.13671953,13.4583711 4.32421767,13.5621647 4.575335,13.6793528 C4.82645234,13.7965409 5.02901729,13.8869418 5.18303592,13.9505582 C5.33705455,14.0141746 5.57142722,14.1062496 5.88616095,14.2267859 C6.24107345,14.3607151 6.51227611,14.4661828 6.69977705,14.5431921 C6.887278,14.6202015 7.14173975,14.7373878 7.46316994,14.8947547 C7.78460013,15.0521215 8.03738779,15.1944192 8.22154051,15.321652 C8.40569322,15.4488848 8.61328044,15.6162938 8.84430839,15.8238842 C9.07533634,16.0314745 9.25278993,16.244084 9.37667448,16.461719 C9.50055903,16.679354 9.60602673,16.9354899 9.69308074,17.2301342 C9.78013475,17.5247786 9.8236611,17.8395076 9.8236611,18.1743307 Z"
                          id=""></path>
                </g>
            </g>
        </g>
    </g>
</svg>