<?xml version="1.0" encoding="utf-8"?>
<!-- Generator: Adobe Illustrator 19.1.0, SVG Export Plug-In . SVG Version: 6.00 Build 0)  -->
<svg version="1.1" id="Layer_1" xmlns="http://www.w3.org/2000/svg" xmlns:xlink="http://www.w3.org/1999/xlink" x="0px" y="0px"
	 viewBox="0 0 150 150" enable-background="new 0 0 150 150" xml:space="preserve">
<g>
	<path fill="#E9E9E9" d="M138,150H12c-6.6,0-12-5.4-12-12V12C0,5.4,5.4,0,12,0h126c6.6,0,12,5.4,12,12v126
		C150,144.6,144.6,150,138,150z"/>
</g>
<g>
	<path fill="#D8D8D8" d="M50.795,66.63c0.583,0.661,1.264,1.24,2.063,1.635c1.519,5.554,3.965,10.508,7.502,14.178
		c3.694,3.847,8.648,6.229,14.601,6.215h0.037h0.003h0.037c5.953,0.013,10.907-2.368,14.601-6.215
		c3.537-3.67,5.983-8.624,7.502-14.178c0.799-0.395,1.479-0.974,2.062-1.635c1.18-1.351,2.031-3.088,2.632-4.904
		c0.594-1.82,0.926-3.712,0.929-5.415c0-0.417-0.021-0.823-0.065-1.217l-0.003-0.021l0.003,0.024
		c-0.17-1.567-0.727-2.914-1.631-3.911c-0.586-0.651-1.302-1.109-2.064-1.446c0.158-0.66,0.31-1.342,0.444-2.06
		c1.427-7.577-0.474-21.618-16.63-26.465c-15.341-4.601-23.92,5.984-23.92,5.984s-11.305,3.371-8.174,22.684
		c-0.658,0.326-1.281,0.731-1.796,1.302c-0.904,0.998-1.461,2.344-1.63,3.912v-0.003c-0.045,0.394-0.065,0.801-0.065,1.218
		c0.007,2.267,0.584,4.885,1.615,7.194C49.37,64.657,50.005,65.729,50.795,66.63z"/>
	<path fill="#D8D8D8" d="M119.461,124.061c0,0-1.106-18.906-3.414-23.521c-2.059-4.119-6.749-7.364-15.233-10.684
		c-0.009-0.023-0.02-0.047-0.03-0.069c-2.463-0.952-5.179-1.902-8.081-2.846c0.724,2.465,0.936,6.223-0.707,11.783
		c-3.534,11.961-16.2,26.682-16.977,27.578v0.043c0,0-0.012-0.015-0.019-0.021c-0.005,0.007-0.018,0.021-0.018,0.021v-0.043
		c-0.779-0.898-13.443-15.618-16.977-27.578c-1.643-5.56-1.431-9.318-0.707-11.784c-2.904,0.944-5.62,1.895-8.083,2.847
		c-0.009,0.023-0.02,0.047-0.029,0.069c-8.484,3.32-13.175,6.565-15.234,10.684c-2.309,4.615-3.414,23.521-3.414,23.521
		c1.626,0.711,3.552,1.352,5.703,1.934c-0.003,0.028-0.009,0.055-0.011,0.083c9.293,2.461,22.856,3.745,36.619,3.859
		c0.135,0.001,0.275,0.003,0.413,0.004c0.58,0.004,1.158,0.005,1.739,0.004c0.581,0.001,1.159,0,1.737-0.004
		c0.139-0.001,0.278-0.003,0.414-0.004c13.761-0.114,27.326-1.397,36.619-3.859c-0.004-0.028-0.008-0.055-0.012-0.083
		C115.91,125.413,117.836,124.771,119.461,124.061z"/>
</g>
</svg>
