<?xml version="1.0" encoding="UTF-8"?>
<svg width="15px" height="18px" viewBox="0 0 15 18" version="1.1" xmlns="http://www.w3.org/2000/svg"
     xmlns:xlink="http://www.w3.org/1999/xlink">
    <!-- Generator: Sketch 43.2 (39069) - http://www.bohemiancoding.com/sketch -->
    <title>Group 5</title>
    <desc>Created with Sketch.</desc>
    <defs></defs>
    <g id="Current" stroke="none" stroke-width="1" fill="none" fill-rule="evenodd">
        <g id="1-Page-Export---04052017---letter-size-FINAL" transform="translate(-475.000000, -220.000000)"
           fill="#4A4A4A">
            <g id="Candidates-and-Job-Postings" transform="translate(53.000000, 214.000000)">
                <g id="Job-Postings" transform="translate(422.000000, 0.000000)">
                    <g id="Group-5" transform="translate(0.000000, 6.000000)">
                        <path d="M13.6275997,0.079126217 L3.85143114,0.079126217 C3.15551599,0.079126217 2.5891425,0.643716417 2.5891425,1.33713592 L2.5891425,2.14044057 L1.44003716,2.14044057 C0.744122012,2.14044057 0.177748519,2.70507631 0.177748519,3.39845027 L0.177748519,16.4603024 C0.177748519,17.1536763 0.744122012,17.7183121 1.44003716,17.7183121 L11.2165256,17.7183121 C11.9124407,17.7183121 12.4788142,17.1536763 12.4788142,16.4603024 L12.4788142,15.65677 L13.6275997,15.65677 C14.3236976,15.65677 14.8898883,15.0921798 14.8898883,14.3989425 L14.8898883,1.33713592 C14.8898883,0.643716417 14.3236976,0.079126217 13.6275997,0.079126217 Z M11.4690747,16.4603024 C11.4690747,16.598877 11.3555715,16.7119954 11.2165256,16.7119954 L1.44003716,16.7119954 C1.30099121,16.7119954 1.18748805,16.598877 1.18748805,16.4603024 L1.18748805,3.39845027 C1.18748805,3.25987567 1.30099121,3.14693941 1.44003716,3.14693941 L2.5891425,3.14693941 L2.5891425,14.3989425 C2.5891425,15.0921798 3.15551599,15.65677 3.85143114,15.65677 L11.4690747,15.65677 L11.4690747,16.4603024 Z M13.8801488,14.3989425 C13.8801488,14.5375171 13.7669655,14.6504534 13.6275997,14.6504534 L3.85143114,14.6504534 C3.71206534,14.6504534 3.59888203,14.5375171 3.59888203,14.3989425 L3.59888203,1.33713592 C3.59888203,1.19837916 3.71206534,1.08539736 3.85143114,1.08539736 L13.6275997,1.08539736 C13.7669655,1.08539736 13.8801488,1.19856131 13.8801488,1.33713592 L13.8801488,14.3989425 Z"
                              id="Fill-1"></path>
                        <path d="M12.4420308,3.20440939 L5.03700006,3.20440939 C4.75817706,3.20440939 4.5320389,3.42996313 4.5320389,3.70747666 C4.5320389,3.98567326 4.75817706,4.21068054 5.03700006,4.21068054 L12.4420308,4.21068054 C12.7208538,4.21068054 12.9469919,3.98567326 12.9469919,3.70747666 C12.9469919,3.42996313 12.7208538,3.20440939 12.4420308,3.20440939 Z"
                              id="Fill-4"></path>
                        <path d="M12.4420308,5.59943217 L5.03700006,5.59943217 C4.75817706,5.59943217 4.5320389,5.82484929 4.5320389,6.10268159 C4.5320389,6.38074158 4.75817706,6.60593101 5.03700006,6.60593101 L12.4420308,6.60593101 C12.7208538,6.60593101 12.9469919,6.38074158 12.9469919,6.10268159 C12.9469919,5.82503145 12.7208538,5.59943217 12.4420308,5.59943217 Z"
                              id="Fill-5"></path>
                        <path d="M12.4420308,7.99450049 L5.03700006,7.99450049 C4.75817706,7.99450049 4.5320389,8.22005422 4.5320389,8.4977499 C4.5320389,8.77576436 4.75817706,9.00081717 5.03700006,9.00081717 L12.4420308,9.00081717 C12.7208538,9.00081717 12.9469919,8.77576436 12.9469919,8.4977499 C12.9469919,8.22005422 12.7208538,7.99450049 12.4420308,7.99450049 Z"
                              id="Fill-6"></path>
                        <path d="M12.4420308,10.3895688 L5.03700006,10.3895688 C4.75817706,10.3895688 4.5320389,10.6151225 4.5320389,10.8928182 C4.5320389,11.1710148 4.75817706,11.3960676 5.03700006,11.3960676 L12.4420308,11.3960676 C12.7208538,11.3960676 12.9469919,11.1710148 12.9469919,10.8928182 C12.9469919,10.6151225 12.7208538,10.3895688 12.4420308,10.3895688 Z"
                              id="Fill-7"></path>
                    </g>
                </g>
            </g>
        </g>
    </g>
</svg>