<?xml version="1.0" encoding="UTF-8" standalone="no"?>
<svg width="116px" height="116px" viewBox="0 0 116 116" version="1.1" xmlns="http://www.w3.org/2000/svg" xmlns:xlink="http://www.w3.org/1999/xlink">
    <!-- Generator: Sketch 42 (36781) - http://www.bohemiancoding.com/sketch -->
    <title>Lighbulb</title>
    <desc>Created with Sketch.</desc>
    <defs>
        <path d="M57.8535354,116 C89.8051607,116 115.707071,90.0325155 115.707071,58 C115.707071,25.9674845 89.8051607,0 57.8535354,0 C25.9019101,0 0,25.9674845 0,58 C0,90.0325155 25.9019101,116 57.8535354,116 Z" id="path-1"></path>
        <linearGradient x1="50%" y1="82.846227%" x2="6.7530479%" y2="6.20366308%" id="linearGradient-3">
            <stop stop-color="#1280A1" offset="0%"></stop>
            <stop stop-color="#024255" offset="100%"></stop>
        </linearGradient>
        <path d="M57.8535354,116 C89.8051607,116 115.707071,90.0325155 115.707071,58 C115.707071,25.9674845 89.8051607,0 57.8535354,0 C25.9019101,0 0,25.9674845 0,58 C0,90.0325155 25.9019101,116 57.8535354,116 Z" id="path-4"></path>
        <linearGradient x1="19.1456762%" y1="-5.26545236%" x2="109.822872%" y2="90.8307448%" id="linearGradient-6">
            <stop stop-color="#FFFFFF" offset="0%"></stop>
            <stop stop-color="#D0D0D0" offset="100%"></stop>
        </linearGradient>
        <linearGradient x1="19.1456762%" y1="14.4808664%" x2="109.822872%" y2="76.2419399%" id="linearGradient-7">
            <stop stop-color="#FFFFFF" offset="0%"></stop>
            <stop stop-color="#D0D0D0" offset="100%"></stop>
        </linearGradient>
        <path d="M23.1414141,56 C23.1414141,56 34.3113779,59.2696289 34.3113779,56.8238281 C34.3113779,54.3780273 36.6392736,50.2020508 36.6392736,50.2020508 C36.6392736,50.2020508 46.2828283,30.4270177 46.2828283,23.483871 C46.2828283,10.5140872 35.9220643,0 23.1414141,0 C10.360764,0 0,10.5140872 0,23.483871 C0,30.6906911 9.84509524,50.0552202 9.84509524,50.0552202 C9.84509524,50.0552202 11.1927903,52.2225293 11.5309111,55.398386 L12.1503919,55.398386 L23.1414141,56 Z" id="path-8"></path>
    </defs>
    <g id="Page-1" stroke="none" stroke-width="1" fill="none" fill-rule="evenodd">
        <g id="Lighbulb">
            <g id="Shape">
                <mask id="mask-2" fill="white">
                    <use xlink:href="#path-1"></use>
                </mask>
                <use id="Mask" fill="#1280A1" fill-rule="nonzero" xlink:href="#path-1"></use>
                <path d="M46.6576606,22.9210938 C46.6576606,22.9210938 51.8800251,19.7144821 61.2730035,21.1964286 C63.1224243,21.4882149 67.4007402,19.8809854 73.8113501,25.9625 C80.22196,32.0440146 157.335388,119.489844 157.335388,119.489844 L70.715282,119.489844 L46.310103,92.4631348 L47.7009179,73.8679687 L46.6576606,22.9210938 Z" fill="url(#linearGradient-3)" fill-rule="nonzero" mask="url(#mask-2)"></path>
            </g>
            <path d="M57.8535354,116 C89.8051607,116 115.707071,90.0325155 115.707071,58 C115.707071,25.9674845 89.8051607,0 57.8535354,0 C25.9019101,0 0,25.9674845 0,58 C0,90.0325155 25.9019101,116 57.8535354,116 Z" id="Oval" fill="#1280A1" fill-rule="nonzero"></path>
            <g id="Shape-Copy">
                <mask id="mask-5" fill="white">
                    <use xlink:href="#path-4"></use>
                </mask>
                <use id="Mask" fill="#1280A1" fill-rule="nonzero" xlink:href="#path-4"></use>
                <path d="M46.6576606,22.9210938 C46.6576606,22.9210938 51.8800251,19.7144821 61.2730035,21.1964286 C63.1224243,21.4882149 67.4007402,19.8809854 73.8113501,25.9625 C80.22196,32.0440146 157.335388,119.489844 157.335388,119.489844 L70.715282,119.489844 L46.310103,92.4631348 L47.7009179,73.8679687 L46.6576606,22.9210938 Z" id="Shape" fill="url(#linearGradient-3)" fill-rule="nonzero" mask="url(#mask-5)"></path>
            </g>
            <path d="M57.4545455,75.2 C57.4545455,75.2 68.6245093,78.4696289 68.6245093,76.0238281 C68.6245093,73.5780273 70.9524049,69.4020508 70.9524049,69.4020508 C70.9524049,69.4020508 80.5959596,49.6270177 80.5959596,42.683871 C80.5959596,29.7140872 70.2351956,19.2 57.4545455,19.2 C44.6738953,19.2 34.3131313,29.7140872 34.3131313,42.683871 C34.3131313,49.8906911 44.1582266,69.2552202 44.1582266,69.2552202 C44.1582266,69.2552202 45.5059216,71.4225293 45.8440424,74.598386 L46.4635232,74.598386 L57.4545455,75.2 Z" id="Oval-3" fill="#FFFFFF" fill-rule="nonzero"></path>
            <g id="Oval-2" transform="translate(34.313131, 19.200000)">
                <g id="Mask" fill-rule="nonzero" fill="url(#linearGradient-7)">
                    <path d="M23.1414141,56 C23.1414141,56 34.3113779,59.2696289 34.3113779,56.8238281 C34.3113779,54.3780273 36.6392736,50.2020508 36.6392736,50.2020508 C36.6392736,50.2020508 46.2828283,30.4270177 46.2828283,23.483871 C46.2828283,10.5140872 35.9220643,0 23.1414141,0 C10.360764,0 0,10.5140872 0,23.483871 C0,30.6906911 9.84509524,50.0552202 9.84509524,50.0552202 C9.84509524,50.0552202 11.1927903,52.2225293 11.5309111,55.398386 L12.1503919,55.398386 L23.1414141,56 Z" id="path-3"></path>
                </g>
                <g id="Clipped">
                    <mask id="mask-9" fill="white">
                        <use xlink:href="#path-8"></use>
                    </mask>
                    <g id="path-3"></g>
                    <path d="M3.98989899,64.8 C11.5083728,64.8 18.1146869,75.7105469 23.0981643,64.8 C27.8196142,54.4631214 40.3217478,38.308996 40.3217478,24.5878906 C40.3217478,10.8667853 25.8182311,-3.58671875 3.98989899,-0.240625 C-17.8384332,3.10546875 -29.5252525,3.95043781 -29.5252525,25.6 C-29.5252525,47.2495622 -16.5401574,64.8 3.98989899,64.8 Z" id="Shape" fill="#FFFFFF" fill-rule="nonzero" mask="url(#mask-9)"></path>
                </g>
            </g>
            <path d="M45.6865104,73.6 L69.1150125,73.6 L68.6325943,75.4882812 L68.6325943,76.9944824 L68.6325943,91.7633789 L61.4609554,95.2199989 C61.4609554,95.2199989 60.6665797,97.0842773 57.4734429,97.0842773 C54.2803061,97.0842773 53.4455055,95.2199989 53.4455055,95.2199989 L46.268189,92.4442383 L46.3036889,84.7321289 L46.3036889,77.7573382 L46.3036889,74.5869978 L45.8217959,74.25625 L45.6865104,73.6 Z" id="Rectangle" fill="#182642" fill-rule="nonzero"></path>
            <polygon id="Rectangle-2-Copy-4" fill="#D8D8D8" fill-rule="nonzero" points="45.4848485 88.7320638 69.4490332 84.8 69.4490332 87.9837804 45.4848485 91.9138509"></polygon>
            <polygon id="Rectangle-2-Copy-5" fill="#D8D8D8" fill-rule="nonzero" points="45.4848485 83.1320638 69.4490332 79.2 69.4490332 82.3837804 45.4848485 86.3138509"></polygon>
            <polygon id="Rectangle-2-Copy-6" fill="#D8D8D8" fill-rule="nonzero" points="45.4848485 77.5320638 69.4490332 73.6 69.4490332 76.7837804 45.4848485 80.7138509"></polygon>
            <polygon id="Path-2" fill="#D8D8D8" fill-rule="nonzero" points="68.632643 91.7738403 52.9633764 91.8441406 68.632643 90.988855"></polygon>
            <polygon id="Path-2-Copy" fill="#D8D8D8" fill-rule="nonzero" points="45.4848479 73.5999994 57.4616735 73.5999994 45.4848479 75.03789"></polygon>
        </g>
    </g>
</svg>
