<?xml version="1.0" encoding="utf-8"?>
<!-- Generator: Adobe Illustrator 19.1.0, SVG Export Plug-In . SVG Version: 6.00 Build 0)  -->
<svg version="1.1" id="Layer_1" xmlns="http://www.w3.org/2000/svg" xmlns:xlink="http://www.w3.org/1999/xlink" x="0px" y="0px"
	 viewBox="0 0 171.875 20" enable-background="new 0 0 171.875 20" xml:space="preserve">
<g>
	<g>
		<path fill="#15213F" d="M10.257,14.46c-0.144,0-0.216-0.072-0.216-0.216v-0.919c0-0.144,0.072-0.216,0.216-0.216h1.261
			l-1.17-3.115H5.323l-1.17,3.115h1.26c0.144,0,0.216,0.072,0.216,0.216v0.919c0,0.144-0.072,0.216-0.216,0.216H1.362
			c-0.144,0-0.216-0.072-0.216-0.216v-0.919c0-0.144,0.072-0.216,0.216-0.216h1.207L6.44,2.882H5.468
			c-0.145,0-0.234-0.072-0.234-0.216V1.748c0-0.144,0.09-0.216,0.234-0.216h2.448c0.594,0,0.847,0.234,1.044,0.774l4.141,10.803
			h1.225c0.144,0,0.216,0.072,0.216,0.216v0.919c0,0.144-0.09,0.216-0.216,0.216H10.257z M7.862,3.405H7.808L5.792,8.752h4.069
			L7.862,3.405z"/>
		<path fill="#15213F" d="M16.554,18.511c-0.144,0-0.234-0.071-0.234-0.216v-0.774c0-0.144,0.09-0.216,0.234-0.216h1.008V6.808
			H16.59c-0.144,0-0.234-0.072-0.234-0.216V5.817c0-0.144,0.09-0.216,0.234-0.216h2.107c0.144,0,0.234,0.072,0.234,0.216
			L18.913,7.24h0.018c0.396-0.846,1.369-1.765,2.989-1.765c2.395,0,4.051,1.765,4.051,4.538c0,2.665-1.566,4.573-4.033,4.573
			c-1.603,0-2.557-0.9-2.935-1.765h-0.054c0,0,0.054,0.576,0.054,0.828v3.655h1.17c0.145,0,0.234,0.072,0.234,0.216v0.774
			c0,0.145-0.09,0.216-0.234,0.216H16.554z M24.494,10.049c0-2.053-1.206-3.313-2.772-3.313c-1.369,0-2.755,1.062-2.755,3.439
			c0,2.034,1.368,3.15,2.755,3.15C23.306,13.325,24.494,12.029,24.494,10.049z"/>
		<path fill="#15213F" d="M27.588,18.511c-0.144,0-0.234-0.071-0.234-0.216v-0.774c0-0.144,0.09-0.216,0.234-0.216h1.008V6.808
			h-0.973c-0.144,0-0.234-0.072-0.234-0.216V5.817c0-0.144,0.09-0.216,0.234-0.216h2.107c0.144,0,0.234,0.072,0.234,0.216
			L29.947,7.24h0.018c0.396-0.846,1.369-1.765,2.989-1.765c2.395,0,4.051,1.765,4.051,4.538c0,2.665-1.566,4.573-4.033,4.573
			c-1.603,0-2.557-0.9-2.935-1.765h-0.054c0,0,0.054,0.576,0.054,0.828v3.655h1.17c0.145,0,0.234,0.072,0.234,0.216v0.774
			c0,0.145-0.09,0.216-0.234,0.216H27.588z M35.528,10.049c0-2.053-1.206-3.313-2.772-3.313c-1.369,0-2.755,1.062-2.755,3.439
			c0,2.034,1.368,3.15,2.755,3.15C34.34,13.325,35.528,12.029,35.528,10.049z"/>
		<path fill="#15213F" d="M38.622,14.46c-0.144,0-0.234-0.072-0.234-0.216V13.47c0-0.145,0.09-0.216,0.234-0.216h0.99V2.738h-0.99
			c-0.144,0-0.234-0.072-0.234-0.216V1.748c0-0.144,0.09-0.216,0.234-0.216h1.999c0.36,0,0.486,0.144,0.486,0.45v11.271h0.955
			c0.144,0,0.234,0.071,0.234,0.216v0.774c0,0.144-0.09,0.216-0.234,0.216H38.622z"/>
		<path fill="#15213F" d="M43.896,14.46c-0.144,0-0.234-0.072-0.234-0.216V13.47c0-0.145,0.09-0.216,0.234-0.216h0.99V6.808h-0.99
			c-0.144,0-0.234-0.072-0.234-0.216V5.817c0-0.144,0.09-0.216,0.234-0.216h2.269c0.144,0,0.216,0.072,0.216,0.216v7.437h0.955
			c0.144,0,0.234,0.071,0.234,0.216v0.774c0,0.144-0.09,0.216-0.234,0.216H43.896z M45.606,4.647c-0.558,0-1.008-0.432-1.008-0.99
			s0.45-1.026,1.008-1.026s1.008,0.468,1.008,1.026S46.165,4.647,45.606,4.647z"/>
		<path fill="#15213F" d="M57.146,12.371c0.126,0.108,0.126,0.216,0.054,0.324c-0.216,0.396-1.458,1.891-3.835,1.891
			c-2.431,0-4.43-1.71-4.43-4.591c0-2.917,2.107-4.52,4.285-4.52c1.639,0,2.485,0.792,2.863,1.333h0.018l-0.018-0.99
			c0-0.144,0.09-0.234,0.234-0.234h0.684c0.144,0,0.216,0.09,0.216,0.234v3.061c0,0.144-0.09,0.216-0.216,0.216h-0.828
			c-0.126,0-0.216-0.072-0.216-0.216V8.572c-0.018-0.774-0.991-1.836-2.557-1.836c-1.35,0-2.953,1.116-2.953,3.277
			c0,2.143,1.512,3.312,3.007,3.312c1.548,0,2.611-0.99,2.863-1.404c0.072-0.126,0.198-0.144,0.306-0.054L57.146,12.371z"/>
		<path fill="#15213F" d="M65.912,14.46c-0.522,0-0.774-0.198-0.774-0.756v-0.919h-0.036c-0.324,0.45-1.332,1.819-3.511,1.819
			c-1.675,0-2.953-0.937-2.953-2.503c0-2.053,1.981-2.863,4.826-2.863h1.512V9.022c0-1.71-0.954-2.251-2.34-2.251
			c-1.909,0-2.647,0.829-2.719,0.829c-0.09,0.036-0.198,0.036-0.27-0.054l-0.504-0.63c-0.09-0.108-0.072-0.198,0.036-0.288
			c0.09-0.108,1.08-1.152,3.511-1.152c2.323,0,3.781,0.973,3.781,3.601v4.178h1.008c0.144,0,0.216,0.071,0.216,0.216v0.774
			c0,0.144-0.072,0.216-0.216,0.216H65.912z M64.975,10.319h-1.422c-1.873,0-3.367,0.234-3.367,1.584
			c0,0.811,0.721,1.422,1.855,1.422c1.512,0,2.521-1.008,2.935-1.548V10.319z"/>
		<path fill="#15213F" d="M76.946,14.46c-0.522,0-0.774-0.198-0.774-0.756V8.968c0-1.35-0.648-2.197-1.98-2.197
			c-1.819,0-2.377,1.513-2.395,1.531v4.952h0.955c0.144,0,0.234,0.071,0.234,0.216v0.774c0,0.144-0.09,0.216-0.234,0.216h-3.439
			c-0.144,0-0.234-0.072-0.234-0.216V13.47c0-0.145,0.09-0.216,0.234-0.216h0.99V6.808h-0.99c-0.144,0-0.234-0.072-0.234-0.216
			V5.817c0-0.144,0.09-0.216,0.234-0.216h2.106c0.144,0,0.234,0.072,0.234,0.216l-0.036,1.225h0.054
			c0.216-0.36,0.955-1.567,2.899-1.567c1.945,0,3.061,1.243,3.079,3.133v4.646h1.008c0.144,0,0.234,0.071,0.234,0.216v0.774
			c0,0.144-0.09,0.216-0.234,0.216H76.946z"/>
		<path fill="#15213F" d="M86.269,13.542c0.108,0.107,0.072,0.233-0.036,0.342c-0.162,0.145-0.756,0.702-1.818,0.702
			c-1.8,0-2.898-1.026-2.898-3.061V6.808h-1.009c-0.144,0-0.252-0.09-0.252-0.234V5.835c0-0.144,0.108-0.234,0.252-0.234h1.009
			V3.783c0-0.144,0.108-0.252,0.252-0.252h1.008c0.144,0,0.234,0.108,0.234,0.252v1.819h2.287c0.144,0,0.252,0.09,0.252,0.234v0.738
			c0,0.144-0.108,0.234-0.252,0.234H83.01v4.682c0,1.206,0.576,1.818,1.548,1.818c0.541,0,0.882-0.271,0.955-0.342
			c0.126-0.108,0.234-0.09,0.324,0.018L86.269,13.542z"/>
		<path fill="#15213F" d="M96.833,14.46c-0.144,0-0.233-0.09-0.233-0.234v-0.882c0-0.145,0.09-0.234,0.233-0.234h1.368V2.882h-3.402
			v1.909c0,0.144-0.108,0.252-0.252,0.252h-1.009c-0.144,0-0.252-0.108-0.252-0.252V1.766c0-0.144,0.108-0.234,0.252-0.234h10.857
			c0.144,0,0.252,0.09,0.252,0.234v3.025c0,0.144-0.108,0.252-0.252,0.252h-1.026c-0.145,0-0.234-0.108-0.234-0.252V2.882h-3.367
			v10.227h1.261c0.145,0,0.252,0.09,0.252,0.234v0.882c0,0.145-0.107,0.234-0.252,0.234H96.833z"/>
		<path fill="#15213F" d="M106.426,14.46c-0.144,0-0.233-0.072-0.233-0.216V13.47c0-0.145,0.09-0.216,0.233-0.216h0.99V6.808h-0.99
			c-0.144,0-0.233-0.072-0.233-0.216V5.817c0-0.144,0.09-0.216,0.233-0.216h2.107c0.144,0,0.233,0.072,0.233,0.216v2.25h0.054
			c0,0,0.595-2.502,3.854-2.502c0.145,0,0.234,0.09,0.234,0.234v0.955c0,0.144-0.09,0.234-0.234,0.234h-0.378
			c-2.179,0-3.385,1.692-3.385,3.241v3.025h0.954c0.144,0,0.234,0.071,0.234,0.216v0.774c0,0.144-0.091,0.216-0.234,0.216H106.426z"
			/>
		<path fill="#15213F" d="M121.044,14.46c-0.521,0-0.773-0.198-0.773-0.756v-0.919h-0.036c-0.324,0.45-1.333,1.819-3.512,1.819
			c-1.674,0-2.952-0.937-2.952-2.503c0-2.053,1.98-2.863,4.825-2.863h1.513V9.022c0-1.71-0.955-2.251-2.341-2.251
			c-1.909,0-2.647,0.829-2.719,0.829c-0.09,0.036-0.198,0.036-0.271-0.054l-0.504-0.63c-0.09-0.108-0.072-0.198,0.036-0.288
			c0.09-0.108,1.08-1.152,3.511-1.152c2.323,0,3.781,0.973,3.781,3.601v4.178h1.008c0.145,0,0.217,0.071,0.217,0.216v0.774
			c0,0.144-0.072,0.216-0.217,0.216H121.044z M120.108,10.319h-1.423c-1.872,0-3.367,0.234-3.367,1.584
			c0,0.811,0.721,1.422,1.854,1.422c1.513,0,2.521-1.008,2.936-1.548V10.319z"/>
		<path fill="#15213F" d="M132.42,12.371c0.126,0.108,0.126,0.216,0.054,0.324c-0.216,0.396-1.458,1.891-3.835,1.891
			c-2.431,0-4.429-1.71-4.429-4.591c0-2.917,2.106-4.52,4.285-4.52c1.639,0,2.484,0.792,2.862,1.333h0.019l-0.019-0.99
			c0-0.144,0.09-0.234,0.234-0.234h0.685c0.144,0,0.216,0.09,0.216,0.234v3.061c0,0.144-0.09,0.216-0.216,0.216h-0.829
			c-0.126,0-0.216-0.072-0.216-0.216V8.572c-0.018-0.774-0.99-1.836-2.557-1.836c-1.351,0-2.953,1.116-2.953,3.277
			c0,2.143,1.513,3.312,3.007,3.312c1.549,0,2.611-0.99,2.863-1.404c0.072-0.126,0.198-0.144,0.306-0.054L132.42,12.371z"/>
		<path fill="#15213F" d="M142.519,14.46c-0.378,0-0.702-0.198-0.954-0.559l-3.188-4.321l-1.746,1.621v2.053h0.954
			c0.144,0,0.234,0.071,0.234,0.216v0.774c0,0.144-0.091,0.216-0.234,0.216h-3.439c-0.144,0-0.233-0.072-0.233-0.216V13.47
			c0-0.145,0.09-0.216,0.233-0.216h0.99V2.738h-0.99c-0.144,0-0.233-0.072-0.233-0.216V1.748c0-0.144,0.09-0.216,0.233-0.216h2.269
			c0.145,0,0.217,0.072,0.217,0.216v8.066l3.276-3.007h-0.647c-0.145,0-0.217-0.072-0.217-0.216V5.817
			c0-0.144,0.072-0.216,0.217-0.216h3.457c0.144,0,0.216,0.072,0.216,0.216v0.774c0,0.144-0.072,0.216-0.216,0.216h-1.171
			l-2.196,1.927l3.367,4.52h0.773c0.145,0,0.217,0.071,0.217,0.216v0.774c0,0.144-0.091,0.216-0.217,0.216H142.519z"/>
		<path fill="#15213F" d="M145.197,14.46c-0.144,0-0.233-0.072-0.233-0.216V13.47c0-0.145,0.09-0.216,0.233-0.216h0.99V6.808h-0.99
			c-0.144,0-0.233-0.072-0.233-0.216V5.817c0-0.144,0.09-0.216,0.233-0.216h2.269c0.145,0,0.217,0.072,0.217,0.216v7.437h0.954
			c0.144,0,0.234,0.071,0.234,0.216v0.774c0,0.144-0.091,0.216-0.234,0.216H145.197z M146.908,4.647
			c-0.559,0-1.009-0.432-1.009-0.99s0.45-1.026,1.009-1.026c0.558,0,1.008,0.468,1.008,1.026S147.466,4.647,146.908,4.647z"/>
		<path fill="#15213F" d="M158.106,14.46c-0.522,0-0.774-0.198-0.774-0.756V8.968c0-1.35-0.648-2.197-1.98-2.197
			c-1.818,0-2.377,1.513-2.395,1.531v4.952h0.954c0.144,0,0.234,0.071,0.234,0.216v0.774c0,0.144-0.091,0.216-0.234,0.216h-3.439
			c-0.144,0-0.233-0.072-0.233-0.216V13.47c0-0.145,0.09-0.216,0.233-0.216h0.99V6.808h-0.99c-0.144,0-0.233-0.072-0.233-0.216
			V5.817c0-0.144,0.09-0.216,0.233-0.216h2.106c0.145,0,0.234,0.072,0.234,0.216l-0.036,1.225h0.055
			c0.216-0.36,0.954-1.567,2.898-1.567s3.061,1.243,3.079,3.133v4.646h1.008c0.145,0,0.234,0.071,0.234,0.216v0.774
			c0,0.144-0.09,0.216-0.234,0.216H158.106z"/>
		<path fill="#15213F" d="M162.063,17.485c-0.09-0.091-0.144-0.217-0.054-0.324l0.468-0.667c0.072-0.107,0.198-0.09,0.307-0.018
			c0.18,0.126,0.954,0.9,2.755,0.9c1.603,0,2.862-0.702,2.862-2.575v-2.053c-0.378,0.883-1.332,1.837-2.935,1.837
			c-2.467,0-4.051-1.908-4.051-4.573c0-2.773,1.674-4.538,4.051-4.538c1.62,0,2.593,0.918,2.989,1.765h0.036l-0.019-1.422
			c0-0.144,0.072-0.216,0.216-0.216h2.125c0.145,0,0.216,0.072,0.216,0.216v0.774c0,0.144-0.071,0.216-0.216,0.216h-0.973v7.994
			c0,2.665-1.836,3.871-4.285,3.871C163.198,18.673,162.208,17.593,162.063,17.485z M168.42,10.031c0-2.107-1.242-3.295-2.737-3.295
			c-1.566,0-2.79,1.26-2.79,3.313c0,1.98,1.206,3.276,2.79,3.276C167.195,13.325,168.42,12.083,168.42,10.031z"/>
	</g>
</g>
</svg>
