<?xml version="1.0" encoding="utf-8"?>
<!-- Generator: Adobe Illustrator 19.1.0, SVG Export Plug-In . SVG Version: 6.00 Build 0)  -->
<svg version="1.1" id="Layer_1" xmlns="http://www.w3.org/2000/svg" xmlns:xlink="http://www.w3.org/1999/xlink" x="0px" y="0px"
	 viewBox="0 0 203.583 20" enable-background="new 0 0 203.583 20" xml:space="preserve">
<g>
	<g>
		<path fill="#15213F" d="M1.263,14.46c-0.144,0-0.234-0.072-0.234-0.216v-0.919c0-0.144,0.072-0.216,0.234-0.216h1.369V2.882H1.263
			c-0.144,0-0.234-0.072-0.234-0.216V1.748c0-0.144,0.072-0.216,0.234-0.216h9.561c0.144,0,0.234,0.072,0.234,0.216v2.899
			c0,0.144-0.09,0.234-0.234,0.234H9.852c-0.144,0-0.216-0.09-0.216-0.234V2.882H4.198v4.465h4.555c0.144,0,0.234,0.072,0.234,0.216
			v0.918c0,0.144-0.09,0.216-0.234,0.216H4.198v4.411h5.419v-1.765c0-0.144,0.09-0.216,0.234-0.216h0.972
			c0.144,0,0.234,0.072,0.234,0.216v2.899c0,0.144-0.09,0.216-0.234,0.216H1.263z"/>
		<path fill="#15213F" d="M26.053,14.46c-0.54,0-0.792-0.198-0.792-0.756V8.968c0-1.35-0.63-2.197-1.962-2.197
			S21.336,7.6,21.065,8.014c0.072,0.216,0.108,0.486,0.108,0.72v4.52h1.008c0.144,0,0.216,0.071,0.216,0.216v0.774
			c0,0.144-0.09,0.216-0.216,0.216h-3.439c-0.144,0-0.234-0.072-0.234-0.216V13.47c0-0.145,0.09-0.216,0.234-0.216h0.954V8.968
			c0-1.35-0.648-2.197-1.98-2.197c-1.837,0-2.395,1.566-2.395,1.549v4.934h0.882c0.144,0,0.216,0.071,0.216,0.216v0.774
			c0,0.144-0.09,0.216-0.216,0.216h-3.367c-0.144,0-0.234-0.072-0.234-0.216V13.47c0-0.145,0.09-0.216,0.234-0.216h0.99V6.808h-0.99
			c-0.144,0-0.234-0.072-0.234-0.216V5.817c0-0.144,0.09-0.216,0.234-0.216h1.764c0.396,0,0.576,0.108,0.576,0.54l-0.036,0.9h0.054
			c0.216-0.36,0.972-1.567,2.917-1.567c1.296,0,2.233,0.558,2.683,1.495c0.27-0.396,1.044-1.495,2.899-1.495
			c1.945,0,3.043,1.243,3.043,3.133l0.018,4.646h1.008c0.144,0,0.234,0.071,0.234,0.216v0.774c0,0.144-0.09,0.216-0.234,0.216
			H26.053z"/>
		<path fill="#15213F" d="M29.595,18.511c-0.144,0-0.234-0.071-0.234-0.216v-0.774c0-0.144,0.09-0.216,0.234-0.216h1.008V6.808
			h-0.973c-0.144,0-0.234-0.072-0.234-0.216V5.817c0-0.144,0.09-0.216,0.234-0.216h2.107c0.144,0,0.234,0.072,0.234,0.216
			L31.954,7.24h0.018c0.396-0.846,1.369-1.765,2.989-1.765c2.395,0,4.051,1.765,4.051,4.538c0,2.665-1.566,4.573-4.033,4.573
			c-1.603,0-2.557-0.9-2.935-1.765H31.99c0,0,0.054,0.576,0.054,0.828v3.655h1.17c0.144,0,0.234,0.072,0.234,0.216v0.774
			c0,0.145-0.09,0.216-0.234,0.216H29.595z M37.536,10.049c0-2.053-1.207-3.313-2.773-3.313c-1.369,0-2.755,1.062-2.755,3.439
			c0,2.034,1.368,3.15,2.755,3.15C36.347,13.325,37.536,12.029,37.536,10.049z"/>
		<path fill="#15213F" d="M40.629,14.46c-0.144,0-0.234-0.072-0.234-0.216V13.47c0-0.145,0.09-0.216,0.234-0.216h0.99V2.738h-0.99
			c-0.144,0-0.234-0.072-0.234-0.216V1.748c0-0.144,0.09-0.216,0.234-0.216h1.999c0.36,0,0.486,0.144,0.486,0.45v11.271h0.955
			c0.144,0,0.234,0.071,0.234,0.216v0.774c0,0.144-0.09,0.216-0.234,0.216H40.629z"/>
		<path fill="#15213F" d="M45.669,9.995c0-2.845,1.999-4.52,4.501-4.52s4.465,1.71,4.465,4.52c0,2.809-1.909,4.591-4.483,4.591
			C47.595,14.586,45.669,12.821,45.669,9.995z M53.141,10.013c0-2.053-1.422-3.277-2.971-3.277c-1.566,0-2.989,1.224-2.989,3.277
			c0,2.034,1.368,3.312,2.971,3.312C51.773,13.325,53.141,12.047,53.141,10.013z"/>
		<path fill="#15213F" d="M60.268,14.262h-0.234c-0.234,0-0.342-0.126-0.468-0.45l-2.755-7.004h-0.99
			c-0.126,0-0.216-0.072-0.216-0.216V5.817c0-0.144,0.072-0.216,0.216-0.216h3.259c0.144,0,0.234,0.072,0.234,0.216v0.774
			c0,0.144-0.09,0.216-0.234,0.216h-0.738l2.323,6.104H60.7l2.161-6.104H62.05c-0.144,0-0.216-0.072-0.216-0.216V5.817
			c0-0.144,0.072-0.216,0.216-0.216H65.4c0.144,0,0.216,0.072,0.216,0.216v0.774c0,0.144-0.072,0.216-0.216,0.216h-1.008
			l-3.205,8.805c-0.702,1.908-1.35,3.061-3.061,3.061c-1.062,0-1.657-0.558-1.819-0.702c-0.108-0.107-0.144-0.216-0.054-0.324
			l0.45-0.576c0.108-0.09,0.198-0.107,0.324-0.018c0.09,0.072,0.396,0.342,0.955,0.342c0.918,0,1.332-0.521,1.8-1.8L60.268,14.262z"
			/>
		<path fill="#15213F" d="M80.089,14.46c-0.54,0-0.792-0.198-0.792-0.756V8.968c0-1.35-0.63-2.197-1.962-2.197
			S75.371,7.6,75.101,8.014c0.072,0.216,0.108,0.486,0.108,0.72v4.52h1.008c0.144,0,0.216,0.071,0.216,0.216v0.774
			c0,0.144-0.09,0.216-0.216,0.216h-3.439c-0.144,0-0.234-0.072-0.234-0.216V13.47c0-0.145,0.09-0.216,0.234-0.216h0.954V8.968
			c0-1.35-0.648-2.197-1.98-2.197c-1.836,0-2.395,1.566-2.395,1.549v4.934h0.882c0.144,0,0.216,0.071,0.216,0.216v0.774
			c0,0.144-0.09,0.216-0.216,0.216h-3.367c-0.144,0-0.234-0.072-0.234-0.216V13.47c0-0.145,0.09-0.216,0.234-0.216h0.99V6.808h-0.99
			c-0.144,0-0.234-0.072-0.234-0.216V5.817c0-0.144,0.09-0.216,0.234-0.216h1.764c0.396,0,0.576,0.108,0.576,0.54l-0.036,0.9h0.054
			c0.216-0.36,0.973-1.567,2.917-1.567c1.296,0,2.232,0.558,2.683,1.495c0.271-0.396,1.044-1.495,2.899-1.495
			c1.945,0,3.043,1.243,3.043,3.133l0.018,4.646h1.008c0.144,0,0.234,0.071,0.234,0.216v0.774c0,0.144-0.09,0.216-0.234,0.216
			H80.089z"/>
		<path fill="#15213F" d="M84.927,10.211c0.09,2.106,1.566,3.114,2.989,3.114c1.548,0,2.611-0.972,2.863-1.386
			c0.09-0.126,0.198-0.145,0.324-0.055l0.486,0.486c0.126,0.108,0.144,0.216,0.072,0.324c-0.234,0.396-1.458,1.891-3.835,1.891
			c-2.431,0-4.429-1.71-4.429-4.591c0-2.917,2.089-4.52,4.25-4.52c2.575,0,4.069,1.71,4.015,4.501c0,0.145-0.09,0.234-0.252,0.234
			H84.927z M90.167,9.112c-0.072-1.458-0.936-2.449-2.484-2.449c-1.243,0-2.503,0.72-2.719,2.449H90.167z"/>
		<path fill="#15213F" d="M100.949,14.46c-0.522,0-0.774-0.198-0.774-0.756V8.968c0-1.35-0.648-2.197-1.98-2.197
			c-1.819,0-2.377,1.513-2.395,1.531v4.952h0.955c0.144,0,0.234,0.071,0.234,0.216v0.774c0,0.144-0.09,0.216-0.234,0.216h-3.439
			c-0.144,0-0.234-0.072-0.234-0.216V13.47c0-0.145,0.09-0.216,0.234-0.216h0.99V6.808h-0.99c-0.144,0-0.234-0.072-0.234-0.216
			V5.817c0-0.144,0.09-0.216,0.234-0.216h2.106c0.144,0,0.234,0.072,0.234,0.216l-0.036,1.225h0.054
			c0.216-0.36,0.955-1.567,2.899-1.567c1.945,0,3.061,1.243,3.079,3.133v4.646h1.008c0.145,0,0.234,0.071,0.234,0.216v0.774
			c0,0.144-0.09,0.216-0.234,0.216H100.949z"/>
		<path fill="#15213F" d="M110.272,13.542c0.107,0.107,0.072,0.233-0.036,0.342c-0.162,0.145-0.757,0.702-1.818,0.702
			c-1.801,0-2.899-1.026-2.899-3.061V6.808h-1.008c-0.145,0-0.252-0.09-0.252-0.234V5.835c0-0.144,0.107-0.234,0.252-0.234h1.008
			V3.783c0-0.144,0.108-0.252,0.252-0.252h1.009c0.144,0,0.234,0.108,0.234,0.252v1.819h2.286c0.145,0,0.252,0.09,0.252,0.234v0.738
			c0,0.144-0.107,0.234-0.252,0.234h-2.286v4.682c0,1.206,0.576,1.818,1.548,1.818c0.54,0,0.883-0.271,0.954-0.342
			c0.126-0.108,0.234-0.09,0.324,0.018L110.272,13.542z"/>
		<path fill="#15213F" d="M117.524,14.46c-0.162,0-0.234-0.072-0.234-0.216V10.03c0-0.144,0.09-0.234,0.234-0.234h1.134
			c0.126,0,0.216,0.09,0.216,0.234v0.379c0,0.27,0.955,2.719,3.854,2.719c1.837,0,2.953-0.793,2.953-2.179
			c0-2.971-7.994-1.405-7.994-6.032c0-1.962,1.584-3.493,4.213-3.493c1.854,0,2.935,0.63,3.565,1.423l-0.036-1.117
			c0-0.144,0.09-0.216,0.233-0.216h1.009c0.144,0,0.216,0.072,0.216,0.216v3.925c0,0.144-0.072,0.216-0.216,0.216h-1.135
			c-0.144,0-0.216-0.072-0.216-0.216V5.151c0-0.738-0.846-2.251-3.259-2.251c-1.62,0-2.646,0.864-2.646,2.017
			c0,3.133,8.138,1.603,8.138,6.032c0,1.944-1.332,3.637-4.519,3.637c-2.503,0-3.836-1.351-4.304-2.106l0.018,1.765
			c0,0.144-0.071,0.216-0.216,0.216H117.524z"/>
		<path fill="#15213F" d="M137.308,12.371c0.126,0.108,0.126,0.216,0.054,0.324c-0.216,0.396-1.458,1.891-3.835,1.891
			c-2.431,0-4.429-1.71-4.429-4.591c0-2.917,2.106-4.52,4.285-4.52c1.639,0,2.484,0.792,2.862,1.333h0.019l-0.019-0.99
			c0-0.144,0.091-0.234,0.234-0.234h0.685c0.144,0,0.216,0.09,0.216,0.234v3.061c0,0.144-0.09,0.216-0.216,0.216h-0.828
			c-0.127,0-0.217-0.072-0.217-0.216V8.572c-0.018-0.774-0.99-1.836-2.557-1.836c-1.351,0-2.953,1.116-2.953,3.277
			c0,2.143,1.513,3.312,3.007,3.312c1.549,0,2.611-0.99,2.863-1.404c0.072-0.126,0.198-0.144,0.306-0.054L137.308,12.371z"/>
		<path fill="#15213F" d="M139.033,14.46c-0.144,0-0.233-0.072-0.233-0.216V13.47c0-0.145,0.09-0.216,0.233-0.216h0.99V6.808h-0.99
			c-0.144,0-0.233-0.072-0.233-0.216V5.817c0-0.144,0.09-0.216,0.233-0.216h2.106c0.145,0,0.234,0.072,0.234,0.216v2.25h0.055
			c0,0,0.594-2.502,3.853-2.502c0.145,0,0.234,0.09,0.234,0.234v0.955c0,0.144-0.09,0.234-0.234,0.234h-0.378
			c-2.179,0-3.385,1.692-3.385,3.241v3.025h0.954c0.144,0,0.234,0.071,0.234,0.216v0.774c0,0.144-0.091,0.216-0.234,0.216H139.033z"
			/>
		<path fill="#15213F" d="M147.908,10.211c0.09,2.106,1.566,3.114,2.988,3.114c1.549,0,2.611-0.972,2.863-1.386
			c0.09-0.126,0.198-0.145,0.324-0.055l0.486,0.486c0.126,0.108,0.144,0.216,0.071,0.324c-0.233,0.396-1.458,1.891-3.835,1.891
			c-2.431,0-4.429-1.71-4.429-4.591c0-2.917,2.088-4.52,4.249-4.52c2.574,0,4.069,1.71,4.015,4.501c0,0.145-0.09,0.234-0.252,0.234
			H147.908z M153.147,9.112c-0.072-1.458-0.937-2.449-2.484-2.449c-1.242,0-2.503,0.72-2.719,2.449H153.147z"/>
		<path fill="#15213F" d="M157.591,10.211c0.09,2.106,1.566,3.114,2.988,3.114c1.549,0,2.611-0.972,2.863-1.386
			c0.09-0.126,0.198-0.145,0.324-0.055l0.486,0.486c0.126,0.108,0.144,0.216,0.071,0.324c-0.233,0.396-1.458,1.891-3.835,1.891
			c-2.431,0-4.429-1.71-4.429-4.591c0-2.917,2.088-4.52,4.249-4.52c2.574,0,4.069,1.71,4.015,4.501c0,0.145-0.09,0.234-0.252,0.234
			H157.591z M162.831,9.112c-0.072-1.458-0.937-2.449-2.484-2.449c-1.242,0-2.503,0.72-2.719,2.449H162.831z"/>
		<path fill="#15213F" d="M173.614,14.46c-0.522,0-0.774-0.198-0.774-0.756V8.968c0-1.35-0.648-2.197-1.98-2.197
			c-1.818,0-2.377,1.513-2.395,1.531v4.952h0.954c0.144,0,0.234,0.071,0.234,0.216v0.774c0,0.144-0.091,0.216-0.234,0.216h-3.439
			c-0.144,0-0.233-0.072-0.233-0.216V13.47c0-0.145,0.09-0.216,0.233-0.216h0.99V6.808h-0.99c-0.144,0-0.233-0.072-0.233-0.216
			V5.817c0-0.144,0.09-0.216,0.233-0.216h2.107c0.144,0,0.233,0.072,0.233,0.216l-0.036,1.225h0.055
			c0.216-0.36,0.954-1.567,2.898-1.567s3.061,1.243,3.079,3.133v4.646h1.008c0.145,0,0.234,0.071,0.234,0.216v0.774
			c0,0.144-0.09,0.216-0.234,0.216H173.614z"/>
		<path fill="#15213F" d="M177.157,14.46c-0.144,0-0.233-0.072-0.233-0.216V13.47c0-0.145,0.09-0.216,0.233-0.216h0.99V6.808h-0.99
			c-0.144,0-0.233-0.072-0.233-0.216V5.817c0-0.144,0.09-0.216,0.233-0.216h2.269c0.145,0,0.217,0.072,0.217,0.216v7.437h0.954
			c0.144,0,0.234,0.071,0.234,0.216v0.774c0,0.144-0.091,0.216-0.234,0.216H177.157z M178.868,4.647
			c-0.559,0-1.009-0.432-1.009-0.99s0.45-1.026,1.009-1.026c0.558,0,1.008,0.468,1.008,1.026S179.425,4.647,178.868,4.647z"/>
		<path fill="#15213F" d="M190.065,14.46c-0.522,0-0.774-0.198-0.774-0.756V8.968c0-1.35-0.648-2.197-1.98-2.197
			c-1.818,0-2.377,1.513-2.395,1.531v4.952h0.954c0.144,0,0.234,0.071,0.234,0.216v0.774c0,0.144-0.091,0.216-0.234,0.216h-3.439
			c-0.144,0-0.233-0.072-0.233-0.216V13.47c0-0.145,0.09-0.216,0.233-0.216h0.99V6.808h-0.99c-0.144,0-0.233-0.072-0.233-0.216
			V5.817c0-0.144,0.09-0.216,0.233-0.216h2.107c0.144,0,0.233,0.072,0.233,0.216l-0.036,1.225h0.055
			c0.216-0.36,0.954-1.567,2.898-1.567s3.061,1.243,3.079,3.133v4.646h1.008c0.145,0,0.234,0.071,0.234,0.216v0.774
			c0,0.144-0.09,0.216-0.234,0.216H190.065z"/>
		<path fill="#15213F" d="M194.022,17.485c-0.09-0.091-0.144-0.217-0.054-0.324l0.468-0.667c0.072-0.107,0.198-0.09,0.307-0.018
			c0.18,0.126,0.954,0.9,2.755,0.9c1.603,0,2.862-0.702,2.862-2.575v-2.053c-0.378,0.883-1.332,1.837-2.935,1.837
			c-2.467,0-4.051-1.908-4.051-4.573c0-2.773,1.674-4.538,4.051-4.538c1.62,0,2.593,0.918,2.989,1.765h0.036l-0.019-1.422
			c0-0.144,0.072-0.216,0.216-0.216h2.125c0.144,0,0.216,0.072,0.216,0.216v0.774c0,0.144-0.072,0.216-0.216,0.216H201.8v7.994
			c0,2.665-1.836,3.871-4.285,3.871C195.157,18.673,194.167,17.593,194.022,17.485z M200.379,10.03c0-2.106-1.242-3.294-2.737-3.294
			c-1.566,0-2.791,1.26-2.791,3.313c0,1.98,1.207,3.276,2.791,3.276C199.154,13.325,200.379,12.083,200.379,10.03z"/>
	</g>
</g>
</svg>
