<?xml version="1.0" encoding="utf-8"?>
<!-- Generator: Adobe Illustrator 19.1.0, SVG Export Plug-In . SVG Version: 6.00 Build 0)  -->
<svg version="1.1" id="Layer_1" xmlns="http://www.w3.org/2000/svg" xmlns:xlink="http://www.w3.org/1999/xlink" x="0px" y="0px"
	 viewBox="0 0 160.333 20" enable-background="new 0 0 160.333 20" xml:space="preserve">
<g>
	<g>
		<path fill="#15213F" d="M1.43,14.46c-0.162,0-0.234-0.072-0.234-0.216V10.03c0-0.144,0.09-0.234,0.234-0.234h1.134
			c0.126,0,0.216,0.09,0.216,0.234v0.379c0,0.27,0.954,2.719,3.853,2.719c1.837,0,2.953-0.793,2.953-2.179
			c0-2.971-7.995-1.405-7.995-6.032c0-1.962,1.584-3.493,4.213-3.493c1.854,0,2.935,0.63,3.565,1.423L9.334,1.73
			c0-0.144,0.09-0.216,0.234-0.216h1.008c0.144,0,0.216,0.072,0.216,0.216v3.925c0,0.144-0.072,0.216-0.216,0.216H9.442
			c-0.144,0-0.216-0.072-0.216-0.216V5.151C9.226,4.413,8.38,2.9,5.967,2.9C4.347,2.9,3.32,3.765,3.32,4.917
			c0,3.133,8.139,1.603,8.139,6.032c0,1.944-1.333,3.637-4.52,3.637c-2.502,0-3.835-1.351-4.303-2.106l0.018,1.765
			c0,0.144-0.072,0.216-0.216,0.216H1.43z"/>
		<path fill="#15213F" d="M13.003,9.995c0-2.845,1.999-4.52,4.501-4.52s4.465,1.71,4.465,4.52c0,2.809-1.909,4.591-4.483,4.591
			C14.93,14.586,13.003,12.821,13.003,9.995z M20.475,10.013c0-2.053-1.422-3.277-2.971-3.277c-1.566,0-2.989,1.224-2.989,3.277
			c0,2.034,1.368,3.312,2.971,3.312C19.107,13.325,20.475,12.047,20.475,10.013z"/>
		<path fill="#15213F" d="M31.132,14.46c-0.522,0-0.774-0.198-0.774-0.756v-0.667h-0.054c-0.198,0.415-0.864,1.549-2.809,1.549
			c-1.944,0-3.115-1.242-3.133-3.133V6.808h-1.026c-0.144,0-0.216-0.072-0.216-0.216V5.817c0-0.144,0.09-0.216,0.216-0.216h1.729
			c0.522,0,0.774,0.198,0.774,0.756v4.735c0,1.351,0.648,2.197,1.98,2.197c1.801,0,2.395-1.495,2.395-1.531V6.808h-0.973
			c-0.144,0-0.216-0.072-0.216-0.216V5.817c0-0.144,0.09-0.216,0.216-0.216h2.233c0.144,0,0.216,0.072,0.216,0.216v7.437h1.008
			c0.144,0,0.234,0.071,0.234,0.216v0.774c0,0.144-0.09,0.216-0.234,0.216H31.132z"/>
		<path fill="#15213F" d="M34.531,14.46c-0.144,0-0.234-0.072-0.234-0.216V13.47c0-0.145,0.09-0.216,0.234-0.216h0.99V6.808h-0.99
			c-0.144,0-0.234-0.072-0.234-0.216V5.817c0-0.144,0.09-0.216,0.234-0.216h2.106c0.144,0,0.234,0.072,0.234,0.216v2.25h0.054
			c0,0,0.594-2.502,3.853-2.502c0.144,0,0.234,0.09,0.234,0.234v0.955c0,0.144-0.09,0.234-0.234,0.234h-0.378
			c-2.179,0-3.385,1.692-3.385,3.241v3.025h0.955c0.144,0,0.234,0.071,0.234,0.216v0.774c0,0.144-0.09,0.216-0.234,0.216H34.531z"/>
		<path fill="#15213F" d="M50.085,12.371c0.126,0.108,0.126,0.216,0.054,0.324c-0.216,0.396-1.458,1.891-3.835,1.891
			c-2.431,0-4.429-1.71-4.429-4.591c0-2.917,2.107-4.52,4.286-4.52c1.638,0,2.484,0.792,2.863,1.333h0.018l-0.018-0.99
			c0-0.144,0.09-0.234,0.234-0.234h0.684c0.144,0,0.216,0.09,0.216,0.234v3.061c0,0.144-0.09,0.216-0.216,0.216h-0.828
			c-0.126,0-0.216-0.072-0.216-0.216V8.572c-0.018-0.774-0.99-1.836-2.557-1.836c-1.35,0-2.953,1.116-2.953,3.277
			c0,2.143,1.512,3.312,3.007,3.312c1.548,0,2.611-0.99,2.863-1.404c0.072-0.126,0.198-0.144,0.306-0.054L50.085,12.371z"/>
		<path fill="#15213F" d="M51.811,14.46c-0.144,0-0.234-0.072-0.234-0.216V13.47c0-0.145,0.09-0.216,0.234-0.216h0.99V6.808h-0.99
			c-0.144,0-0.234-0.072-0.234-0.216V5.817c0-0.144,0.09-0.216,0.234-0.216h2.269c0.144,0,0.216,0.072,0.216,0.216v7.437h0.955
			c0.144,0,0.234,0.071,0.234,0.216v0.774c0,0.144-0.09,0.216-0.234,0.216H51.811z M53.521,4.647c-0.558,0-1.008-0.432-1.008-0.99
			s0.45-1.026,1.008-1.026s1.008,0.468,1.008,1.026S54.079,4.647,53.521,4.647z"/>
		<path fill="#15213F" d="M64.719,14.46c-0.522,0-0.774-0.198-0.774-0.756V8.968c0-1.35-0.648-2.197-1.98-2.197
			c-1.819,0-2.377,1.513-2.395,1.531v4.952h0.955c0.144,0,0.234,0.071,0.234,0.216v0.774c0,0.144-0.09,0.216-0.234,0.216h-3.439
			c-0.144,0-0.234-0.072-0.234-0.216V13.47c0-0.145,0.09-0.216,0.234-0.216h0.99V6.808h-0.99c-0.144,0-0.234-0.072-0.234-0.216
			V5.817c0-0.144,0.09-0.216,0.234-0.216h2.106c0.144,0,0.234,0.072,0.234,0.216l-0.036,1.225h0.054
			c0.216-0.36,0.955-1.567,2.899-1.567c1.945,0,3.061,1.243,3.079,3.133v4.646h1.008c0.144,0,0.234,0.071,0.234,0.216v0.774
			c0,0.144-0.09,0.216-0.234,0.216H64.719z"/>
		<path fill="#15213F" d="M68.677,17.485c-0.09-0.091-0.144-0.217-0.054-0.324l0.468-0.667c0.072-0.107,0.198-0.09,0.306-0.018
			c0.18,0.126,0.954,0.9,2.755,0.9c1.603,0,2.863-0.702,2.863-2.575v-2.053c-0.378,0.883-1.333,1.837-2.935,1.837
			c-2.467,0-4.051-1.908-4.051-4.573c0-2.773,1.675-4.538,4.051-4.538c1.621,0,2.593,0.918,2.989,1.765h0.036l-0.018-1.422
			c0-0.144,0.072-0.216,0.216-0.216h2.125c0.144,0,0.216,0.072,0.216,0.216v0.774c0,0.144-0.072,0.216-0.216,0.216h-0.972v7.994
			c0,2.665-1.836,3.871-4.286,3.871C69.811,18.673,68.821,17.593,68.677,17.485z M75.033,10.03c0-2.106-1.243-3.294-2.737-3.294
			c-1.567,0-2.791,1.26-2.791,3.313c0,1.98,1.207,3.276,2.791,3.276C73.808,13.325,75.033,12.083,75.033,10.03z"/>
		<path fill="#15213F" d="M85.075,14.46c-0.145,0-0.234-0.072-0.234-0.216v-0.919c0-0.144,0.072-0.216,0.234-0.216h1.368V2.882
			h-1.368c-0.145,0-0.234-0.072-0.234-0.216V1.748c0-0.144,0.072-0.216,0.234-0.216h5.545c2.485,0,4.34,1.53,4.34,4.087
			c0,2.521-1.675,3.961-4.537,3.961h-2.413v3.529h1.765c0.144,0,0.216,0.072,0.216,0.216v0.919c0,0.144-0.09,0.216-0.216,0.216
			H85.075z M90.35,8.302c1.891,0,3.024-0.792,3.024-2.665c0-1.962-1.422-2.755-3.007-2.755h-2.358v5.42H90.35z"/>
		<path fill="#15213F" d="M96.738,14.46c-0.144,0-0.233-0.072-0.233-0.216V13.47c0-0.145,0.09-0.216,0.233-0.216h0.99V2.738h-0.99
			c-0.144,0-0.233-0.072-0.233-0.216V1.748c0-0.144,0.09-0.216,0.233-0.216h1.999c0.36,0,0.486,0.144,0.486,0.45v11.271h0.954
			c0.144,0,0.234,0.071,0.234,0.216v0.774c0,0.144-0.091,0.216-0.234,0.216H96.738z"/>
		<path fill="#15213F" d="M109.051,14.46c-0.521,0-0.773-0.198-0.773-0.756v-0.919h-0.036c-0.324,0.45-1.333,1.819-3.512,1.819
			c-1.674,0-2.952-0.937-2.952-2.503c0-2.053,1.98-2.863,4.825-2.863h1.513V9.022c0-1.71-0.955-2.251-2.341-2.251
			c-1.909,0-2.647,0.829-2.719,0.829c-0.09,0.036-0.198,0.036-0.271-0.054l-0.504-0.63c-0.09-0.108-0.072-0.198,0.036-0.288
			c0.09-0.108,1.08-1.152,3.511-1.152c2.323,0,3.781,0.973,3.781,3.601v4.178h1.008c0.145,0,0.217,0.071,0.217,0.216v0.774
			c0,0.144-0.072,0.216-0.217,0.216H109.051z M108.116,10.318h-1.423c-1.872,0-3.367,0.234-3.367,1.585
			c0,0.811,0.721,1.422,1.854,1.422c1.513,0,2.521-1.008,2.936-1.548V10.318z"/>
		<path fill="#15213F" d="M118.232,13.542c0.107,0.107,0.072,0.233-0.036,0.342c-0.162,0.145-0.757,0.702-1.818,0.702
			c-1.801,0-2.899-1.026-2.899-3.061V6.808h-1.008c-0.145,0-0.252-0.09-0.252-0.234V5.835c0-0.144,0.107-0.234,0.252-0.234h1.008
			V3.783c0-0.144,0.108-0.252,0.252-0.252h1.009c0.144,0,0.234,0.108,0.234,0.252v1.819h2.286c0.145,0,0.252,0.09,0.252,0.234v0.738
			c0,0.144-0.107,0.234-0.252,0.234h-2.286v4.682c0,1.206,0.576,1.818,1.548,1.818c0.54,0,0.883-0.271,0.954-0.342
			c0.126-0.108,0.234-0.09,0.324,0.018L118.232,13.542z"/>
		<path fill="#15213F" d="M119.705,14.46c-0.144,0-0.233-0.072-0.233-0.216V13.47c0-0.145,0.09-0.216,0.233-0.216h0.99V6.808h-1.026
			c-0.144,0-0.233-0.072-0.233-0.216V5.817c0-0.144,0.09-0.216,0.233-0.216h1.026V4.485c0-2.035,1.099-3.061,2.899-3.061
			c1.062,0,1.656,0.576,1.818,0.721c0.126,0.108,0.144,0.198,0.054,0.306l-0.432,0.559c-0.091,0.09-0.198,0.126-0.307,0.036
			c-0.09-0.072-0.45-0.342-0.99-0.342c-0.972,0-1.548,0.612-1.548,1.8v1.099h2.305c0.144,0,0.233,0.072,0.233,0.216v0.774
			c0,0.144-0.09,0.216-0.233,0.216h-2.305v6.446h1.584c0.145,0,0.216,0.071,0.216,0.216v0.774c0,0.144-0.071,0.216-0.216,0.216
			H119.705z"/>
		<path fill="#15213F" d="M126.402,9.995c0-2.845,1.998-4.52,4.501-4.52s4.466,1.71,4.466,4.52c0,2.809-1.909,4.591-4.483,4.591
			C128.327,14.586,126.402,12.821,126.402,9.995z M133.873,10.013c0-2.053-1.422-3.277-2.971-3.277
			c-1.566,0-2.989,1.224-2.989,3.277c0,2.034,1.369,3.312,2.972,3.312C132.505,13.325,133.873,12.047,133.873,10.013z"/>
		<path fill="#15213F" d="M136.985,14.46c-0.144,0-0.233-0.072-0.233-0.216V13.47c0-0.145,0.09-0.216,0.233-0.216h0.99V6.808h-0.99
			c-0.144,0-0.233-0.072-0.233-0.216V5.817c0-0.144,0.09-0.216,0.233-0.216h2.106c0.145,0,0.234,0.072,0.234,0.216v2.25h0.055
			c0,0,0.594-2.502,3.853-2.502c0.145,0,0.234,0.09,0.234,0.234v0.955c0,0.144-0.09,0.234-0.234,0.234h-0.378
			c-2.179,0-3.385,1.692-3.385,3.241v3.025h0.954c0.144,0,0.234,0.071,0.234,0.216v0.774c0,0.144-0.091,0.216-0.234,0.216H136.985z"
			/>
		<path fill="#15213F" d="M157.779,14.46c-0.54,0-0.792-0.198-0.792-0.756V8.968c0-1.35-0.63-2.197-1.962-2.197
			c-1.333,0-1.963,0.829-2.233,1.243c0.072,0.216,0.108,0.486,0.108,0.72v4.52h1.008c0.145,0,0.217,0.071,0.217,0.216v0.774
			c0,0.144-0.091,0.216-0.217,0.216h-3.438c-0.145,0-0.234-0.072-0.234-0.216V13.47c0-0.145,0.09-0.216,0.234-0.216h0.954V8.968
			c0-1.35-0.648-2.197-1.98-2.197c-1.837,0-2.395,1.566-2.395,1.549v4.934h0.882c0.145,0,0.216,0.071,0.216,0.216v0.774
			c0,0.144-0.09,0.216-0.216,0.216h-3.367c-0.144,0-0.233-0.072-0.233-0.216V13.47c0-0.145,0.09-0.216,0.233-0.216h0.99V6.808h-0.99
			c-0.144,0-0.233-0.072-0.233-0.216V5.817c0-0.144,0.09-0.216,0.233-0.216h1.765c0.396,0,0.576,0.108,0.576,0.54l-0.036,0.9h0.055
			c0.216-0.36,0.972-1.567,2.917-1.567c1.296,0,2.232,0.558,2.683,1.495c0.27-0.396,1.044-1.495,2.898-1.495
			c1.944,0,3.043,1.243,3.043,3.133l0.019,4.646h1.008c0.145,0,0.234,0.071,0.234,0.216v0.774c0,0.144-0.09,0.216-0.234,0.216
			H157.779z"/>
	</g>
</g>
</svg>
