<?xml version="1.0" encoding="UTF-8"?>
<svg width="190px" height="20px" viewBox="0 0 571 59" version="1.1" xmlns="http://www.w3.org/2000/svg" xmlns:xlink="http://www.w3.org/1999/xlink">
    <!-- Generator: Sketch 42 (36781) - http://www.bohemiancoding.com/sketch -->
    <title>CareerBuilder</title>
    <desc>Corporate Logo</desc>
    <defs></defs>
    <g id="Page-1" stroke="none" stroke-width="1" fill="none" fill-rule="evenodd">
        <g id="CareerBuilderForEmployers" fill-rule="nonzero">
            <polygon id="Shape" fill="#172642" points="207.046197 42.8465152 207.046197 37.4381818 227.399409 37.4381818 227.399409 28.9663182 207.046197 28.9663182 207.046197 16.4922879 230.552333 16.4922879 230.552333 8.01774242 197.581167 8.01774242 197.581167 51.3210606 230.552333 51.3210606 230.552333 42.8465152"></polygon>
            <polygon id="Shape" fill="#172642" points="243.546636 42.8465152 243.546636 37.4381818 263.90253 37.4381818 263.90253 28.9663182 243.546636 28.9663182 243.546636 16.4922879 267.054561 16.4922879 267.054561 8.01774242 234.084288 8.01774242 234.084288 51.3210606 267.054561 51.3210606 267.054561 42.8465152"></polygon>
            <rect id="Rectangle-path" fill="#172642" x="396.477318" y="8.08925758" width="3.20477273" height="43.1513485"></rect>
            <polygon id="Shape" fill="#172642" points="409.19003 51.2406061 409.19003 8.08925758 412.394803 8.08925758 412.394803 48.2825606 437.734409 48.2825606 437.734409 51.2406061"></polygon>
            <polygon id="Shape" fill="#172642" points="485.096212 51.2406061 485.096212 8.08925758 515.796773 8.08925758 515.796773 11.0455152 488.303667 11.0455152 488.303667 27.9347121 513.025561 27.9347121 513.025561 30.8936515 488.303667 30.8936515 488.303667 48.2825606 516.10697 48.2825606 516.10697 51.2406061"></polygon>
            <path d="M476.687818,29.7878485 C476.687818,40.0824545 469.10453,48.2852424 457.081939,48.2852424 L445.924682,48.2852424 L445.924682,11.047303 L457.081939,11.047303 C469.102742,11.047303 476.687818,19.4288788 476.687818,29.662697 L476.687818,29.7878485 Z M457.081939,8.08925758 L442.719909,8.08925758 L442.719909,51.2406061 L457.081939,51.2406061 C470.643,51.2406061 480.012379,41.8122273 480.012379,29.662697 L480.012379,29.5384394 C480.014167,17.3969545 470.643,8.08925758 457.081939,8.08925758 L457.081939,8.08925758 Z" id="Shape" fill="#172642"></path>
            <path d="M343.248591,39.4763636 C343.248591,44.8972121 338.562561,48.2897121 331.166106,48.2897121 L315.506076,48.2897121 L315.506076,30.9025909 L330.117515,30.9025909 C338.625136,30.9025909 343.247697,34.0483636 343.247697,39.3521061 L343.247697,39.4763636 L343.248591,39.4763636 Z M315.506076,11.0571364 L330.055833,11.0571364 C336.960621,11.0571364 340.841212,14.2645909 340.841212,19.0069394 L340.841212,19.1320909 C340.841212,24.8649242 336.217758,27.9427576 329.74653,27.9427576 L315.505182,27.9427576 L315.505182,11.0571364 L315.506076,11.0571364 Z M336.773788,29.0575 C340.288758,27.6370303 344.110348,24.6780909 344.110348,18.8263636 L344.110348,18.7012121 C344.110348,12.2290909 338.499091,8.09551515 330.117515,8.09551515 L312.302197,8.09551515 L312.302197,51.2486515 L331.041848,51.2486515 C340.347758,51.2486515 346.516833,46.6868788 346.516833,39.4763636 L346.516833,39.3521061 C346.516833,33.3707576 341.954167,30.4136061 336.773788,29.0575 L336.773788,29.0575 Z" id="Shape" fill="#172642"></path>
            <path d="M369.229152,51.9280455 C358.870182,51.9280455 351.535409,45.3915606 351.535409,33.3126515 L351.535409,8.09730303 L354.742864,8.09730303 L354.742864,33.0006667 C354.742864,43.1719091 360.228076,49.0307879 369.350727,49.0307879 C378.104182,49.0307879 383.716333,43.7288333 383.716333,33.3126515 L383.716333,8.09730303 L386.920212,8.09730303 L386.920212,32.9398788 C386.920212,45.3307727 379.708803,51.9280455 369.229152,51.9280455" id="Shape" fill="#172642"></path>
            <path d="M98.3029394,51.3210606 C85.5625152,51.3210606 76.094803,41.6709848 76.094803,29.4731818 L76.094803,29.3489242 C76.094803,17.272697 85.3738939,7.38125758 98.6730303,7.38125758 C106.839167,7.38125758 111.726333,10.0496667 115.747273,13.9356212 L109.688152,20.7948182 C106.345712,17.8224697 102.942485,15.9997273 98.6122424,15.9997273 C91.3141212,15.9997273 86.0559697,21.948 86.0559697,29.2318182 L86.0559697,29.3498182 C86.0559697,36.6336364 91.1916515,42.7034848 98.6122424,42.7034848 C103.561985,42.7034848 106.590652,40.7618485 109.993879,37.7251364 L116.058364,43.7359848 C111.603864,48.4050303 106.654121,51.3210606 98.3029394,51.3210606" id="Shape" fill="#172642"></path>
            <path d="M184.275773,22.9259697 C184.275773,26.5750303 181.617197,29.0485606 176.978545,29.0485606 L167.326682,29.0485606 L167.326682,16.6138636 L176.790818,16.6138636 C181.42947,16.6138636 184.275773,18.718197 184.275773,22.8026061 L184.275773,22.9259697 L184.275773,22.9259697 Z M184.647652,35.8541212 C190.156106,33.8141515 193.92853,29.4213333 193.92853,22.4316212 L193.92853,22.3073636 C193.92853,13.3965758 187.802364,8.01416667 177.596258,8.01416667 L157.800864,8.01416667 L157.800864,51.315697 L167.326682,51.315697 L167.326682,37.4632121 L174.810742,37.4632121 L184.090727,51.3174848 L195.227424,51.3174848 L184.647652,35.8541212 Z" id="Shape" fill="#172642"></path>
            <path d="M297.06053,22.9259697 C297.06053,26.5750303 294.401061,29.0485606 289.760621,29.0485606 L280.110545,29.0485606 L280.110545,16.6138636 L289.579152,16.6138636 C294.216909,16.6138636 297.06053,18.718197 297.06053,22.8026061 L297.06053,22.9259697 L297.06053,22.9259697 Z M297.435985,35.8541212 C302.937288,33.8141515 306.714182,29.4213333 306.714182,22.4316212 L306.714182,22.3073636 C306.714182,13.3965758 300.587121,8.01416667 290.383697,8.01416667 L270.584727,8.01416667 L270.584727,51.315697 L280.110545,51.315697 L280.110545,37.4632121 L287.597288,37.4632121 L296.879061,51.3174848 L308.011288,51.3174848 L297.435985,35.8541212 Z" id="Shape" fill="#172642"></path>
            <path d="M128.931985,29.0762727 L128.937348,22.553197 C128.965061,18.3838636 131.844439,16.1168333 136.458061,16.0363788 C141.075258,16.1168333 143.951061,18.3838636 143.978773,22.553197 L143.984136,29.0762727 L128.931985,29.0762727 Z M144.223712,8.58360606 C142.119379,7.81392424 139.714682,7.38125758 137.016773,7.38125758 L135.899348,7.38125758 C133.202333,7.38125758 130.794955,7.8130303 128.690621,8.58360606 C122.686924,10.7809091 119.230955,15.8441818 119.230955,22.4244697 L119.230955,22.5487273 L119.230955,51.3183788 L129.012439,51.3183788 L129.012439,37.5892576 L143.89653,37.5892576 L143.89653,51.3174848 L153.684273,51.3174848 L153.684273,22.5487273 L153.684273,22.4244697 C153.686061,15.8441818 150.227409,10.7809091 144.223712,8.58360606 L144.223712,8.58360606 Z" id="Shape" fill="#172642"></path>
            <path d="M524.241818,27.9347121 L524.241818,10.9820455 L538.787106,10.9820455 C545.693682,10.9820455 549.391015,13.5664242 549.575167,18.9765455 C549.810273,25.8509394 545.694576,27.9347121 538.481379,27.9347121 L524.241818,27.9347121 Z M541.353606,30.8936515 C547.244667,30.5021061 553.06153,27.921303 552.906879,18.9631364 C552.77547,11.1635152 547.236621,8.02310606 538.852364,8.02310606 L521.03347,8.02310606 L521.03347,51.1744545 L524.241818,51.1744545 L524.241818,51.1217121 L524.241818,48.2146212 L524.241818,30.8936515 C524.241818,30.8936515 535.569818,30.8909697 536.494152,30.8936515 L537.4015,30.8856061 L552.105909,51.2406061 L556.174227,51.2406061 L541.353606,30.8936515 Z" id="Shape" fill="#172642"></path>
            <g id="Group">
                <path d="M29.5008939,58.6540455 C13.4341212,58.6540455 0.408530303,45.6257727 0.408530303,29.5554242 C0.408530303,13.4877576 13.4341212,0.463060606 29.5008939,0.463060606 L60.3087273,0.463060606 L60.3087273,58.6540455" id="Shape" fill="#182642"></path>
                <path d="M36.3842273,26.8369545 C35.2980909,24.1015 32.6252121,22.1607576 29.5008939,22.1607576 C25.4200606,22.1607576 22.1044394,25.4754848 22.1044394,29.5563182 C22.1044394,33.6434091 25.4200606,36.9554545 29.5008939,36.9554545 C32.6037576,36.9554545 35.2614394,35.0442121 36.3627727,32.3355758 L55.1355,32.3328939 C53.7525758,45.268197 42.8018182,55.3411061 29.5008939,55.3411061 L29.5008939,57.3846515 C14.3682879,57.3846515 1.67524242,44.6942879 1.67524242,29.5554242 C1.67524242,14.4228182 14.3691818,1.73245455 29.5008939,1.73245455 L29.5008939,3.77242424 C42.8268485,3.77242424 53.7865455,13.880197 55.1408636,26.8396364 L36.3842273,26.8369545 Z" id="Shape" fill="#FFFFFF"></path>
                <path d="M29.0628636,38.6378485 C26.8736061,38.5368333 24.9006818,37.6589848 23.3845606,36.2769545 L11.9662727,47.6827273 C16.4118333,51.9843636 22.4128485,54.6661818 29.0628636,54.7716667 L29.0628636,38.6378485 L29.0628636,38.6378485 Z" id="Shape" fill="#079B75"></path>
                <path d="M22.7856212,35.6780152 C21.3124091,34.0617727 20.414,31.9172121 20.414,29.5554242 C20.414,27.2124091 21.3052576,25.0741061 22.7632727,23.4578636 L11.3485606,12.0520909 C6.97183333,16.5852576 4.28286364,22.7579091 4.28286364,29.5554242 C4.28286364,36.3681364 6.97987879,42.5416818 11.3619697,47.0811061 L22.7856212,35.6780152 Z" id="Shape" fill="#2B7BB9"></path>
                <path d="M29.0628636,4.34007576 C22.4110606,4.45360606 16.3957424,7.13721212 11.9555455,11.4451061 L23.3622121,22.8598182 C24.8792273,21.4661667 26.8673485,20.5838485 29.0601818,20.4801515 L29.0628636,4.34007576 Z" id="Shape" fill="#FDB817"></path>
                <polyline id="Shape" fill="#FFFFFF" points="29.0628636 46.5331212 29.0628636 48.6812576 29.0709091 48.6812576 29.0709091 46.536697 29.0628636 46.5331212"></polyline>
                <polyline id="Shape" fill="#FFFFFF" points="29.0628636 44.559303 29.0628636 45.4907879 29.0709091 45.4934697 29.0709091 44.5619848 29.0628636 44.559303"></polyline>
                <polyline id="Shape" fill="#FFFFFF" points="29.0628636 4.54836364 29.0628636 6.17265152 29.0709091 6.17443939 29.0709091 4.54836364 29.0628636 4.54836364"></polyline>
                <polyline id="Shape" fill="#FFFFFF" points="29.0628636 6.88065152 29.0628636 9.43731818 29.0709091 9.44089394 29.0709091 6.88422727 29.0628636 6.88065152"></polyline>
                <path d="M11.3485606,12.0520909 C11.2412879,12.1656212 11.1331212,12.2773636 11.0258485,12.3908939 C11.1554697,12.2997121 11.2859848,12.2067424 11.4200758,12.1119848 L11.3485606,12.0520909 Z" id="Shape" fill="#5595C7"></path>
                <path d="M12.0494091,47.597803 L11.9662727,47.6827273 C12.139697,47.8543636 12.3140152,48.0170606 12.492803,48.1770758 C12.3417273,47.9902424 12.1933333,47.7944697 12.0494091,47.597803" id="Shape" fill="#34B08F"></path>
                <path d="M27.302697,4.43215152 C25.1518788,4.61898485 23.0725758,5.07578788 21.1085909,5.76412121 C22.0901364,5.62109091 23.0752576,5.55225758 24.056803,5.55225758 C25.7499242,5.55225758 27.4323182,5.76054545 29.0628636,6.17265152 L29.0628636,4.54836364 C28.4773333,4.4795303 27.8935909,4.44377273 27.302697,4.43215152" id="Shape" fill="#F79D27"></path>
                <path d="M24.2945909,6.27277273 C21.6306515,6.27277273 18.9971061,6.83237879 16.5718485,7.90510606 C14.8957121,8.90542424 13.348303,10.0943636 11.9555455,11.446 L12.1459545,11.6390909 C15.4034697,9.59822727 19.1785758,8.51387879 23.0117879,8.51387879 C25.0365606,8.51387879 27.0747424,8.81781818 29.0628636,9.43731818 L29.0628636,6.88154545 C27.4877424,6.47033333 25.885803,6.27277273 24.2945909,6.27277273" id="Shape" fill="#F79D27"></path>
                <path d="M22.8607121,9.22277273 C19.1097424,9.22277273 15.620697,10.2999697 12.6760606,12.1674091 L14.3280606,13.8176212 C17.0912273,12.4195 20.2155455,11.6301515 23.5249091,11.6301515 C25.4468788,11.6301515 27.3009091,11.9072727 29.0628636,12.4025152 L29.0628636,10.2570606 C27.1158636,9.58660606 25.030303,9.22277273 22.8607121,9.22277273" id="Shape" fill="#F79D27"></path>
                <path d="M23.0779394,12.4856515 C20.3031515,12.4856515 17.5015455,13.0926364 14.8653182,14.3575606 L16.6245909,16.1177273 C19.4708939,14.7303333 22.5040303,14.0661364 25.5049848,14.0661364 C26.6983939,14.0661364 27.8909091,14.1734091 29.0601818,14.3781212 L29.0628636,13.4484242 C27.1373182,12.8137273 25.118803,12.4856515 23.0779394,12.4856515" id="Shape" fill="#F79D27"></path>
                <path d="M24.9668333,15.1907121 C22.3243485,15.1907121 19.7077879,15.7395909 17.2968333,16.7899697 L18.3668788,17.8600152 C20.8797424,16.4234545 23.6697273,15.5348788 26.5437424,15.2532879 C26.0172121,15.2130606 25.4915758,15.1907121 24.9668333,15.1907121" id="Shape" fill="#F79D27"></path>
                <path d="M19.2921061,40.3640455 L19.0301818,40.6259697 C21.3240303,44.3492273 24.8622424,47.2286061 29.0628636,48.6812576 L29.0628636,46.5331212 C25.2260758,45.4523485 21.8505606,43.2738182 19.2921061,40.3640455" id="Shape" fill="#007458"></path>
                <path d="M24.1587121,43.0467576 C25.6757273,44.0980303 27.3268333,44.9177727 29.0619697,45.4898939 L29.0619697,44.5584091 C27.3715303,44.2607273 25.7222121,43.7583333 24.1587121,43.0467576" id="Shape" fill="#007458"></path>
                <path d="M14.1367576,45.5122424 L12.5866667,47.0623333 C14.1036818,49.0942576 16.0122424,50.8222424 18.2041818,52.1148788 C20.4461818,53.2403485 22.8785909,54.0395303 25.443303,54.4534242 C20.6786061,52.9399848 16.6710758,49.7209091 14.1367576,45.5122424" id="Shape" fill="#007458"></path>
                <path d="M16.4180909,43.2344848 L14.6552424,44.9973333 C17.8108485,50.4467879 23.2486818,53.7481061 29.0628636,54.3962121 L29.0628636,52.7638788 C23.9218182,51.4667727 19.2858485,48.1815455 16.4180909,43.2344848" id="Shape" fill="#007458"></path>
                <path d="M18.2327879,41.4224697 L17.0527879,42.6033636 C18.6717121,45.6365 21.1345152,48.2709394 24.3303485,50.1178182 C25.8527273,50.9938788 27.4412576,51.6312576 29.0628636,52.0540909 L29.0628636,49.4983182 C27.6593788,49.0567121 26.2827121,48.4613485 24.9534242,47.6970303 C22.1732727,46.0870455 19.9116061,43.9255 18.2327879,41.4224697" id="Shape" fill="#007458"></path>
                <path d="M11.9475,12.6474545 C10.5055758,13.6567121 9.20936364,14.8617424 8.09462121,16.2223182 C6.72331818,18.4169394 5.67830303,20.8386212 5.03645455,23.4167424 C6.84310606,19.5397273 9.83243939,16.3260152 13.5413939,14.2386667 L11.9475,12.6474545 Z" id="Shape" fill="#215D8D"></path>
                <path d="M14.0625606,14.7634091 C13.8971818,14.8545909 13.7309091,14.9484545 13.5664242,15.0441061 C8.47812121,17.980697 5.25457576,22.9125606 4.31683333,28.276197 C4.29269697,28.7017121 4.28375758,29.1290152 4.28375758,29.5563182 C4.28375758,31.9690606 4.61987879,34.3031364 5.25457576,36.5138485 C4.47684848,28.776803 8.17775758,20.9378485 15.3507273,16.7935455 C15.5080606,16.7050455 15.6671818,16.6138636 15.8280909,16.5244697 L14.0625606,14.7634091 Z" id="Shape" fill="#215D8D"></path>
                <path d="M16.476197,17.1743636 C13.2133182,18.7852424 10.384,21.343697 8.42895455,24.7299394 C5.33771212,30.0882121 5.13925758,36.3216515 7.34818182,41.6218182 C8.43968182,43.6206667 9.794,45.4577121 11.3628636,47.0811061 L11.5559545,46.8880152 C7.38125758,40.636697 6.83416667,32.3069697 10.8497424,25.355697 C12.5598485,22.3905 14.9037576,20.0179848 17.6115,18.3087727 L16.476197,17.1743636 Z" id="Shape" fill="#215D8D"></path>
                <path d="M18.4285606,19.1267273 C12.6921515,22.4191061 8.82318182,28.6024848 8.82318182,35.6860606 C8.82318182,39.6417424 10.0255303,43.3149394 12.0851667,46.359697 L13.7014091,44.7488182 C12.1262879,41.8578182 11.2332424,38.5439848 11.2332424,35.0182879 C11.2332424,28.6981364 14.1072576,23.0573788 18.6189697,19.3162424 L18.4285606,19.1267273 Z" id="Shape" fill="#215D8D"></path>
                <path d="M15.4964394,24.5565152 C11.5747273,30.2124697 10.8792424,37.7716212 14.2279394,44.2222879 L15.9925758,42.4621212 C12.9710606,36.7042576 12.9791061,30.1087727 15.4964394,24.5565152" id="Shape" fill="#215D8D"></path>
                <path d="M14.8572727,32.0021364 C14.5783636,35.3839091 15.207697,38.7701515 16.6496212,41.8068636 L17.7643636,40.6930152 C16.1472273,38.0478485 15.1549545,35.0692424 14.8572727,32.0021364" id="Shape" fill="#215D8D"></path>
            </g>
            <polygon id="Shape" fill="#172642" points="557.6975 11.4620909 555.413485 11.4620909 555.413485 9.93971212 561.631727 9.93971212 561.631727 11.4620909 559.348606 11.4620909 559.348606 17.4443333 557.6975 17.4443333"></polygon>
            <polygon id="Shape" fill="#172642" points="562.901121 9.93971212 564.680955 9.93971212 566.653879 13.1140909 568.626803 9.93971212 570.406636 9.93971212 570.406636 17.4461212 568.766258 17.4461212 568.766258 12.5464394 566.653879 15.7503182 566.61097 15.7503182 564.520045 12.5777273 564.520045 17.4461212 562.901121 17.4461212"></polygon>
        </g>
    </g>
</svg>