<?xml version="1.0" encoding="utf-8"?>
<!-- Generator: Adobe Illustrator 19.1.0, SVG Export Plug-In . SVG Version: 6.00 Build 0)  -->
<svg version="1.1" id="Layer_1" xmlns="http://www.w3.org/2000/svg" xmlns:xlink="http://www.w3.org/1999/xlink" x="0px" y="0px"
	 viewBox="0 0 253.25 20" enable-background="new 0 0 253.25 20" xml:space="preserve">
<g>
	<g>
		<path fill="#15213F" d="M9.346,14.46c-0.144,0-0.216-0.072-0.216-0.216v-0.919c0-0.144,0.072-0.216,0.216-0.216h1.387V8.698H4.034
			v4.411H5.42c0.144,0,0.234,0.072,0.234,0.216v0.919c0,0.144-0.09,0.216-0.234,0.216H1.099c-0.144,0-0.234-0.072-0.234-0.216
			v-0.919c0-0.144,0.072-0.216,0.234-0.216h1.369V2.882H1.099c-0.144,0-0.234-0.072-0.234-0.216V1.748
			c0-0.144,0.072-0.216,0.234-0.216H5.42c0.144,0,0.234,0.072,0.234,0.216v0.918c0,0.144-0.09,0.216-0.234,0.216H4.034v4.501h6.698
			V2.882H9.346c-0.144,0-0.216-0.072-0.216-0.216V1.748c0-0.144,0.072-0.216,0.216-0.216h4.339c0.144,0,0.216,0.072,0.216,0.216
			v0.918c0,0.144-0.072,0.216-0.216,0.216h-1.386v10.227h1.386c0.144,0,0.216,0.072,0.216,0.216v0.919
			c0,0.144-0.072,0.216-0.216,0.216H9.346z"/>
		<path fill="#15213F" d="M23.223,14.46c-0.522,0-0.774-0.198-0.774-0.756v-0.667h-0.054c-0.198,0.415-0.864,1.549-2.809,1.549
			c-1.944,0-3.115-1.242-3.133-3.133V6.808h-1.026c-0.144,0-0.216-0.072-0.216-0.216V5.817c0-0.144,0.09-0.216,0.216-0.216h1.729
			c0.522,0,0.774,0.198,0.774,0.756v4.735c0,1.351,0.648,2.197,1.98,2.197c1.801,0,2.395-1.495,2.395-1.531V6.808h-0.973
			c-0.144,0-0.216-0.072-0.216-0.216V5.817c0-0.144,0.09-0.216,0.216-0.216h2.233c0.144,0,0.216,0.072,0.216,0.216v7.437h1.008
			c0.144,0,0.234,0.071,0.234,0.216v0.774c0,0.144-0.09,0.216-0.234,0.216H23.223z"/>
		<path fill="#15213F" d="M39.839,14.46c-0.54,0-0.792-0.198-0.792-0.756V8.968c0-1.35-0.63-2.197-1.962-2.197
			S35.122,7.6,34.852,8.014c0.072,0.216,0.108,0.486,0.108,0.72v4.52h1.008c0.144,0,0.216,0.071,0.216,0.216v0.774
			c0,0.144-0.09,0.216-0.216,0.216h-3.439c-0.144,0-0.234-0.072-0.234-0.216V13.47c0-0.145,0.09-0.216,0.234-0.216h0.954V8.968
			c0-1.35-0.648-2.197-1.98-2.197c-1.836,0-2.395,1.566-2.395,1.549v4.934h0.882c0.144,0,0.216,0.071,0.216,0.216v0.774
			c0,0.144-0.09,0.216-0.216,0.216h-3.367c-0.144,0-0.234-0.072-0.234-0.216V13.47c0-0.145,0.09-0.216,0.234-0.216h0.99V6.808h-0.99
			c-0.144,0-0.234-0.072-0.234-0.216V5.817c0-0.144,0.09-0.216,0.234-0.216h1.764c0.396,0,0.576,0.108,0.576,0.54l-0.036,0.9h0.054
			c0.216-0.36,0.973-1.567,2.917-1.567c1.296,0,2.232,0.558,2.683,1.495c0.271-0.396,1.044-1.495,2.899-1.495
			c1.945,0,3.043,1.243,3.043,3.133l0.018,4.646h1.008c0.144,0,0.234,0.071,0.234,0.216v0.774c0,0.144-0.09,0.216-0.234,0.216
			H39.839z"/>
		<path fill="#15213F" d="M50.421,14.46c-0.522,0-0.774-0.198-0.774-0.756v-0.919H49.61c-0.324,0.45-1.332,1.819-3.511,1.819
			c-1.675,0-2.953-0.937-2.953-2.503c0-2.053,1.98-2.863,4.826-2.863h1.512V9.022c0-1.71-0.954-2.251-2.341-2.251
			c-1.908,0-2.646,0.829-2.719,0.829c-0.09,0.036-0.198,0.036-0.27-0.054l-0.504-0.63c-0.09-0.108-0.072-0.198,0.036-0.288
			c0.09-0.108,1.081-1.152,3.511-1.152c2.323,0,3.781,0.973,3.781,3.601v4.178h1.008c0.144,0,0.216,0.071,0.216,0.216v0.774
			c0,0.144-0.072,0.216-0.216,0.216H50.421z M49.484,10.318h-1.422c-1.873,0-3.367,0.234-3.367,1.585
			c0,0.811,0.72,1.422,1.854,1.422c1.512,0,2.521-1.008,2.935-1.548V10.318z"/>
		<path fill="#15213F" d="M61.455,14.46c-0.522,0-0.774-0.198-0.774-0.756V8.968c0-1.35-0.648-2.197-1.98-2.197
			c-1.819,0-2.377,1.513-2.395,1.531v4.952h0.955c0.144,0,0.234,0.071,0.234,0.216v0.774c0,0.144-0.09,0.216-0.234,0.216h-3.439
			c-0.144,0-0.234-0.072-0.234-0.216V13.47c0-0.145,0.09-0.216,0.234-0.216h0.99V6.808h-0.99c-0.144,0-0.234-0.072-0.234-0.216
			V5.817c0-0.144,0.09-0.216,0.234-0.216h2.106c0.144,0,0.234,0.072,0.234,0.216l-0.036,1.225h0.054
			c0.216-0.36,0.955-1.567,2.899-1.567c1.945,0,3.061,1.243,3.079,3.133v4.646h1.008c0.144,0,0.234,0.071,0.234,0.216v0.774
			c0,0.144-0.09,0.216-0.234,0.216H61.455z"/>
		<path fill="#15213F" d="M82.264,11.201c0.144,0.107,0.126,0.216,0.054,0.36c-0.288,0.558-1.764,3.024-5.6,3.024
			c-3.421,0-6.14-2.593-6.14-6.662c0-4.105,2.863-6.5,6.05-6.5c2.377,0,3.547,1.152,4.051,1.927l-0.018-1.603
			c-0.018-0.144,0.072-0.216,0.216-0.216h1.009c0.144,0,0.234,0.072,0.234,0.216v3.925c0,0.144-0.09,0.234-0.234,0.234h-1.135
			c-0.144,0-0.216-0.09-0.216-0.234V5.511c0-0.954-1.548-2.611-3.817-2.611c-2.161,0-4.465,1.621-4.465,5.078
			c0,3.421,2.305,5.095,4.52,5.095c2.791,0,3.979-1.548,4.393-2.269c0.09-0.162,0.216-0.216,0.342-0.107L82.264,11.201z"/>
		<path fill="#15213F" d="M91.208,14.46c-0.522,0-0.774-0.198-0.774-0.756v-0.919h-0.036c-0.324,0.45-1.332,1.819-3.511,1.819
			c-1.675,0-2.953-0.937-2.953-2.503c0-2.053,1.981-2.863,4.826-2.863h1.512V9.022c0-1.71-0.954-2.251-2.34-2.251
			c-1.909,0-2.647,0.829-2.719,0.829c-0.09,0.036-0.198,0.036-0.27-0.054l-0.504-0.63c-0.09-0.108-0.072-0.198,0.036-0.288
			c0.09-0.108,1.08-1.152,3.511-1.152c2.323,0,3.781,0.973,3.781,3.601v4.178h1.008c0.144,0,0.216,0.071,0.216,0.216v0.774
			c0,0.144-0.072,0.216-0.216,0.216H91.208z M90.272,10.318H88.85c-1.873,0-3.367,0.234-3.367,1.585
			c0,0.811,0.721,1.422,1.855,1.422c1.512,0,2.521-1.008,2.935-1.548V10.318z"/>
		<path fill="#15213F" d="M94.608,18.511c-0.144,0-0.234-0.071-0.234-0.216v-0.774c0-0.144,0.09-0.216,0.234-0.216h1.008V6.808
			h-0.973c-0.144,0-0.234-0.072-0.234-0.216V5.817c0-0.144,0.09-0.216,0.234-0.216h2.107c0.144,0,0.234,0.072,0.234,0.216
			L96.966,7.24h0.018c0.396-0.846,1.369-1.765,2.989-1.765c2.395,0,4.051,1.765,4.051,4.538c0,2.665-1.566,4.573-4.033,4.573
			c-1.603,0-2.557-0.9-2.935-1.765h-0.054c0,0,0.054,0.576,0.054,0.828v3.655h1.17c0.145,0,0.234,0.072,0.234,0.216v0.774
			c0,0.145-0.09,0.216-0.234,0.216H94.608z M102.548,10.049c0-2.053-1.206-3.313-2.772-3.313c-1.369,0-2.755,1.062-2.755,3.439
			c0,2.034,1.368,3.15,2.755,3.15C101.36,13.325,102.548,12.029,102.548,10.049z"/>
		<path fill="#15213F" d="M105.642,14.46c-0.144,0-0.234-0.072-0.234-0.216V13.47c0-0.145,0.09-0.216,0.234-0.216h0.99V6.808h-0.99
			c-0.144,0-0.234-0.072-0.234-0.216V5.817c0-0.144,0.09-0.216,0.234-0.216h2.269c0.144,0,0.216,0.072,0.216,0.216v7.437h0.955
			c0.144,0,0.234,0.071,0.234,0.216v0.774c0,0.144-0.09,0.216-0.234,0.216H105.642z M107.353,4.647c-0.558,0-1.008-0.432-1.008-0.99
			s0.45-1.026,1.008-1.026s1.008,0.468,1.008,1.026S107.911,4.647,107.353,4.647z"/>
		<path fill="#15213F" d="M116.695,13.542c0.108,0.107,0.072,0.233-0.036,0.342c-0.162,0.145-0.756,0.702-1.819,0.702
			c-1.8,0-2.898-1.026-2.898-3.061V6.808h-1.009c-0.144,0-0.252-0.09-0.252-0.234V5.835c0-0.144,0.108-0.234,0.252-0.234h1.009
			V3.783c0-0.144,0.108-0.252,0.252-0.252h1.008c0.144,0,0.234,0.108,0.234,0.252v1.819h2.287c0.144,0,0.252,0.09,0.252,0.234v0.738
			c0,0.144-0.108,0.234-0.252,0.234h-2.287v4.682c0,1.206,0.576,1.818,1.548,1.818c0.541,0,0.882-0.271,0.955-0.342
			c0.126-0.108,0.234-0.09,0.324,0.018L116.695,13.542z"/>
		<path fill="#15213F" d="M125.174,14.46c-0.522,0-0.774-0.198-0.774-0.756v-0.919h-0.036c-0.324,0.45-1.332,1.819-3.511,1.819
			c-1.675,0-2.953-0.937-2.953-2.503c0-2.053,1.98-2.863,4.826-2.863h1.512V9.022c0-1.71-0.954-2.251-2.341-2.251
			c-1.908,0-2.646,0.829-2.719,0.829c-0.09,0.036-0.198,0.036-0.27-0.054l-0.504-0.63c-0.09-0.108-0.072-0.198,0.036-0.288
			c0.09-0.108,1.081-1.152,3.511-1.152c2.323,0,3.781,0.973,3.781,3.601v4.178h1.008c0.144,0,0.216,0.071,0.216,0.216v0.774
			c0,0.144-0.072,0.216-0.216,0.216H125.174z M124.237,10.318h-1.422c-1.873,0-3.367,0.234-3.367,1.585
			c0,0.811,0.72,1.422,1.854,1.422c1.512,0,2.521-1.008,2.935-1.548V10.318z"/>
		<path fill="#15213F" d="M128.573,14.46c-0.144,0-0.233-0.072-0.233-0.216V13.47c0-0.145,0.09-0.216,0.233-0.216h0.99V2.738h-0.99
			c-0.144,0-0.233-0.072-0.233-0.216V1.748c0-0.144,0.09-0.216,0.233-0.216h1.999c0.36,0,0.486,0.144,0.486,0.45v11.271h0.954
			c0.144,0,0.234,0.071,0.234,0.216v0.774c0,0.144-0.091,0.216-0.234,0.216H128.573z"/>
		<path fill="#15213F" d="M149.87,14.46c-0.145,0-0.217-0.072-0.217-0.216v-0.919c0-0.144,0.072-0.216,0.217-0.216h1.206V4.143
			h-0.018l-3.421,8.499c-0.145,0.36-0.415,0.54-0.811,0.54c-0.36,0-0.631-0.18-0.774-0.54l-3.421-8.499h-0.036v8.966h1.206
			c0.145,0,0.234,0.072,0.234,0.216v0.919c0,0.144-0.09,0.216-0.234,0.216h-4.141c-0.145,0-0.234-0.072-0.234-0.216v-0.919
			c0-0.144,0.072-0.216,0.234-0.216h1.368V2.882h-1.368c-0.145,0-0.234-0.072-0.234-0.216V1.748c0-0.144,0.072-0.216,0.234-0.216
			h2.772c0.433,0,0.702,0.234,0.847,0.612l2.683,6.481c0.324,0.792,0.846,2.269,0.846,2.269h0.072c0,0,0.504-1.404,0.828-2.232
			l2.701-6.518c0.144-0.378,0.414-0.612,0.864-0.612h2.755c0.144,0,0.216,0.072,0.216,0.216v0.918c0,0.144-0.09,0.216-0.216,0.216
			h-1.387v10.227h1.387c0.144,0,0.216,0.072,0.216,0.216v0.919c0,0.144-0.09,0.216-0.216,0.216H149.87z"/>
		<path fill="#15213F" d="M163.062,14.46c-0.521,0-0.773-0.198-0.773-0.756v-0.919h-0.036c-0.324,0.45-1.333,1.819-3.512,1.819
			c-1.674,0-2.952-0.937-2.952-2.503c0-2.053,1.98-2.863,4.825-2.863h1.513V9.022c0-1.71-0.955-2.251-2.341-2.251
			c-1.909,0-2.647,0.829-2.719,0.829c-0.09,0.036-0.198,0.036-0.271-0.054l-0.504-0.63c-0.09-0.108-0.072-0.198,0.036-0.288
			c0.09-0.108,1.08-1.152,3.511-1.152c2.323,0,3.781,0.973,3.781,3.601v4.178h1.008c0.145,0,0.217,0.071,0.217,0.216v0.774
			c0,0.144-0.072,0.216-0.217,0.216H163.062z M162.127,10.318h-1.423c-1.872,0-3.367,0.234-3.367,1.585
			c0,0.811,0.721,1.422,1.854,1.422c1.513,0,2.521-1.008,2.936-1.548V10.318z"/>
		<path fill="#15213F" d="M174.097,14.46c-0.522,0-0.774-0.198-0.774-0.756V8.968c0-1.35-0.648-2.197-1.98-2.197
			c-1.818,0-2.377,1.513-2.395,1.531v4.952h0.954c0.144,0,0.234,0.071,0.234,0.216v0.774c0,0.144-0.091,0.216-0.234,0.216h-3.439
			c-0.144,0-0.233-0.072-0.233-0.216V13.47c0-0.145,0.09-0.216,0.233-0.216h0.99V6.808h-0.99c-0.144,0-0.233-0.072-0.233-0.216
			V5.817c0-0.144,0.09-0.216,0.233-0.216h2.107c0.144,0,0.233,0.072,0.233,0.216l-0.036,1.225h0.055
			c0.216-0.36,0.954-1.567,2.898-1.567s3.061,1.243,3.079,3.133v4.646h1.008c0.145,0,0.234,0.071,0.234,0.216v0.774
			c0,0.144-0.09,0.216-0.234,0.216H174.097z"/>
		<path fill="#15213F" d="M184.68,14.46c-0.521,0-0.773-0.198-0.773-0.756v-0.919h-0.036c-0.324,0.45-1.333,1.819-3.512,1.819
			c-1.674,0-2.952-0.937-2.952-2.503c0-2.053,1.98-2.863,4.825-2.863h1.513V9.022c0-1.71-0.955-2.251-2.341-2.251
			c-1.909,0-2.647,0.829-2.719,0.829c-0.09,0.036-0.198,0.036-0.271-0.054l-0.504-0.63c-0.09-0.108-0.072-0.198,0.036-0.288
			c0.09-0.108,1.08-1.152,3.511-1.152c2.323,0,3.781,0.973,3.781,3.601v4.178h1.008c0.145,0,0.217,0.071,0.217,0.216v0.774
			c0,0.144-0.072,0.216-0.217,0.216H184.68z M183.744,10.318h-1.423c-1.872,0-3.367,0.234-3.367,1.585
			c0,0.811,0.721,1.422,1.854,1.422c1.513,0,2.521-1.008,2.936-1.548V10.318z"/>
		<path fill="#15213F" d="M188.494,17.485c-0.09-0.091-0.144-0.217-0.054-0.324l0.468-0.667c0.072-0.107,0.198-0.09,0.307-0.018
			c0.18,0.126,0.954,0.9,2.755,0.9c1.603,0,2.862-0.702,2.862-2.575v-2.053c-0.378,0.883-1.332,1.837-2.935,1.837
			c-2.467,0-4.051-1.908-4.051-4.573c0-2.773,1.674-4.538,4.051-4.538c1.62,0,2.593,0.918,2.989,1.765h0.036l-0.019-1.422
			c0-0.144,0.072-0.216,0.216-0.216h2.125c0.145,0,0.216,0.072,0.216,0.216v0.774c0,0.144-0.071,0.216-0.216,0.216h-0.973v7.994
			c0,2.665-1.836,3.871-4.285,3.871C189.629,18.673,188.639,17.593,188.494,17.485z M194.851,10.03c0-2.106-1.242-3.294-2.737-3.294
			c-1.566,0-2.79,1.26-2.79,3.313c0,1.98,1.206,3.276,2.79,3.276C193.626,13.325,194.851,12.083,194.851,10.03z"/>
		<path fill="#15213F" d="M200.375,10.211c0.09,2.106,1.566,3.114,2.988,3.114c1.549,0,2.611-0.972,2.863-1.386
			c0.09-0.126,0.198-0.145,0.324-0.055l0.486,0.486c0.126,0.108,0.144,0.216,0.071,0.324c-0.233,0.396-1.458,1.891-3.835,1.891
			c-2.431,0-4.429-1.71-4.429-4.591c0-2.917,2.088-4.52,4.249-4.52c2.574,0,4.069,1.71,4.015,4.501c0,0.145-0.09,0.234-0.252,0.234
			H200.375z M205.614,9.112c-0.072-1.458-0.937-2.449-2.484-2.449c-1.242,0-2.503,0.72-2.719,2.449H205.614z"/>
		<path fill="#15213F" d="M221.978,14.46c-0.54,0-0.792-0.198-0.792-0.756V8.968c0-1.35-0.63-2.197-1.962-2.197
			c-1.333,0-1.963,0.829-2.233,1.243c0.072,0.216,0.108,0.486,0.108,0.72v4.52h1.008c0.145,0,0.217,0.071,0.217,0.216v0.774
			c0,0.144-0.091,0.216-0.217,0.216h-3.438c-0.145,0-0.234-0.072-0.234-0.216V13.47c0-0.145,0.09-0.216,0.234-0.216h0.954V8.968
			c0-1.35-0.648-2.197-1.98-2.197c-1.837,0-2.395,1.566-2.395,1.549v4.934h0.882c0.145,0,0.216,0.071,0.216,0.216v0.774
			c0,0.144-0.09,0.216-0.216,0.216h-3.367c-0.144,0-0.233-0.072-0.233-0.216V13.47c0-0.145,0.09-0.216,0.233-0.216h0.99V6.808h-0.99
			c-0.144,0-0.233-0.072-0.233-0.216V5.817c0-0.144,0.09-0.216,0.233-0.216h1.765c0.396,0,0.576,0.108,0.576,0.54l-0.036,0.9h0.055
			c0.216-0.36,0.972-1.567,2.917-1.567c1.296,0,2.232,0.558,2.683,1.495c0.27-0.396,1.044-1.495,2.898-1.495
			c1.944,0,3.043,1.243,3.043,3.133l0.019,4.646h1.008c0.145,0,0.234,0.071,0.234,0.216v0.774c0,0.144-0.09,0.216-0.234,0.216
			H221.978z"/>
		<path fill="#15213F" d="M226.816,10.211c0.09,2.106,1.566,3.114,2.988,3.114c1.549,0,2.611-0.972,2.863-1.386
			c0.09-0.126,0.198-0.145,0.324-0.055l0.486,0.486c0.126,0.108,0.144,0.216,0.071,0.324c-0.233,0.396-1.458,1.891-3.835,1.891
			c-2.431,0-4.429-1.71-4.429-4.591c0-2.917,2.088-4.52,4.249-4.52c2.574,0,4.069,1.71,4.015,4.501c0,0.145-0.09,0.234-0.252,0.234
			H226.816z M232.056,9.112c-0.072-1.458-0.937-2.449-2.484-2.449c-1.242,0-2.503,0.72-2.719,2.449H232.056z"/>
		<path fill="#15213F" d="M242.838,14.46c-0.522,0-0.774-0.198-0.774-0.756V8.968c0-1.35-0.648-2.197-1.98-2.197
			c-1.818,0-2.377,1.513-2.395,1.531v4.952h0.954c0.144,0,0.234,0.071,0.234,0.216v0.774c0,0.144-0.091,0.216-0.234,0.216h-3.439
			c-0.144,0-0.233-0.072-0.233-0.216V13.47c0-0.145,0.09-0.216,0.233-0.216h0.99V6.808h-0.99c-0.144,0-0.233-0.072-0.233-0.216
			V5.817c0-0.144,0.09-0.216,0.233-0.216h2.106c0.145,0,0.234,0.072,0.234,0.216l-0.036,1.225h0.055
			c0.216-0.36,0.954-1.567,2.898-1.567s3.061,1.243,3.079,3.133v4.646h1.008c0.145,0,0.234,0.071,0.234,0.216v0.774
			c0,0.144-0.09,0.216-0.234,0.216H242.838z"/>
	</g>
	<g>
		<defs>
			<rect id="SVGID_1_" y="0.462" width="252" height="19"/>
		</defs>
		<clipPath id="SVGID_2_">
			<use xlink:href="#SVGID_1_"  overflow="visible"/>
		</clipPath>
		<g clip-path="url(#SVGID_2_)">
			<path fill="#15213F" d="M252.157,13.542c0.107,0.107,0.071,0.233-0.036,0.342c-0.162,0.145-0.756,0.702-1.818,0.702
				c-1.801,0-2.899-1.026-2.899-3.061V6.808h-1.008c-0.145,0-0.252-0.09-0.252-0.234V5.835c0-0.144,0.107-0.234,0.252-0.234h1.008
				V3.783c0-0.144,0.108-0.252,0.252-0.252h1.009c0.144,0,0.234,0.108,0.234,0.252v1.819h2.286c0.145,0,0.252,0.09,0.252,0.234
				v0.738c0,0.144-0.107,0.234-0.252,0.234h-2.286v4.682c0,1.206,0.576,1.818,1.548,1.818c0.54,0,0.883-0.271,0.954-0.342
				c0.126-0.108,0.234-0.09,0.324,0.018L252.157,13.542z"/>
		</g>
	</g>
</g>
</svg>
