<?xml version="1.0" encoding="UTF-8"?>
<svg width="192px" height="134px" viewBox="0 0 192 134" version="1.1" xmlns="http://www.w3.org/2000/svg" xmlns:xlink="http://www.w3.org/1999/xlink">
    <!-- Generator: Sketch 44 (41411) - http://www.bohemiancoding.com/sketch -->
    <title>Page 1</title>
    <desc>Created with Sketch.</desc>
    <defs>
        <polygon id="path-1" points="105.77523 75.0108696 0.559013043 75.0108696 0.559013043 0.593751087 105.77523 0.593751087 105.77523 75.0108696"></polygon>
        <polygon id="path-3" points="0 73.1296261 0 0.199397826 138.822252 0.199397826 138.822252 73.1296261 5.00594999e-15 73.1296261"></polygon>
        <polygon id="path-5" points="0 133.774967 191.710304 133.774967 191.710304 0 0 0"></polygon>
    </defs>
    <g id="Page-1" stroke="none" stroke-width="1" fill="none" fill-rule="evenodd">
        <g id="Post-A-Job-on-Career-Builder" transform="translate(-643.000000, -272.000000)">
            <g id="Page-1" transform="translate(643.000000, 272.000000)">
                <g id="Group-3" transform="translate(85.934783, 58.764098)">
                    <mask id="mask-2" fill="white">
                        <use xlink:href="#path-1"></use>
                    </mask>
                    <g id="Clip-2"></g>
                    <path d="M67.994513,52.6760554 C67.994513,48.5810446 71.344513,45.2303163 75.4395239,45.2303163 L102.84398,45.2303163 L102.842524,45.2303163 L98.3309478,45.2303163 C102.42523,45.2303163 105.77523,41.8810446 105.77523,37.7860337 C105.77523,33.6910228 102.42523,30.3410228 98.3309478,30.3410228 L84.4248065,30.3410228 L65.5162413,30.3410228 C61.4219587,30.3410228 58.0712304,26.9902946 58.0712304,22.8952837 C58.0712304,18.8010011 61.4219587,15.4510011 65.5162413,15.4510011 L70.5135674,15.4510011 C74.3041652,15.1160011 77.3031435,11.9123815 77.3031435,8.03949022 L77.3031435,8.03876196 C77.3031435,3.94447935 73.9531435,0.593751087 69.8581326,0.593751087 L8.00402391,0.593751087 C3.90901304,0.593751087 0.559013043,3.94447935 0.559013043,8.03876196 L0.559013043,8.03949022 C0.559013043,12.1337728 3.90901304,15.4845011 8.00402391,15.4845011 L21.9145348,15.4845011 C18.1246652,15.8195011 15.1249587,19.0223924 15.1249587,22.8952837 L15.1249587,22.896012 C15.1249587,26.9902946 18.4749587,30.3410228 22.5699696,30.3410228 L19.3000783,30.3410228 C15.2050674,30.3410228 11.8550674,33.6910228 11.8550674,37.7860337 C11.8550674,41.8810446 15.2050674,45.2303163 19.3000783,45.2303163 L59.0842413,45.2303163 C54.9892304,45.2303163 51.6392304,48.5810446 51.6392304,52.6760554 C51.6392304,56.770338 54.9892304,60.1210663 59.0842413,60.1210663 L22.5699696,60.1210663 C18.4749587,60.1210663 15.1249587,63.4710663 15.1249587,67.5653489 C15.1249587,71.6603598 18.4749587,75.011088 22.5699696,75.011088 L84.4248065,75.011088 C88.5190891,75.011088 91.8690891,71.6603598 91.8690891,67.5653489 C91.8690891,63.4717946 88.5212739,60.1232511 84.4277196,60.1210663 L75.4395239,60.1210663 C71.344513,60.1210663 67.994513,56.770338 67.994513,52.6760554" id="Fill-1" fill="#D2F4F8" mask="url(#mask-2)"></path>
                </g>
                <g id="Group-6" transform="translate(0.000000, 23.079315)">
                    <mask id="mask-4" fill="white">
                        <use xlink:href="#path-3"></use>
                    </mask>
                    <g id="Clip-5"></g>
                    <path d="M133.085013,14.8825935 C136.362187,14.1048109 138.822252,11.1509848 138.822252,7.6444087 C138.822252,3.54939783 135.472252,0.199397826 131.377241,0.199397826 L38.0316761,0.199397826 C33.9366652,0.199397826 30.5866652,3.54939783 30.5866652,7.6444087 C30.5866652,11.1509848 33.0467304,14.1048109 36.3239043,14.8825935 C36.2561761,14.897887 36.1899043,14.9211913 36.1221761,14.9393978 L49.6663717,14.9393978 C53.7613826,14.9393978 57.1113826,17.5618652 57.1113826,21.6561478 C57.1113826,25.7511587 53.7613826,29.1004304 49.6663717,29.1004304 L35.4783935,29.1004304 C35.4871326,29.1040717 35.4951435,29.1084413 35.5038826,29.1113543 L7.44471957,29.1113543 C3.35043696,29.1113543 -0.000291304348,32.4620826 -0.000291304348,36.5570935 C-0.000291304348,40.6513761 3.35043696,44.0013761 7.44471957,44.0013761 L20.0960674,44.0013761 C20.0130457,44.0275935 19.932937,44.0589087 19.8513717,44.0880391 L32.8908826,44.0880391 C36.9858935,44.0880391 40.3358935,47.4380391 40.3358935,51.53305 C40.3358935,55.6273326 36.9858935,58.9780609 32.8908826,58.9780609 L19.0641217,58.9780609 C16.5647304,60.1818761 14.8271,62.7380717 14.8271,65.6846152 C14.8271,69.7796261 18.1771,73.1296261 22.2721109,73.1296261 L101.30298,73.1296261 C105.397991,73.1296261 108.747991,69.7796261 108.747991,65.6846152 C108.747991,62.1154087 106.201991,59.1135174 102.836698,58.4020065 C106.201991,57.6890391 108.747991,54.6878761 108.747991,51.1186696 C108.747991,47.0236587 105.397991,43.6736587 101.30298,43.6736587 L88.6523609,43.6736587 C91.6935783,42.7371152 93.9206,39.8954413 93.9206,36.5570935 C93.9206,33.3491043 91.8618065,30.6079304 89.0033826,29.5657891 L131.377241,29.5657891 C135.472252,29.5657891 138.822252,26.2157891 138.822252,22.12005 C138.822252,18.6142022 136.362187,15.6603761 133.085013,14.8825935" id="Fill-4" fill="#D2F4F8" mask="url(#mask-4)"></path>
                </g>
                <path d="M106.906729,21.5533174 C106.893621,21.5533174 106.880512,21.5533174 106.867403,21.5525891 C104.681892,21.4076652 102.454871,21.4003826 100.284653,21.5278283 C99.9642185,21.5518609 99.6867511,21.3006109 99.667088,20.9794478 C99.6481533,20.6575565 99.8935772,20.3808174 100.216197,20.3618826 C102.434479,20.2315239 104.711751,20.2380783 106.944599,20.3859152 C107.26649,20.4084913 107.510458,20.6859587 107.489338,21.0085783 C107.468218,21.3173609 107.211871,21.5533174 106.906729,21.5533174 L106.906729,21.5533174 Z M88.254512,23.6521652 C88.003262,23.6521652 87.771675,23.4883065 87.6952076,23.2363283 C87.6027185,22.9268174 87.7775011,22.6005565 88.0862837,22.5080674 C90.2273707,21.865013 92.4332728,21.3523174 94.6428163,20.9860022 C94.9661641,20.9306543 95.261838,21.1484043 95.3142728,21.4666543 C95.3674359,21.7841761 95.1525989,22.0856761 94.8343489,22.1388391 C92.6735989,22.4971435 90.5164902,22.9974587 88.4234685,23.6274043 C88.3666641,23.6441543 88.3098598,23.6521652 88.254512,23.6521652 L88.254512,23.6521652 Z M118.886621,23.7635891 C118.829088,23.7635891 118.771555,23.7555783 118.714023,23.7373717 C116.623914,23.0928609 114.470447,22.5757957 112.314066,22.2021978 C111.996545,22.14685 111.783164,21.8446217 111.838512,21.5271 C111.893132,21.20885 112.194632,20.9976543 112.514338,21.0515457 C114.718784,21.4331543 116.921045,21.9618717 119.05849,22.6216761 C119.366545,22.71635 119.539142,23.0440674 119.444468,23.3521217 C119.367273,23.6026435 119.135686,23.7635891 118.886621,23.7635891 L118.886621,23.7635891 Z M77.0808054,28.4958283 C76.8798054,28.4958283 76.6839033,28.391687 76.5753924,28.2052522 C76.4129902,27.9256 76.5083924,27.5687522 76.7873163,27.40635 C78.7230337,26.2826435 80.7490554,25.2732739 82.8078489,24.4066435 C83.1020663,24.2828391 83.447262,24.4204804 83.5725228,24.7190674 C83.6977837,25.0161978 83.5586859,25.3584804 83.2608272,25.483013 C81.2479141,26.331437 79.2670446,27.3182304 77.3735663,28.4171761 C77.2818054,28.4710674 77.1805772,28.4958283 77.0808054,28.4958283 L77.0808054,28.4958283 Z M130.031925,28.6946435 C129.930697,28.6946435 129.82874,28.6684261 129.735523,28.6130783 C127.846414,27.4988391 125.870642,26.4952957 123.863555,25.633763 C123.567153,25.5063174 123.43024,25.16185 123.557686,24.8661761 C123.685132,24.5697739 124.025958,24.4343174 124.324545,24.5595783 C126.377512,25.4415022 128.397708,26.4668935 130.329784,27.60735 C130.607251,27.7712087 130.699012,28.1287848 130.535153,28.4069804 C130.426642,28.5919587 130.231468,28.6946435 130.031925,28.6946435 L130.031925,28.6946435 Z M67.3235663,35.7893609 C67.169175,35.7893609 67.0147837,35.728187 66.8989902,35.6065674 C66.6775989,35.3720674 66.6877946,35.0021109 66.9222946,34.7799913 C68.5477728,33.2433609 70.2868598,31.7941217 72.0922185,30.4730565 C72.3522076,30.2829804 72.7177946,30.3390565 72.9085989,30.6005022 C73.098675,30.8604913 73.0425989,31.2260783 72.7818815,31.4168826 C71.0158489,32.7073609 69.3146315,34.1252848 67.7255663,35.6291435 C67.6119576,35.7361978 67.467762,35.7893609 67.3235663,35.7893609 L67.3235663,35.7893609 Z M139.736729,36.063187 C139.591077,36.063187 139.445425,36.0085674 139.332545,35.9000565 C137.753675,34.3838174 136.062653,32.953513 134.306088,31.6477413 C134.046827,31.4562087 133.992936,31.0898935 134.185925,30.8306326 C134.377458,30.5728283 134.743773,30.518937 135.003034,30.7104696 C136.798925,32.0446435 138.527816,33.5077196 140.141642,35.0567304 C140.373958,35.2810348 140.38124,35.650263 140.158392,35.8833065 C140.043327,36.0027413 139.890392,36.063187 139.736729,36.063187 L139.736729,36.063187 Z M59.4969467,45.1300348 C59.3869793,45.1300348 59.2762837,45.0994478 59.1772402,45.0339043 C58.9070554,44.856937 58.8327728,44.494263 59.009012,44.2255348 C60.2383163,42.3553609 61.5994359,40.5456326 63.0552293,38.8451435 C63.2656967,38.5997196 63.634925,38.5727739 63.8788924,38.7817848 C64.1243163,38.9915239 64.1527185,39.3600239 63.9429793,39.6054478 C62.5192293,41.2680674 61.1879685,43.0384696 59.986338,44.8664043 C59.8734576,45.0375457 59.6870228,45.1300348 59.4969467,45.1300348 L59.4969467,45.1300348 Z M147.491251,45.4577522 C147.29899,45.4577522 147.111827,45.3638065 146.999675,45.1912087 C145.811153,43.3545348 144.493729,41.5746652 143.084545,39.9025783 C142.87699,39.6556978 142.908305,39.2879261 143.154458,39.0789152 C143.401338,38.8713609 143.769838,38.9026761 143.977392,39.1495565 C145.419349,40.859513 146.765903,42.6787087 147.980642,44.5568935 C148.156153,44.8278065 148.078229,45.1890239 147.807316,45.3645348 C147.709001,45.4278935 147.599034,45.4577522 147.491251,45.4577522 L147.491251,45.4577522 Z M54.0335337,56.0240891 C53.9679902,56.0240891 53.900262,56.012437 53.8347185,55.9891326 C53.5310337,55.8791652 53.3751859,55.5441652 53.484425,55.2404804 C54.2476424,53.1365348 55.1543272,51.0609913 56.1804467,49.0699261 C56.3275554,48.782263 56.680762,48.6686543 56.9669685,48.8179478 C57.2539033,48.966513 57.3667837,49.3175348 57.2189467,49.6051978 C56.2161315,51.5511109 55.3283815,53.5815022 54.5833707,55.6388391 C54.4967076,55.8762522 54.2731315,56.0240891 54.0335337,56.0240891 L54.0335337,56.0240891 Z M152.870186,56.3882196 C152.62986,56.3882196 152.404827,56.2389261 152.319621,55.9993283 C151.589903,53.9390783 150.718903,51.9028609 149.729925,49.9482087 C149.585001,49.6612739 149.700066,49.3087957 149.987729,49.1631435 C150.275392,49.016763 150.626414,49.1325565 150.772795,49.4216761 C151.783621,51.4200239 152.675012,53.5013935 153.420751,55.6097087 C153.529262,55.9133935 153.369773,56.246937 153.06536,56.3547196 C153.001273,56.3772957 152.935001,56.3882196 152.870186,56.3882196 L152.870186,56.3882196 Z M51.2472076,67.8838174 C51.2246315,67.8838174 51.2027837,67.8830891 51.1802076,67.8801761 C50.8597728,67.843763 50.6289141,67.5539152 50.6660554,67.2342087 C50.9209467,65.0079152 51.320762,62.779437 51.8545772,60.6092196 C51.9317728,60.2960674 52.2456533,60.10235 52.5609902,60.1824587 C52.8748707,60.2589261 53.065675,60.5757196 52.9884793,60.8896 C52.4670446,63.0110239 52.0759685,65.1899804 51.8269033,67.3660239 C51.792675,67.6646109 51.5399685,67.8838174 51.2472076,67.8838174 L51.2472076,67.8838174 Z M155.569121,68.2683391 C155.274175,68.2683391 155.02074,68.0454913 154.988697,67.7461761 C154.755653,65.5679478 154.379871,63.38535 153.873729,61.2595565 C153.799447,60.9464043 153.993164,60.6310674 154.307045,60.5567848 C154.61874,60.4832304 154.935534,60.6754913 155.010545,60.9893717 C155.528338,63.1625022 155.912132,65.3931652 156.150273,67.6216435 C156.184501,67.94135 155.952186,68.2304696 155.631751,68.2646978 C155.610632,68.2668826 155.589512,68.2683391 155.569121,68.2683391 L155.569121,68.2683391 Z M51.2588598,80.0668935 C50.9660989,80.0668935 50.7141207,79.847687 50.6791641,79.5505565 C50.4410228,77.5034152 50.3194033,75.4125783 50.318675,73.3363065 L50.3208598,72.8301652 C50.3245011,72.5104587 50.5852185,72.2526543 50.9056533,72.2526543 L50.9114793,72.2526543 C51.2340989,72.2555674 51.4926315,72.5199261 51.4897185,72.8432739 L51.4868054,73.3363065 C51.4875337,75.3681543 51.6062402,77.4131109 51.840012,79.4151 C51.8771533,79.7355348 51.6477511,80.0261109 51.3273163,80.0632522 C51.304012,80.0661652 51.2814359,80.0668935 51.2588598,80.0668935 L51.2588598,80.0668935 Z M155.454784,80.5628391 C155.430023,80.5628391 155.40599,80.5613826 155.381229,80.5584696 C155.061523,80.5184152 154.834305,80.2256543 154.87436,79.9059478 C155.148186,77.7437413 155.286555,75.5334696 155.286555,73.3363065 L155.285827,73.2219696 C155.285827,72.89935 155.547273,72.6379043 155.869892,72.6379043 C156.19324,72.6379043 156.454686,72.89935 156.454686,73.2219696 L156.454686,73.3282957 C156.454686,75.582263 156.313403,77.8420565 156.033751,80.0523283 C155.99661,80.3472739 155.74536,80.5628391 155.454784,80.5628391 L155.454784,80.5628391 Z M54.070675,91.9207957 C53.8325337,91.9207957 53.6089576,91.7744152 53.5222946,91.5370022 C52.7547076,89.4352413 52.1160228,87.2628391 51.622262,85.079513 C51.5516207,84.7649043 51.7489793,84.4524804 52.0628598,84.3811109 C52.3774685,84.3111978 52.6906207,84.5071 52.7619902,84.8217087 C53.2440989,86.9569696 53.869675,89.0813065 54.6197837,91.1364587 C54.7304793,91.4394152 54.5739033,91.7751435 54.2709467,91.8858391 C54.204675,91.9091435 54.137675,91.9207957 54.070675,91.9207957 L54.070675,91.9207957 Z M152.528632,92.3927087 C152.459447,92.3927087 152.39099,92.3817848 152.322534,92.3562957 C152.020305,92.242687 151.868099,91.9062304 151.980979,91.6032739 C152.752208,89.5524913 153.397447,87.4325239 153.899947,85.3038174 C153.974958,84.9892087 154.289566,84.7984043 154.603447,84.8690457 C154.917327,84.9433283 155.111773,85.2586652 155.03749,85.5718174 C154.524066,87.7493174 153.863534,89.9166217 153.075555,92.0147413 C152.986708,92.248513 152.764588,92.3927087 152.528632,92.3927087 L152.528632,92.3927087 Z M59.5544793,102.796643 C59.3644033,102.796643 59.1779685,102.704154 59.0658163,102.533741 C57.8335989,100.667209 56.7091641,98.7030891 55.7238272,96.6960022 C55.581088,96.4068826 55.7005228,96.0565891 55.9903707,95.91385 C56.281675,95.7732957 56.6297837,95.8920022 56.7717946,96.18185 C57.736012,98.1437848 58.8364141,100.064937 60.0416859,101.890687 C60.2193815,102.160143 60.1450989,102.522817 59.8756424,102.700513 C59.7765989,102.765328 59.665175,102.796643 59.5544793,102.796643 L59.5544793,102.796643 Z M146.93486,103.223404 C146.822708,103.223404 146.709099,103.190633 146.609327,103.122904 C146.342055,102.943024 146.271414,102.58035 146.451295,102.31235 C147.676958,100.493154 148.797023,98.5814696 149.778718,96.6297304 C149.923642,96.3406109 150.276121,96.2255457 150.563055,96.3697413 C150.850718,96.5153935 150.96724,96.8664152 150.822316,97.1548065 C149.818045,99.1502413 148.673218,101.104893 147.419882,102.964872 C147.307001,103.1331 147.122751,103.223404 146.93486,103.223404 L146.93486,103.223404 Z M67.3956641,112.119839 C67.2514685,112.119839 67.1072728,112.067404 66.9951207,111.961078 C65.3660011,110.425904 63.8199033,108.772024 62.3990663,107.046774 C62.194425,106.79698 62.2301098,106.429209 62.4784467,106.223839 C62.727512,106.017741 63.096012,106.054883 63.3013815,106.30322 C64.6909033,107.991328 66.2035011,109.608796 67.7962076,111.111198 C68.0314359,111.331861 68.0416315,111.701817 67.8209685,111.936317 C67.7059033,112.057937 67.5507837,112.119839 67.3956641,112.119839 L67.3956641,112.119839 Z M139.003371,112.470133 C138.846066,112.470133 138.68949,112.406774 138.574425,112.28297 C138.355218,112.046285 138.369784,111.676328 138.606468,111.457122 C140.21374,109.97147 141.741632,108.369296 143.148632,106.693567 C143.356186,106.446687 143.725414,106.413915 143.971566,106.622198 C144.219175,106.829024 144.251218,107.197524 144.043664,107.444404 C142.604621,109.158002 141.042501,110.796589 139.399545,112.315013 C139.287392,112.419154 139.145382,112.470133 139.003371,112.470133 L139.003371,112.470133 Z M77.1696533,119.398078 C77.0698815,119.398078 76.9693815,119.372589 76.8776207,119.319426 C74.944088,118.203002 73.0586207,116.94748 71.2736533,115.590002 C71.0173054,115.3941 70.9670554,115.028513 71.1622293,114.771437 C71.3574033,114.514361 71.7244467,114.464111 71.9807946,114.660013 C73.7271641,115.988361 75.5711207,117.214752 77.4616859,118.307143 C77.741338,118.468817 77.8367402,118.826393 77.6757946,119.105317 C77.5672837,119.293209 77.3706533,119.398078 77.1696533,119.398078 L77.1696533,119.398078 Z M129.163838,119.650057 C128.960653,119.650057 128.762566,119.54373 128.654784,119.352926 C128.496023,119.071817 128.595066,118.715698 128.876175,118.556937 C130.777664,117.48348 132.632545,116.273839 134.387653,114.964426 C134.645458,114.771437 135.012501,114.8246 135.20549,115.083861 C135.398479,115.342393 135.345316,115.708709 135.086055,115.901698 C133.291621,117.240241 131.395229,118.4761 129.451501,119.575046 C129.35974,119.625296 129.261425,119.650057 129.163838,119.650057 L129.163838,119.650057 Z M88.3622946,124.222807 C88.3069467,124.222807 88.2508707,124.214796 88.1947946,124.198046 C86.0500663,123.559361 83.9250011,122.773567 81.8771315,121.864698 C81.5829141,121.734339 81.4496424,121.389143 81.5807293,121.094198 C81.7118163,120.79998 82.0540989,120.666709 82.3519576,120.797067 C84.3532185,121.685546 86.431675,122.453861 88.5290663,123.078709 C88.8378489,123.17047 89.014088,123.496002 88.9215989,123.805513 C88.846588,124.058948 88.6142728,124.222807 88.3622946,124.222807 L88.3622946,124.222807 Z M117.930414,124.363361 C117.676251,124.363361 117.442479,124.196589 117.368925,123.94097 C117.280077,123.63073 117.458501,123.306654 117.76874,123.217807 C119.869045,122.614078 121.954055,121.866154 123.964055,120.997339 C124.261186,120.869165 124.603468,121.006078 124.732371,121.30248 C124.859816,121.598154 124.723632,121.942622 124.427229,122.069339 C122.372077,122.958546 120.240458,123.722491 118.09136,124.340785 C118.038197,124.35535 117.982849,124.363361 117.930414,124.363361 L117.930414,124.363361 Z M100.362577,126.318741 C100.351653,126.318741 100.340001,126.318013 100.329077,126.317285 C98.0882185,126.191296 95.8408054,125.920383 93.6472837,125.512557 C93.3304902,125.453567 93.1207511,125.148426 93.1797402,124.830904 C93.2387293,124.514111 93.5445989,124.301459 93.8606641,124.364089 C96.0053924,124.762448 98.2032837,125.027535 100.395349,125.151339 C100.71724,125.169546 100.963392,125.445557 100.945186,125.768176 C100.927708,126.078415 100.670632,126.318741 100.362577,126.318741 L100.362577,126.318741 Z M105.90974,126.345687 C105.599501,126.345687 105.341697,126.102448 105.326403,125.789296 C105.31111,125.466676 105.560175,125.193578 105.882066,125.177557 C108.075588,125.073415 110.276392,124.829448 112.424762,124.452937 C112.741555,124.399774 113.044512,124.609513 113.100588,124.927035 C113.156664,125.245285 112.944012,125.548241 112.62649,125.604317 C110.430784,125.988839 108.180458,126.238633 105.938142,126.345687 L105.90974,126.345687 Z" id="Fill-7" fill="#182642"></path>
                <mask id="mask-6" fill="white">
                    <use xlink:href="#path-5"></use>
                </mask>
                <g id="Clip-10"></g>
                <polygon id="Fill-9" fill="#FFFFFF" mask="url(#mask-6)" points="64.1459457 121.050793 141.150065 121.050793 141.150065 20.6258043 64.1459457 20.6258043"></polygon>
                <path d="M141.878545,31.1842761 C141.476545,31.1842761 141.150284,30.8587435 141.150284,30.4560152 L141.150284,27.1788413 C141.150284,26.776113 141.476545,26.4505804 141.878545,26.4505804 C142.280545,26.4505804 142.606805,26.776113 142.606805,27.1788413 L142.606805,30.4560152 C142.606805,30.8587435 142.280545,31.1842761 141.878545,31.1842761" id="Fill-11" fill="#182642" mask="url(#mask-6)"></path>
                <path d="M141.878545,122.507024 L64.874425,122.507024 C64.4716967,122.507024 64.1461641,122.181491 64.1461641,121.778763 L64.1461641,20.625513 C64.1461641,20.2227848 64.4716967,19.8972522 64.874425,19.8972522 L141.878545,19.8972522 C142.280545,19.8972522 142.606805,20.2227848 142.606805,20.625513 L142.606805,27.1791326 C142.606805,27.5811326 142.280545,27.9073935 141.878545,27.9073935 C141.476545,27.9073935 141.150284,27.5811326 141.150284,27.1791326 L141.150284,21.3537739 L65.6026859,21.3537739 L65.6026859,121.050502 L141.150284,121.050502 L141.150284,42.9022848 C141.150284,42.5002848 141.476545,42.1740239 141.878545,42.1740239 C142.280545,42.1740239 142.606805,42.5002848 142.606805,42.9022848 L142.606805,121.778763 C142.606805,122.181491 142.280545,122.507024 141.878545,122.507024" id="Fill-12" fill="#182642" mask="url(#mask-6)"></path>
                <path d="M141.878545,39.9895326 C141.476545,39.9895326 141.150284,39.664 141.150284,39.2612717 L141.150284,34.8254348 C141.150284,34.4227065 141.476545,34.0971739 141.878545,34.0971739 C142.280545,34.0971739 142.606805,34.4227065 142.606805,34.8254348 L142.606805,39.2612717 C142.606805,39.664 142.280545,39.9895326 141.878545,39.9895326" id="Fill-13" fill="#182642" mask="url(#mask-6)"></path>
                <path d="M89.5301337,47.8083598 L78.3935685,47.8083598 C77.6434598,47.8083598 77.035362,47.2009902 77.035362,46.4508815 L77.035362,35.3143163 C77.035362,34.5634793 77.6434598,33.9561098 78.3935685,33.9561098 L89.5301337,33.9561098 C90.2802424,33.9561098 90.887612,34.5634793 90.887612,35.3143163 L90.887612,46.4508815 C90.887612,47.2009902 90.2802424,47.8083598 89.5301337,47.8083598" id="Fill-14" fill="#287AB9" mask="url(#mask-6)"></path>
                <path d="M78.392913,34.6847348 C78.0455326,34.6847348 77.7636957,34.9673 77.7636957,35.3139522 L77.7636957,46.4505174 C77.7636957,46.7986261 78.0455326,47.080463 78.392913,47.080463 L89.5302065,47.080463 C89.877587,47.080463 90.1594239,46.7986261 90.1594239,46.4505174 L90.1594239,35.3139522 C90.1594239,34.9673 89.877587,34.6847348 89.5302065,34.6847348 L78.392913,34.6847348 Z M89.5302065,48.5369848 L78.392913,48.5369848 C77.2429891,48.5369848 76.3071739,47.6011696 76.3071739,46.4505174 L76.3071739,35.3139522 C76.3071739,34.1640283 77.2429891,33.228213 78.392913,33.228213 L89.5302065,33.228213 C90.6801304,33.228213 91.6159457,34.1640283 91.6159457,35.3139522 L91.6159457,46.4505174 C91.6159457,47.6011696 90.6801304,48.5369848 89.5302065,48.5369848 L89.5302065,48.5369848 Z" id="Fill-15" fill="#287AB9" mask="url(#mask-6)"></path>
                <path d="M82.412913,68.3206283 L77.6195,68.3206283 C77.2976087,68.3206283 77.0354348,68.0591826 77.0354348,67.7358348 L77.0354348,62.94315 C77.0354348,62.6205304 77.2976087,62.3583565 77.6195,62.3583565 L82.412913,62.3583565 C82.7355326,62.3583565 82.9977065,62.6205304 82.9977065,62.94315 L82.9977065,67.7358348 C82.9977065,68.0591826 82.7355326,68.3206283 82.412913,68.3206283" id="Fill-16" fill="#287AB9" mask="url(#mask-6)"></path>
                <path d="M77.7636957,67.5920761 L82.2694457,67.5920761 L82.2694457,63.0863261 L77.7636957,63.0863261 L77.7636957,67.5920761 Z M82.4121848,69.0485978 L77.6195,69.0485978 C76.8956087,69.0485978 76.3071739,68.460163 76.3071739,67.737 L76.3071739,62.943587 C76.3071739,62.2189674 76.8956087,61.6305326 77.6195,61.6305326 L82.4121848,61.6305326 C83.1368043,61.6305326 83.7252391,62.2189674 83.7252391,62.943587 L83.7252391,67.737 C83.7252391,68.460163 83.1368043,69.0485978 82.4121848,69.0485978 L82.4121848,69.0485978 Z" id="Fill-17" fill="#287AB9" mask="url(#mask-6)"></path>
                <path d="M82.412913,81.549487 L77.6195,81.549487 C77.2976087,81.549487 77.0354348,81.2880413 77.0354348,80.9646935 L77.0354348,76.1720087 C77.0354348,75.8493891 77.2976087,75.5872152 77.6195,75.5872152 L82.412913,75.5872152 C82.7355326,75.5872152 82.9977065,75.8493891 82.9977065,76.1720087 L82.9977065,80.9646935 C82.9977065,81.2880413 82.7355326,81.549487 82.412913,81.549487" id="Fill-18" fill="#287AB9" mask="url(#mask-6)"></path>
                <path d="M77.7636957,80.8209348 L82.2694457,80.8209348 L82.2694457,76.3151848 L77.7636957,76.3151848 L77.7636957,80.8209348 Z M82.4121848,82.2774565 L77.6195,82.2774565 C76.8956087,82.2774565 76.3071739,81.6890217 76.3071739,80.9658587 L76.3071739,76.1724457 C76.3071739,75.4478261 76.8956087,74.8593913 77.6195,74.8593913 L82.4121848,74.8593913 C83.1368043,74.8593913 83.7252391,75.4478261 83.7252391,76.1724457 L83.7252391,80.9658587 C83.7252391,81.6890217 83.1368043,82.2774565 82.4121848,82.2774565 L82.4121848,82.2774565 Z" id="Fill-19" fill="#287AB9" mask="url(#mask-6)"></path>
                <path d="M82.412913,94.7783457 L77.6195,94.7783457 C77.2976087,94.7783457 77.0354348,94.5169 77.0354348,94.1942804 L77.0354348,89.4008674 C77.0354348,89.0782478 77.2976087,88.8160739 77.6195,88.8160739 L82.412913,88.8160739 C82.7355326,88.8160739 82.9977065,89.0782478 82.9977065,89.4008674 L82.9977065,94.1942804 C82.9977065,94.5169 82.7355326,94.7783457 82.412913,94.7783457" id="Fill-20" fill="#287AB9" mask="url(#mask-6)"></path>
                <path d="M77.7636957,94.0497935 L82.2694457,94.0497935 L82.2694457,89.5440435 L77.7636957,89.5440435 L77.7636957,94.0497935 Z M82.4121848,95.5063152 L77.6195,95.5063152 C76.8956087,95.5063152 76.3071739,94.9178804 76.3071739,94.1947174 L76.3071739,89.4013043 C76.3071739,88.677413 76.8956087,88.08825 77.6195,88.08825 L82.4121848,88.08825 C83.1368043,88.08825 83.7252391,88.677413 83.7252391,89.4013043 L83.7252391,94.1947174 C83.7252391,94.9178804 83.1368043,95.5063152 82.4121848,95.5063152 L82.4121848,95.5063152 Z" id="Fill-21" fill="#287AB9" mask="url(#mask-6)"></path>
                <path d="M82.412913,108.007277 L77.6195,108.007277 C77.2976087,108.007277 77.0354348,107.745832 77.0354348,107.423212 L77.0354348,102.629799 C77.0354348,102.307179 77.2976087,102.045005 77.6195,102.045005 L82.412913,102.045005 C82.7355326,102.045005 82.9977065,102.307179 82.9977065,102.629799 L82.9977065,107.423212 C82.9977065,107.745832 82.7355326,108.007277 82.412913,108.007277" id="Fill-22" fill="#287AB9" mask="url(#mask-6)"></path>
                <path d="M77.7636957,107.27938 L82.2694457,107.27938 L82.2694457,102.77363 L77.7636957,102.77363 L77.7636957,107.27938 Z M82.4121848,108.735902 L77.6195,108.735902 C76.8956087,108.735902 76.3071739,108.147467 76.3071739,107.423576 L76.3071739,102.630163 C76.3071739,101.907 76.8956087,101.317837 77.6195,101.317837 L82.4121848,101.317837 C83.1368043,101.317837 83.7252391,101.907 83.7252391,102.630163 L83.7252391,107.423576 C83.7252391,108.147467 83.1368043,108.735902 82.4121848,108.735902 L82.4121848,108.735902 Z" id="Fill-23" fill="#287AB9" mask="url(#mask-6)"></path>
                <path d="M130.926521,64.5434304 L87.8746511,64.5434304 C87.4719228,64.5434304 87.1463902,64.2178978 87.1463902,63.8151696 C87.1463902,63.4124413 87.4719228,63.0869087 87.8746511,63.0869087 L130.926521,63.0869087 C131.329249,63.0869087 131.654782,63.4124413 131.654782,63.8151696 C131.654782,64.2178978 131.329249,64.5434304 130.926521,64.5434304" id="Fill-24" fill="#182642" mask="url(#mask-6)"></path>
                <path d="M111.991738,67.4301837 L87.8746511,67.4301837 C87.4719228,67.4301837 87.1463902,67.1046511 87.1463902,66.7019228 C87.1463902,66.2991946 87.4719228,65.973662 87.8746511,65.973662 L111.991738,65.973662 C112.394466,65.973662 112.719999,66.2991946 112.719999,66.7019228 C112.719999,67.1046511 112.394466,67.4301837 111.991738,67.4301837" id="Fill-25" fill="#182642" mask="url(#mask-6)"></path>
                <path d="M130.926521,104.311936 L87.8746511,104.311936 C87.4719228,104.311936 87.1463902,103.986403 87.1463902,103.583675 C87.1463902,103.180947 87.4719228,102.855414 87.8746511,102.855414 L130.926521,102.855414 C131.329249,102.855414 131.654782,103.180947 131.654782,103.583675 C131.654782,103.986403 131.329249,104.311936 130.926521,104.311936" id="Fill-26" fill="#182642" mask="url(#mask-6)"></path>
                <path d="M111.991738,107.197888 L87.8746511,107.197888 C87.4719228,107.197888 87.1463902,106.872355 87.1463902,106.469627 C87.1463902,106.066899 87.4719228,105.741366 87.8746511,105.741366 L111.991738,105.741366 C112.394466,105.741366 112.719999,106.066899 112.719999,106.469627 C112.719999,106.872355 112.394466,107.197888 111.991738,107.197888" id="Fill-27" fill="#182642" mask="url(#mask-6)"></path>
                <path d="M130.926521,77.8541457 L87.8746511,77.8541457 C87.4719228,77.8541457 87.1463902,77.528613 87.1463902,77.1258848 C87.1463902,76.7231565 87.4719228,76.3976239 87.8746511,76.3976239 L130.926521,76.3976239 C131.329249,76.3976239 131.654782,76.7231565 131.654782,77.1258848 C131.654782,77.528613 131.329249,77.8541457 130.926521,77.8541457" id="Fill-28" fill="#182642" mask="url(#mask-6)"></path>
                <path d="M125.14879,80.7401707 L87.8742141,80.7401707 C87.4722141,80.7401707 87.1459533,80.414638 87.1459533,80.0119098 C87.1459533,79.6091815 87.4722141,79.2836489 87.8742141,79.2836489 L125.14879,79.2836489 C125.551518,79.2836489 125.877051,79.6091815 125.877051,80.0119098 C125.877051,80.414638 125.551518,80.7401707 125.14879,80.7401707" id="Fill-29" fill="#182642" mask="url(#mask-6)"></path>
                <path d="M130.926521,91.0830043 L87.8746511,91.0830043 C87.4719228,91.0830043 87.1463902,90.7574717 87.1463902,90.3547435 C87.1463902,89.9520152 87.4719228,89.6264826 87.8746511,89.6264826 L130.926521,89.6264826 C131.329249,89.6264826 131.654782,89.9520152 131.654782,90.3547435 C131.654782,90.7574717 131.329249,91.0830043 130.926521,91.0830043" id="Fill-30" fill="#182642" mask="url(#mask-6)"></path>
                <path d="M101.104821,93.9690293 L87.8745054,93.9690293 C87.4717772,93.9690293 87.1462446,93.6434967 87.1462446,93.2407685 C87.1462446,92.8380402 87.4717772,92.5125076 87.8745054,92.5125076 L101.104821,92.5125076 C101.507549,92.5125076 101.833082,92.8380402 101.833082,93.2407685 C101.833082,93.6434967 101.507549,93.9690293 101.104821,93.9690293" id="Fill-31" fill="#182642" mask="url(#mask-6)"></path>
                <path d="M119.409512,93.9690293 L106.179197,93.9690293 C105.776468,93.9690293 105.450936,93.6434967 105.450936,93.2407685 C105.450936,92.8380402 105.776468,92.5125076 106.179197,92.5125076 L119.409512,92.5125076 C119.81224,92.5125076 120.137773,92.8380402 120.137773,93.2407685 C120.137773,93.6434967 119.81224,93.9690293 119.409512,93.9690293" id="Fill-32" fill="#182642" mask="url(#mask-6)"></path>
                <path d="M117.113014,38.4213685 L98.095938,38.4213685 C97.492938,38.4213685 97.0035467,37.9319772 97.0035467,37.3289772 C97.0035467,36.7259772 97.492938,36.2365859 98.095938,36.2365859 L117.113014,36.2365859 C117.716014,36.2365859 118.205405,36.7259772 118.205405,37.3289772 C118.205405,37.9319772 117.716014,38.4213685 117.113014,38.4213685" id="Fill-33" fill="#81C3EB" mask="url(#mask-6)"></path>
                <path d="M125.14879,43.1514957 L98.0960837,43.1514957 C97.4923554,43.1514957 97.0036924,42.6621043 97.0036924,42.0591043 C97.0036924,41.4561043 97.4923554,40.966713 98.0960837,40.966713 L125.14879,40.966713 C125.75179,40.966713 126.241182,41.4561043 126.241182,42.0591043 C126.241182,42.6621043 125.75179,43.1514957 125.14879,43.1514957" id="Fill-34" fill="#81C3EB" mask="url(#mask-6)"></path>
                <path d="M131.655146,53.9424283 L76.3073196,53.9424283 C76.1063196,53.9424283 75.9431891,53.7792978 75.9431891,53.5782978 C75.9431891,53.3772978 76.1063196,53.2141674 76.3073196,53.2141674 L131.655146,53.2141674 C131.856146,53.2141674 132.019276,53.3772978 132.019276,53.5782978 C132.019276,53.7792978 131.856146,53.9424283 131.655146,53.9424283" id="Fill-35" fill="#81C3EB" mask="url(#mask-6)"></path>
                <path d="M154.616337,100.873307 C154.616337,108.709393 148.264446,115.060557 140.429087,115.060557 C132.593,115.060557 126.241109,108.709393 126.241109,100.873307 C126.241109,93.0379478 132.593,86.6860565 140.429087,86.6860565 C148.264446,86.6860565 154.616337,93.0379478 154.616337,100.873307" id="Fill-36" fill="#81C3EB" mask="url(#mask-6)"></path>
                <path d="M140.429087,87.4139533 C133.00738,87.4139533 126.970098,93.4519641 126.970098,100.872942 C126.970098,108.294649 133.00738,114.33266 140.429087,114.33266 C147.850065,114.33266 153.888076,108.294649 153.888076,100.872942 C153.888076,93.4519641 147.850065,87.4139533 140.429087,87.4139533 M140.429087,115.789182 C132.204837,115.789182 125.513576,109.097921 125.513576,100.872942 C125.513576,92.6479641 132.204837,85.9574315 140.429087,85.9574315 C148.653337,85.9574315 155.344598,92.6479641 155.344598,100.872942 C155.344598,109.097921 148.653337,115.789182 140.429087,115.789182" id="Fill-37" fill="#182642" mask="url(#mask-6)"></path>
                <path d="M138.21765,107.210705 C137.937998,107.210705 137.658346,107.104379 137.444965,106.890999 L133.776715,103.222021 C133.349954,102.795988 133.349954,102.10414 133.776715,101.677379 C134.203476,101.250618 134.895324,101.250618 135.321357,101.677379 L138.21765,104.573673 L147.234976,95.5563467 C147.661737,95.1295859 148.352857,95.1295859 148.779617,95.5563467 C149.206378,95.9831076 149.206378,96.6742272 148.779617,97.100988 L138.990335,106.890999 C138.776954,107.104379 138.497302,107.210705 138.21765,107.210705" id="Fill-38" fill="#FFFFFF" mask="url(#mask-6)"></path>
                <path d="M43.4171652,21.4566043 L43.4171652,21.4566043 C43.0122522,21.4566043 42.6808935,21.1252457 42.6808935,20.7196043 L42.6808935,15.0129522 C42.6808935,14.6087674 43.0122522,14.2774087 43.4171652,14.2774087 C43.8220783,14.2774087 44.153437,14.6087674 44.153437,15.0129522 L44.153437,20.7196043 C44.153437,21.1252457 43.8220783,21.4566043 43.4171652,21.4566043" id="Fill-39" fill="#182642" mask="url(#mask-6)"></path>
                <path d="M47.0069087,17.8664967 L47.0069087,17.8664967 C47.0069087,18.272138 46.67555,18.6034967 46.270637,18.6034967 L40.5639848,18.6034967 C40.1590717,18.6034967 39.827713,18.272138 39.827713,17.8664967 C39.827713,17.4615837 40.1590717,17.130225 40.5639848,17.130225 L46.270637,17.130225 C46.67555,17.130225 47.0069087,17.4615837 47.0069087,17.8664967" id="Fill-40" fill="#182642" mask="url(#mask-6)"></path>
                <path d="M24.021175,42.3769902 C24.021175,43.0287837 23.4924576,43.5567728 22.8413924,43.5567728 C22.1895989,43.5567728 21.6608815,43.0287837 21.6608815,42.3769902 C21.6608815,41.7251967 22.1895989,41.1972076 22.8413924,41.1972076 C23.4924576,41.1972076 24.021175,41.7251967 24.021175,42.3769902 Z" id="Stroke-41" stroke="#182642" mask="url(#mask-6)"></path>
                <path d="M25.8190326,86.8898239 L25.8190326,86.8898239 C25.5779783,86.8898239 25.3806196,86.6924652 25.3806196,86.4514109 L25.3806196,83.0577152 C25.3806196,82.8166609 25.5779783,82.6200304 25.8190326,82.6200304 C26.060087,82.6200304 26.2574457,82.8166609 26.2574457,83.0577152 L26.2574457,86.4514109 C26.2574457,86.6924652 26.060087,86.8898239 25.8190326,86.8898239" id="Fill-42" fill="#182642" mask="url(#mask-6)"></path>
                <path d="M27.9544391,84.7548543 L27.9544391,84.7548543 C27.9544391,84.9959087 27.7570804,85.1932674 27.5160261,85.1932674 L24.1216022,85.1932674 C23.8812761,85.1932674 23.6839174,84.9959087 23.6839174,84.7548543 C23.6839174,84.5138 23.8812761,84.3164413 24.1216022,84.3164413 L27.5160261,84.3164413 C27.7570804,84.3164413 27.9544391,84.5138 27.9544391,84.7548543" id="Fill-43" fill="#182642" mask="url(#mask-6)"></path>
                <path d="M57.7985696,14.11355 C57.7985696,14.4390826 57.5342109,14.7034413 57.2086783,14.7034413 C56.8831457,14.7034413 56.618787,14.4390826 56.618787,14.11355 C56.618787,13.7880174 56.8831457,13.5229304 57.2086783,13.5229304 C57.5342109,13.5229304 57.7985696,13.7880174 57.7985696,14.11355" id="Fill-44" fill="#182642" mask="url(#mask-6)"></path>
                <path d="M33.030563,48.5373489 C33.030563,48.8628815 32.7662043,49.1272402 32.4406717,49.1272402 C32.1151391,49.1272402 31.8507804,48.8628815 31.8507804,48.5373489 C31.8507804,48.2118163 32.1151391,47.9467293 32.4406717,47.9467293 C32.7662043,47.9467293 33.030563,48.2118163 33.030563,48.5373489" id="Fill-45" fill="#182642" mask="url(#mask-6)"></path>
                <path d="M57.7985696,3.62200543 C56.8991674,3.62200543 56.1701783,2.89228804 56.1701783,1.99288587 C56.1701783,1.09275543 56.8991674,0.363766304 57.7985696,0.363766304 C58.6979717,0.363766304 59.4276891,1.09275543 59.4276891,1.99288587 C59.4276891,2.89228804 58.6979717,3.62200543 57.7985696,3.62200543 Z" id="Stroke-46" stroke="#182642" mask="url(#mask-6)"></path>
                <path d="M173.819265,116.134086 L173.819265,116.134086 C174.224178,116.134086 174.555537,115.802727 174.555537,115.397086 L174.555537,109.691162 C174.555537,109.286249 174.224178,108.95489 173.819265,108.95489 C173.414352,108.95489 173.082993,109.286249 173.082993,109.691162 L173.082993,115.397086 C173.082993,115.802727 173.414352,116.134086 173.819265,116.134086" id="Fill-47" fill="#182642" mask="url(#mask-6)"></path>
                <path d="M170.229522,112.543978 L170.229522,112.543978 C170.229522,112.94962 170.56088,113.280978 170.965793,113.280978 L176.672446,113.280978 C177.077359,113.280978 177.408717,112.94962 177.408717,112.543978 C177.408717,112.139065 177.077359,111.807707 176.672446,111.807707 L170.965793,111.807707 C170.56088,111.807707 170.229522,112.139065 170.229522,112.543978" id="Fill-48" fill="#182642" mask="url(#mask-6)"></path>
                <path d="M171.365973,13.9713207 C171.365973,14.6231141 171.893962,15.1511033 172.545755,15.1511033 C173.197549,15.1511033 173.725538,14.6231141 173.725538,13.9713207 C173.725538,13.3187989 173.197549,12.7908098 172.545755,12.7908098 C171.893962,12.7908098 171.365973,13.3187989 171.365973,13.9713207 Z" id="Stroke-49" stroke="#182642" mask="url(#mask-6)"></path>
                <path d="M163.013039,27.1667522 L163.013039,27.1667522 C163.254093,27.1667522 163.451452,26.9693935 163.451452,26.7283391 L163.451452,23.3339152 C163.451452,23.0935891 163.254093,22.8962304 163.013039,22.8962304 C162.771985,22.8962304 162.574626,23.0935891 162.574626,23.3339152 L162.574626,26.7283391 C162.574626,26.9693935 162.771985,27.1667522 163.013039,27.1667522" id="Fill-50" fill="#182642" mask="url(#mask-6)"></path>
                <path d="M160.87807,25.0317826 L160.87807,25.0317826 C160.87807,25.272837 161.075428,25.4701957 161.316483,25.4701957 L164.710178,25.4701957 C164.951233,25.4701957 165.148591,25.272837 165.148591,25.0317826 C165.148591,24.7907283 164.951233,24.5933696 164.710178,24.5933696 L161.316483,24.5933696 C161.075428,24.5933696 160.87807,24.7907283 160.87807,25.0317826" id="Fill-51" fill="#182642" mask="url(#mask-6)"></path>
                <path d="M152.154524,18.4809304 C152.154524,18.806463 152.418883,19.07155 152.744415,19.07155 C153.070676,19.07155 153.334307,18.806463 153.334307,18.4809304 C153.334307,18.1553978 153.070676,17.8910391 152.744415,17.8910391 C152.418883,17.8910391 152.154524,18.1553978 152.154524,18.4809304" id="Fill-52" fill="#182642" mask="url(#mask-6)"></path>
                <path d="M176.92253,32.5120413 C176.92253,32.8383022 177.186889,33.1026609 177.512422,33.1026609 C177.837954,33.1026609 178.102313,32.8383022 178.102313,32.5120413 C178.102313,32.1865087 177.837954,31.92215 177.512422,31.92215 C177.186889,31.92215 176.92253,32.1865087 176.92253,32.5120413" id="Fill-53" fill="#182642" mask="url(#mask-6)"></path>
                <path d="M159.437497,124.518335 C160.336899,124.518335 161.066616,123.789346 161.066616,122.889943 C161.066616,121.989813 160.336899,121.260824 159.437497,121.260824 C158.538095,121.260824 157.809105,121.989813 157.809105,122.889943 C157.809105,123.789346 158.538095,124.518335 159.437497,124.518335 Z" id="Stroke-54" stroke="#182642" mask="url(#mask-6)"></path>
            </g>
        </g>
    </g>
</svg>