<?xml version="1.0" encoding="UTF-8"?>
<svg width="21px" height="17px" viewBox="0 0 21 17" version="1.1" xmlns="http://www.w3.org/2000/svg"
     xmlns:xlink="http://www.w3.org/1999/xlink">
    <!-- Generator: Sketch 43.2 (39069) - http://www.bohemiancoding.com/sketch -->
    <title>Group</title>
    <desc>Created with Sketch.</desc>
    <defs></defs>
    <g id="Current" stroke="none" stroke-width="1" fill="none" fill-rule="evenodd">
        <g id="1-Page-Export---04052017---letter-size-FINAL" transform="translate(-53.000000, -153.000000)"
           fill="#0A0A08">
            <g id="Quick-Summary" transform="translate(53.000000, 146.000000)">
                <g id="Group" transform="translate(0.000000, 7.000000)">
                    <path d="M7.01278558,9.67572235 C7.01278558,9.67572235 6.09869623,9.67636719 6.08914844,9.67733445 C5.9759045,9.68503224 5.86471513,9.73170263 5.77810023,9.81831287 L3.03184385,12.5656994 C3.03184385,12.5656994 3.03099784,10.131746 3.0293864,10.1191313 C3.00747082,9.87066592 2.79911162,9.67572235 2.54502781,9.67572235 L1.16148569,9.67572235 C1.05762838,9.67572235 0.973148634,9.59124814 0.973148634,9.48734809 L0.973148634,1.1827598 C0.973148634,1.07890005 1.05762838,0.994385541 1.16148569,0.994385541 L14.9980752,0.994385541 C15.1018922,0.994385541 15.186372,1.07890005 15.186372,1.1827598 L15.186372,4.36892051 C15.186372,4.63773872 15.4042387,4.85569506 15.6729463,4.85569506 C15.9416539,4.85569506 16.1595206,4.63773872 16.1595206,4.36892051 L16.1595206,1.1827598 C16.1595206,0.542069692 15.6385018,0.0208364335 14.9980752,0.0208364335 L1.16148569,0.0208364335 C0.521018848,0.0208364335 0,0.542069692 0,1.1827598 L0,9.48734809 C0,10.1280382 0.521018848,10.6493118 1.16148569,10.6493118 L2.05865493,10.6493118 L2.05865493,13.7408823 C2.05865493,13.9377604 2.17721663,14.1152933 2.35902735,14.1906188 C2.41921463,14.2156064 2.48250394,14.2277375 2.54514867,14.2277375 C2.67180786,14.2277375 2.79625131,14.1782056 2.88931197,14.0851469 L6.32373383,10.6493521 L7.01278558,10.6493521 C7.28153349,10.6493521 7.4993599,10.431436 7.4993599,10.1625775 C7.4993599,9.8936787 7.28149321,9.67572235 7.01278558,9.67572235"
                          id="Fill-1"></path>
                    <path d="M19.6532838,12.8021949 C19.6532838,12.9060547 19.568804,12.9905692 19.4649467,12.9905692 L18.6441194,12.9905692 C18.3880616,12.9905692 18.178655,13.1885355 18.1594386,13.439822 C18.1581494,13.4504619 18.157384,14.9024027 18.157384,14.9024027 L16.3906414,13.134933 C16.3887883,13.1330791 16.3868545,13.1313461 16.3850014,13.1294922 C16.3781125,13.1227214 16.3715458,13.1168372 16.3653015,13.1115978 C16.2796535,13.0364738 16.1678195,12.9905692 16.0449875,12.9905692 L9.77958783,12.9905692 C9.67573052,12.9905692 9.59129106,12.9060547 9.59129106,12.8021949 L9.59129106,7.13682106 C9.59129106,7.03296131 9.67573052,6.9484468 9.77958783,6.9484468 L19.4649467,6.9484468 C19.568804,6.9484468 19.6532838,7.03296131 19.6532838,7.13682106 L19.6532838,12.8021949 Z M19.4649467,5.97489769 L9.77958783,5.97489769 C9.13916128,5.97489769 8.61810214,6.49613095 8.61810214,7.13682106 L8.61810214,12.8021949 C8.61810214,13.442885 9.13916128,13.9641183 9.77958783,13.9641183 L15.8431949,13.9641183 L18.2998353,16.4217696 C18.3929362,16.5149089 18.5173797,16.5643601 18.6439986,16.5643601 C18.7066836,16.5643601 18.7699326,16.552229 18.8301199,16.5272817 C19.0118903,16.4519159 19.1304923,16.2744234 19.1304923,16.0775453 L19.1304923,13.964078 L19.4649064,13.964078 C20.105333,13.964078 20.6263921,13.4428447 20.6263921,12.8021546 L20.6263921,7.13682106 C20.6264324,6.49613095 20.1054135,5.97489769 19.4649467,5.97489769 L19.4649467,5.97489769 Z"
                          id="Fill-3"></path>
                    <path d="M14.622368,8.4827939 C14.3537812,8.4827939 14.1357937,8.70087116 14.1357937,8.96956845 C14.1357937,9.23826575 14.3537812,9.45634301 14.622368,9.45634301 C14.890995,9.45634301 15.1089423,9.23826575 15.1089423,8.96956845 C15.1089423,8.70087116 14.8909547,8.4827939 14.622368,8.4827939"
                          id="Fill-5"></path>
                    <path d="M3.65192597,2.2391183 C3.38325863,2.2391183 3.16535165,2.45707465 3.16535165,2.72593316 C3.16535165,2.99475136 3.38325863,3.21270771 3.65192597,3.21270771 L12.5076752,3.21270771 C12.7763829,3.21270771 12.9942898,2.99475136 12.9942898,2.72593316 C12.9942898,2.45707465 12.7763829,2.2391183 12.5076752,2.2391183 L3.65192597,2.2391183"
                          id="Fill-6"></path>
                    <path d="M7.01278558,5.45744048 L3.65192597,5.45744048 C3.38325863,5.45744048 3.16535165,5.67535652 3.16535165,5.94421503 C3.16535165,6.21307354 3.38325863,6.43098958 3.65192597,6.43098958 L7.01278558,6.43098958 C7.28153349,6.43098958 7.4993599,6.21307354 7.4993599,5.94421503 C7.4993599,5.67535652 7.28149321,5.45744048 7.01278558,5.45744048"
                          id="Fill-7"></path>
                    <path d="M12.3612356,8.4827939 C12.0926891,8.4827939 11.8746613,8.70087116 11.8746613,8.96956845 C11.8746613,9.23826575 12.0926891,9.45634301 12.3612356,9.45634301 C12.6298627,9.45634301 12.8478099,9.23826575 12.8478099,8.96956845 C12.8478099,8.70087116 12.6298627,8.4827939 12.3612356,8.4827939"
                          id="Fill-8"></path>
                    <path d="M16.8830169,8.4827939 C16.6144301,8.4827939 16.3964426,8.70087116 16.3964426,8.96956845 C16.3964426,9.23826575 16.6144301,9.45634301 16.8830169,9.45634301 C17.151644,9.45634301 17.3695912,9.23826575 17.3695912,8.96956845 C17.3695912,8.70087116 17.1516037,8.4827939 16.8830169,8.4827939"
                          id="Fill-9"></path>
                </g>
            </g>
        </g>
    </g>
</svg>