<?xml version="1.0" encoding="UTF-8"?>
<svg width="17px" height="25px" viewBox="0 0 17 25" version="1.1" xmlns="http://www.w3.org/2000/svg"
     xmlns:xlink="http://www.w3.org/1999/xlink">
    <!-- Generator: Sketch 43.2 (39069) - http://www.bohemiancoding.com/sketch -->
    <title>Group 2</title>
    <desc>Created with Sketch.</desc>
    <defs>
        <polygon id="path-1"
                 points="16.1643878 12.1285326 16.1643878 0 0.0303082272 0 0.0303082272 24.2570651 16.1643878 24.2570651 16.1643878 12.1285326"></polygon>
    </defs>
    <g id="Current" stroke="none" stroke-width="1" fill="none" fill-rule="evenodd">
        <g id="1-Page-Export---04052017---letter-size-FINAL" transform="translate(-54.000000, -288.000000)">
            <g id="Top-Job-&amp;-Candidate-Charts-Copy" transform="translate(54.000000, 285.000000)">
                <g id="Top-Candidate-Titles-Chart">
                    <g id="Group-2" transform="translate(0.000000, 3.000000)">
                        <mask id="mask-2" fill="white">
                            <use xlink:href="#path-1"></use>
                        </mask>
                        <g id="Clip-2"></g>
                        <path d="M14.953069,1.61710398 L10.1027424,1.61710398 L10.830645,0.645830904 C10.9650115,0.46845481 10.9276313,0.215782313 10.749823,0.0813605442 C10.5704994,-0.0530612245 10.3179308,-0.0171817298 10.1835643,0.162215743 L9.09246816,1.61710398 L7.11940257,1.61710398 L6.42281848,0.223362488 C6.32229619,0.0242565598 6.07932524,-0.0565986395 5.88030121,0.0419436346 C5.68077205,0.142507289 5.59995011,0.385578231 5.7004724,0.584684159 L6.21571226,1.61710398 L1.21131881,1.61710398 C0.544537815,1.61710398 0,2.16186589 0,2.82892128 L0,23.0427211 C0,23.7123032 0.544537815,24.2570651 1.21131881,24.2570651 L14.953069,24.2570651 C15.61985,24.2570651 16.1643878,23.7123032 16.1643878,23.0427211 L16.1643878,2.82892128 C16.1643878,2.16186589 15.61985,1.61710398 14.953069,1.61710398 Z M15.3551582,23.0427211 C15.3551582,23.2660836 15.1758345,23.4475024 14.953069,23.4475024 L1.21131881,23.4475024 C0.988553343,23.4475024 0.809229666,23.2660836 0.809229666,23.0427211 L0.809229666,2.82892128 C0.809229666,2.60606414 0.988553343,2.42666667 1.21131881,2.42666667 L6.61982195,2.42666667 L7.02443679,3.23370262 C6.68498464,3.53185617 6.46626027,3.96241011 6.46626027,4.44804665 C6.46626027,5.33795918 7.19012176,6.06464529 8.08219392,6.06464529 C8.97426607,6.06464529 9.69812756,5.33795918 9.69812756,4.44804665 C9.69812756,3.55560739 8.97426607,2.82892128 8.08219392,2.82892128 C7.96601238,2.82892128 7.8533668,2.84307094 7.74476232,2.86682216 L7.5240174,2.42666667 L14.953069,2.42666667 C15.1758345,2.42666667 15.3551582,2.60606414 15.3551582,2.82892128 L15.3551582,23.0427211 Z M7.40733072,4.0038484 L7.72102088,4.62744412 C7.79224521,4.76944606 7.93418874,4.85030126 8.08219392,4.85030126 C8.14331551,4.85030126 8.2044371,4.83665695 8.26353814,4.80886297 C8.4630673,4.70829932 8.54388924,4.46573372 8.44336696,4.26612245 L8.13169735,3.6445481 C8.55399199,3.6703207 8.89142358,4.01951409 8.89142358,4.44804665 C8.89142358,4.8922449 8.52822999,5.2550826 8.08219392,5.2550826 C7.63615784,5.2550826 7.27296425,4.8922449 7.27296425,4.44804665 C7.27296425,4.28178814 7.32448824,4.13018465 7.40733072,4.0038484 Z"
                              id="Fill-1" fill="#4A4A4A" mask="url(#mask-2)"></path>
                        <path d="M12.1232909,16.5763265 L4.04109696,16.5763265 C3.81833149,16.5763265 3.63648213,16.755724 3.63648213,16.9785811 C3.63648213,17.203965 3.81833149,17.3833625 4.04109696,17.3833625 L12.1232909,17.3833625 C12.3460563,17.3833625 12.5279057,17.203965 12.5279057,16.9785811 C12.5279057,16.755724 12.3460563,16.5763265 12.1232909,16.5763265 Z"
                              id="Fill-4" fill="#4A4A4A" mask="url(#mask-2)"></path>
                        <path d="M12.1232909,18.5977065 L4.04109696,18.5977065 C3.81833149,18.5977065 3.63648213,18.777104 3.63648213,18.9999611 C3.63648213,19.225345 3.81833149,19.4047425 4.04109696,19.4047425 L12.1232909,19.4047425 C12.3460563,19.4047425 12.5279057,19.225345 12.5279057,18.9999611 C12.5279057,18.777104 12.3460563,18.5977065 12.1232909,18.5977065 Z"
                              id="Fill-5" fill="#4A4A4A" mask="url(#mask-2)"></path>
                        <path d="M12.1232909,20.6190865 L4.04109696,20.6190865 C3.81833149,20.6190865 3.63648213,20.798484 3.63648213,21.0213411 C3.63648213,21.246725 3.81833149,21.4261224 4.04109696,21.4261224 L12.1232909,21.4261224 C12.3460563,21.4261224 12.5279057,21.246725 12.5279057,21.0213411 C12.5279057,20.798484 12.3460563,20.6190865 12.1232909,20.6190865 Z"
                              id="Fill-6" fill="#4A4A4A" mask="url(#mask-2)"></path>
                        <path d="M10.5073572,14.9572012 L12.1232909,14.9572012 L12.1232909,6.87168124 L4.04109696,6.87168124 L4.04109696,14.9572012 L10.5073572,14.9572012 Z M6.46626027,14.1501652 C6.46626027,13.2577259 7.19012176,12.5335666 8.08219392,12.5335666 C8.97426607,12.5335666 9.69812756,13.2577259 9.69812756,14.1501652 L6.46626027,14.1501652 Z M6.8708751,10.5121866 C6.8708751,9.84260447 7.41339237,9.29784257 8.08219392,9.29784257 C8.75099546,9.29784257 9.29351273,9.84260447 9.29351273,10.5121866 C9.29351273,11.179242 8.75099546,11.7240039 8.08219392,11.7240039 C7.41339237,11.7240039 6.8708751,11.179242 6.8708751,10.5121866 Z M4.85032662,14.1501652 L4.85032662,7.68124393 L11.3140612,7.68124393 L11.3140612,14.1501652 L10.5073572,14.1501652 C10.5073572,13.2733916 10.0375797,12.5057726 9.34099562,12.0792614 C9.8006704,11.7083382 10.1027424,11.1474052 10.1027424,10.5121866 C10.1027424,9.39689018 9.19703154,8.49080661 8.08219392,8.49080661 C6.96735629,8.49080661 6.06164544,9.39689018 6.06164544,10.5121866 C6.06164544,11.1474052 6.36371744,11.7103596 6.82339221,12.0792614 C6.12680813,12.5057726 5.6570306,13.2733916 5.6570306,14.1501652 L4.85032662,14.1501652 Z"
                              id="Fill-7" fill="#4A4A4A" mask="url(#mask-2)"></path>
                    </g>
                </g>
            </g>
        </g>
    </g>
</svg>