<?xml version="1.0" encoding="UTF-8"?>
<svg width="19px" height="19px" viewBox="0 0 19 19" version="1.1" xmlns="http://www.w3.org/2000/svg"
     xmlns:xlink="http://www.w3.org/1999/xlink">
    <!-- Generator: Sketch 43.2 (39069) - http://www.bohemiancoding.com/sketch -->
    <title>Icon</title>
    <desc>Created with Sketch.</desc>
    <defs></defs>
    <g id="Current" stroke="none" stroke-width="1" fill="none" fill-rule="evenodd">
        <g id="1-Page-Export---04052017---letter-size-FINAL" transform="translate(-324.000000, -288.000000)"
           fill="#4A4A4A">
            <g id="Top-Job-&amp;-Candidate-Charts-Copy" transform="translate(54.000000, 285.000000)">
                <g id="Top-Job-Posters-Chart" transform="translate(270.000000, 0.000000)">
                    <g id="Icon" transform="translate(0.000000, 3.000000)">
                        <path d="M18.1849363,2.88254089 L16.2906721,2.88254089 L16.2906721,0.425252635 C16.2906721,0.216477644 16.1210408,0.0472082879 15.9118193,0.0472082879 L0.37885284,0.0472082879 C0.169631359,0.0472082879 0,0.216477644 0,0.425252635 L0,15.3580044 C0,15.5667794 0.169631359,15.7360487 0.37885284,15.7360487 L2.27311704,15.7360487 L2.27311704,18.193337 C2.27311704,18.402112 2.4427484,18.5713813 2.65196988,18.5713813 L14.3960291,18.5713813 L14.3964079,18.5713813 C14.4950044,18.5713813 14.5917539,18.5330098 14.6642569,18.4606143 L18.4527853,14.6801708 C18.5253356,14.6080116 18.562842,14.5112795 18.562842,14.4128935 L18.5637892,14.4128935 L18.5637892,3.26058524 C18.5637892,3.05181025 18.3941578,2.88254089 18.1849363,2.88254089 Z M2.27311704,3.26058524 L2.27311704,14.97996 L0.75770568,14.97996 L0.75770568,0.803296983 L15.5329664,0.803296983 L15.5329664,2.88254089 L2.65196988,2.88254089 C2.4427484,2.88254089 2.27311704,3.05181025 2.27311704,3.26058524 Z M14.7752608,17.2807379 L14.7752608,14.7909378 L17.2703856,14.7909378 L14.7752608,17.2807379 Z M17.8060835,14.0348491 L14.3964079,14.0348491 C14.1871864,14.0348491 14.0175551,14.2041185 14.0175551,14.4128935 L14.0175551,17.8152926 L3.03082272,17.8152926 L3.03082272,3.63862959 L17.8060835,3.63862959 L17.8060835,14.0348491 Z"
                              id="Fill-1"></path>
                        <polygon id="Fill-4"
                                 points="4.7356605 6.28494002 15.34354 6.28494002 15.34354 5.52885133 4.7356605 5.52885133"></polygon>
                        <polygon id="Fill-5"
                                 points="4.7356605 8.55320611 10.4184531 8.55320611 10.4184531 7.79711741 4.7356605 7.79711741"></polygon>
                        <polygon id="Fill-6"
                                 points="4.7356605 10.8214722 15.34354 10.8214722 15.34354 10.0653835 4.7356605 10.0653835"></polygon>
                        <polygon id="Fill-7"
                                 points="4.7356605 13.0897383 10.4184531 13.0897383 10.4184531 12.3336496 4.7356605 12.3336496"></polygon>
                        <polygon id="Fill-8"
                                 points="4.7356605 15.3580044 6.06164544 15.3580044 6.06164544 14.6019157 4.7356605 14.6019157"></polygon>
                        <polygon id="Fill-9"
                                 points="6.6299247 15.3580044 7.95590964 15.3580044 7.95590964 14.6019157 6.6299247 14.6019157"></polygon>
                        <polygon id="Fill-10"
                                 points="8.5241889 15.3580044 9.85017384 15.3580044 9.85017384 14.6019157 8.5241889 14.6019157"></polygon>
                    </g>
                </g>
            </g>
        </g>
    </g>
</svg>